<?xml version="1.0" encoding="UTF-8"?>
<svg version="1.1" xmlns="http://www.w3.org/2000/svg" width="512" height="512">
<path d="M0 0 C0.84788086 0.69561035 0.84788086 0.69561035 1.71289062 1.40527344 C14.03626724 11.57511621 25.14948197 22.38993969 35 35 C35.78890625 35.97195312 36.5778125 36.94390625 37.390625 37.9453125 C58.60322207 64.56111826 72.38059079 96.54809297 79.75 129.625 C79.94867676 130.50559082 80.14735352 131.38618164 80.35205078 132.29345703 C83.4898804 147.0684131 84.41187948 161.81177932 84.375 176.875 C84.37418427 178.14259155 84.37418427 178.14259155 84.37335205 179.43579102 C84.26534732 216.20578496 75.45383231 251.59511811 58 284 C57.47237061 284.99507568 57.47237061 284.99507568 56.93408203 286.01025391 C29.00683408 338.46327376 -20.40462435 377.5675792 -76.99560547 394.91845703 C-135.2477616 411.92184087 -199.0022862 405.78017032 -252.4375 376.625 C-280.72964469 360.65747577 -307.14432418 338.57424779 -326 312 C-326.69585205 311.03803711 -326.69585205 311.03803711 -327.40576172 310.05664062 C-341.93581137 289.81818427 -352.52886516 267.72871639 -360 244 C-360.39372803 242.75259033 -360.39372803 242.75259033 -360.79541016 241.47998047 C-378.38721879 184.1731514 -370.37435457 121.85686361 -343.0625 69.125 C-333.43088284 51.01606791 -321.17249722 34.78695044 -307 20 C-306.44715332 19.41460449 -305.89430664 18.82920898 -305.32470703 18.22607422 C-291.84128844 4.00127355 -276.60981716 -7.63968133 -260 -18 C-259.39961914 -18.37576172 -258.79923828 -18.75152344 -258.18066406 -19.13867188 C-179.31591878 -67.72912359 -70.92988923 -58.52373431 0 0 Z " fill="#000000" transform="translate(399,79)"/>
<path d="M0 0 C0.90151291 -0.00960754 1.80302582 -0.01921509 2.7318573 -0.02911377 C3.71406754 -0.03336365 4.69627777 -0.03761353 5.70825195 -0.04199219 C6.71362503 -0.04769226 7.71899811 -0.05339233 8.75483704 -0.05926514 C10.88928164 -0.06873396 13.02374098 -0.07525655 15.15820312 -0.07910156 C18.41538333 -0.08877468 21.67192403 -0.1197671 24.92895508 -0.15136719 C27.00121695 -0.15790021 29.07348335 -0.16314951 31.14575195 -0.16699219 C32.60388557 -0.18551239 32.60388557 -0.18551239 34.09147644 -0.20440674 C40.14810593 -0.18459091 44.77291379 0.37361517 49.40356445 4.69628906 C52.98459369 9.37917345 53.88402805 11.41161697 53.8215332 17.28613281 C53.81250977 18.38183594 53.80348633 19.47753906 53.79418945 20.60644531 C53.78258789 21.44949219 53.77098633 22.29253906 53.7590332 23.16113281 C55.14306194 23.15560205 55.14306194 23.15560205 56.55505085 23.14995956 C79.03249785 23.06106058 101.50992199 22.99538202 123.98750782 22.95388412 C134.85762096 22.93328133 145.72761778 22.90520437 156.59765625 22.859375 C166.07480327 22.81943736 175.55186603 22.79368341 185.02909487 22.78477883 C190.04468291 22.77957583 195.06002994 22.76739447 200.07554054 22.73821259 C204.80251204 22.710934 209.5291447 22.70271286 214.25618744 22.70870209 C215.98508487 22.7076074 217.71399438 22.69972795 219.44282341 22.68431091 C240.56063394 22.5053288 240.56063394 22.5053288 247.74589252 28.94060898 C252.96117426 34.63544579 254.17625893 39.31480965 254.03485107 46.97189331 C253.60686923 51.92058141 252.12081598 56.22254321 250.3918457 60.85253906 C249.64855079 62.95805182 248.90952722 65.0650758 248.17407227 67.17333984 C247.78014282 68.29605286 247.38621338 69.41876587 246.98034668 70.57550049 C245.00396906 76.37791208 243.22618675 82.23854277 241.4469223 88.10383224 C240.81241671 90.19276959 240.17339836 92.28027109 239.53277588 94.36734009 C237.78518038 100.0610998 236.03817104 105.75493065 234.31713867 111.45678711 C233.24438385 115.00924284 232.15712975 118.5569811 231.06042862 122.10211372 C230.65252608 123.42997005 230.24980415 124.7594312 229.85280991 126.09058952 C227.03084931 135.54197858 223.67700151 145.81035183 214.7590332 151.16113281 C206.41207027 155.05447238 198.92379476 155.73754595 189.80151367 155.67871094 C188.43519347 155.68414455 187.06887914 155.6912741 185.70257568 155.69995117 C182.02490524 155.7180373 178.34768844 155.7111797 174.67001104 155.69843483 C170.80385045 155.68823422 166.93772601 155.69771957 163.07156372 155.70397949 C156.58401588 155.71123377 150.09665087 155.70172502 143.60913086 155.68261719 C136.12731325 155.66083421 128.6459315 155.66791889 121.16412437 155.68992281 C114.71706841 155.70811847 108.27014305 155.71061542 101.82306969 155.70016813 C97.98257885 155.69395835 94.14229243 155.69302806 90.30181503 155.70631409 C86.69166307 155.71793371 83.08206937 155.70973694 79.47197723 155.68673706 C77.52839407 155.67899238 75.58476326 155.6907522 73.64120483 155.70324707 C66.4603869 155.63428363 61.02595408 154.77173547 54.7590332 151.16113281 C54.7852516 161.55097691 54.7852516 161.55097691 59.7590332 170.16113281 C63.6014793 172.93198632 66.25064296 173.53657507 70.95877075 173.53967285 C72.20660339 173.54787552 73.45443604 173.55607819 74.74008179 173.56452942 C76.11505239 173.55857157 77.49002187 173.55235251 78.86499023 173.54589844 C80.31897405 173.55000526 81.77295459 173.5554668 83.22692871 173.56217957 C86.35300001 173.57389179 89.47889482 173.57639361 92.60498428 173.57182312 C97.54622659 173.56501181 102.48723664 173.58088292 107.42843628 173.60021973 C118.80607295 173.64128356 130.18370312 173.65262904 141.56140137 173.66374969 C151.99540844 173.67425105 162.42930394 173.69098228 172.86324203 173.73184538 C177.77736058 173.75023044 182.69121357 173.75408407 187.60535836 173.7469101 C190.65821668 173.74539136 193.7109413 173.7561518 196.76376343 173.77028847 C198.18155285 173.77430054 199.59936748 173.77315009 201.01714706 173.76651573 C202.94917509 173.75816772 204.881259 173.76983503 206.81326294 173.78259277 C207.89540636 173.78330528 208.97754978 173.78401779 210.09248543 173.78475189 C212.7590332 174.16113281 212.7590332 174.16113281 214.60720634 175.52854156 C216.2576027 177.8678017 216.17840882 179.36529534 215.7590332 182.16113281 C214.71606445 183.77441406 214.71606445 183.77441406 212.7590332 185.16113281 C210.12964115 185.53758129 207.70830849 185.76246369 205.0715332 185.84863281 C204.36963867 185.88279297 203.66774414 185.91695312 202.94458008 185.95214844 C201.21661933 186.03443228 199.48785248 186.09946521 197.7590332 186.16113281 C198.0787207 186.89976562 198.3984082 187.63839844 198.7277832 188.39941406 C200.61302874 193.44815874 200.75639256 197.81561874 198.6262207 202.82519531 C195.05286245 209.16743849 191.75808725 212.8281148 184.7590332 215.16113281 C177.35937257 216.03887033 171.67972819 215.7119802 165.6730957 211.05957031 C161.15412468 206.57748885 158.51403849 201.8386706 158.3215332 195.41113281 C158.43899788 191.67990174 159.26310532 189.90095251 160.7590332 186.16113281 C145.5790332 186.16113281 130.3990332 186.16113281 114.7590332 186.16113281 C115.4190332 187.48113281 116.0790332 188.80113281 116.7590332 190.16113281 C117.83235399 196.70274058 116.67393495 201.66872662 113.1887207 207.25097656 C110.39888487 210.97838018 107.01643723 213.38225246 102.7590332 215.16113281 C96.28479769 216.06249893 90.3593418 216.12612986 84.6965332 212.59863281 C81.02262162 209.67436128 77.94382617 206.81224573 76.7590332 202.16113281 C75.83386314 190.01147295 75.83386314 190.01147295 77.7590332 186.16113281 C76.63625977 186.08636719 75.51348633 186.01160156 74.35668945 185.93457031 C64.28869879 185.11384076 57.06239543 183.94871507 49.9621582 176.20019531 C45.35903397 170.47916947 43.50973806 165.15743821 43.50747681 157.76521301 C43.50209396 156.4991774 43.49671112 155.23314178 43.49116516 153.92874146 C43.49517866 152.53851274 43.49934955 151.14828446 43.50366211 149.75805664 C43.50091017 148.2842235 43.49722903 146.81039184 43.49269104 145.33656311 C43.48459773 142.17070828 43.48240579 139.00492399 43.48463821 135.83905983 C43.48747546 130.83476125 43.4731058 125.83060334 43.45565796 120.82633972 C43.40866463 106.59917284 43.38467705 92.37201647 43.37817383 78.14477539 C43.37442775 70.28121389 43.35643979 62.41781244 43.32307947 54.55431956 C43.30282996 49.57742946 43.3005116 44.60095106 43.31135964 39.62403643 C43.31396064 36.53289365 43.29999398 33.44199242 43.28127861 30.35091209 C43.27594198 28.91538751 43.2774785 27.47981884 43.28631401 26.04431152 C43.29738492 24.08825946 43.28170104 22.13210994 43.26455688 20.17610168 C43.26346735 19.08050839 43.26237782 17.9849151 43.26125526 16.85612202 C43.00536599 14.04467397 43.00536599 14.04467397 40.85589504 12.30885601 C38.51994937 11.03026961 37.14322398 10.78383274 34.49707031 10.77636719 C33.66618393 10.7662561 32.83529755 10.75614502 31.97923279 10.74572754 C31.09059036 10.74874878 30.20194794 10.75177002 29.28637695 10.75488281 C28.36691788 10.74404663 27.4474588 10.73321045 26.50013733 10.7220459 C22.57013017 10.67617187 18.64018806 10.66468126 14.70996094 10.64990234 C11.83935845 10.63423804 8.96931295 10.60124725 6.09887695 10.56738281 C5.2082103 10.57040405 4.31754364 10.57342529 3.39988708 10.57653809 C2.57215286 10.566427 1.74441864 10.55631592 0.89160156 10.54589844 C-0.19949669 10.54281677 -0.19949669 10.54281677 -1.31263733 10.53967285 C-3.82345114 10.04678843 -4.73926911 9.20807499 -6.2409668 7.16113281 C-5.79158467 1.54385619 -5.57771547 0.04779298 0 0 Z " fill="#010101" transform="translate(132.240966796875,147.8388671875)"/>
<path d="M0 0 C0.90151291 -0.00960754 1.80302582 -0.01921509 2.7318573 -0.02911377 C3.71406754 -0.03336365 4.69627777 -0.03761353 5.70825195 -0.04199219 C6.71362503 -0.04769226 7.71899811 -0.05339233 8.75483704 -0.05926514 C10.88928164 -0.06873396 13.02374098 -0.07525655 15.15820312 -0.07910156 C18.41538333 -0.08877468 21.67192403 -0.1197671 24.92895508 -0.15136719 C27.00121695 -0.15790021 29.07348335 -0.16314951 31.14575195 -0.16699219 C32.60388557 -0.18551239 32.60388557 -0.18551239 34.09147644 -0.20440674 C40.14810593 -0.18459091 44.77291379 0.37361517 49.40356445 4.69628906 C52.98459369 9.37917345 53.88402805 11.41161697 53.8215332 17.28613281 C53.81250977 18.38183594 53.80348633 19.47753906 53.79418945 20.60644531 C53.78258789 21.44949219 53.77098633 22.29253906 53.7590332 23.16113281 C55.14306194 23.15560205 55.14306194 23.15560205 56.55505085 23.14995956 C79.03249785 23.06106058 101.50992199 22.99538202 123.98750782 22.95388412 C134.85762096 22.93328133 145.72761778 22.90520437 156.59765625 22.859375 C166.07480327 22.81943736 175.55186603 22.79368341 185.02909487 22.78477883 C190.04468291 22.77957583 195.06002994 22.76739447 200.07554054 22.73821259 C204.80251204 22.710934 209.5291447 22.70271286 214.25618744 22.70870209 C215.98508487 22.7076074 217.71399438 22.69972795 219.44282341 22.68431091 C240.56063394 22.5053288 240.56063394 22.5053288 247.74589252 28.94060898 C252.96117426 34.63544579 254.17625893 39.31480965 254.03485107 46.97189331 C253.60686923 51.92058141 252.12081598 56.22254321 250.3918457 60.85253906 C249.64855079 62.95805182 248.90952722 65.0650758 248.17407227 67.17333984 C247.78014282 68.29605286 247.38621338 69.41876587 246.98034668 70.57550049 C245.00396906 76.37791208 243.22618675 82.23854277 241.4469223 88.10383224 C240.81241671 90.19276959 240.17339836 92.28027109 239.53277588 94.36734009 C237.78518038 100.0610998 236.03817104 105.75493065 234.31713867 111.45678711 C233.24438385 115.00924284 232.15712975 118.5569811 231.06042862 122.10211372 C230.65252608 123.42997005 230.24980415 124.7594312 229.85280991 126.09058952 C227.03084931 135.54197858 223.67700151 145.81035183 214.7590332 151.16113281 C206.41207027 155.05447238 198.92379476 155.73754595 189.80151367 155.67871094 C188.43519347 155.68414455 187.06887914 155.6912741 185.70257568 155.69995117 C182.02490524 155.7180373 178.34768844 155.7111797 174.67001104 155.69843483 C170.80385045 155.68823422 166.93772601 155.69771957 163.07156372 155.70397949 C156.58401588 155.71123377 150.09665087 155.70172502 143.60913086 155.68261719 C136.12731325 155.66083421 128.6459315 155.66791889 121.16412437 155.68992281 C114.71706841 155.70811847 108.27014305 155.71061542 101.82306969 155.70016813 C97.98257885 155.69395835 94.14229243 155.69302806 90.30181503 155.70631409 C86.69166307 155.71793371 83.08206937 155.70973694 79.47197723 155.68673706 C77.52839407 155.67899238 75.58476326 155.6907522 73.64120483 155.70324707 C66.4603869 155.63428363 61.02595408 154.77173547 54.7590332 151.16113281 C54.7852516 161.55097691 54.7852516 161.55097691 59.7590332 170.16113281 C63.6014793 172.93198632 66.25064296 173.53657507 70.95877075 173.53967285 C72.20660339 173.54787552 73.45443604 173.55607819 74.74008179 173.56452942 C76.11505239 173.55857157 77.49002187 173.55235251 78.86499023 173.54589844 C80.31897405 173.55000526 81.77295459 173.5554668 83.22692871 173.56217957 C86.35300001 173.57389179 89.47889482 173.57639361 92.60498428 173.57182312 C97.54622659 173.56501181 102.48723664 173.58088292 107.42843628 173.60021973 C118.80607295 173.64128356 130.18370312 173.65262904 141.56140137 173.66374969 C151.99540844 173.67425105 162.42930394 173.69098228 172.86324203 173.73184538 C177.77736058 173.75023044 182.69121357 173.75408407 187.60535836 173.7469101 C190.65821668 173.74539136 193.7109413 173.7561518 196.76376343 173.77028847 C198.18155285 173.77430054 199.59936748 173.77315009 201.01714706 173.76651573 C202.94917509 173.75816772 204.881259 173.76983503 206.81326294 173.78259277 C207.89540636 173.78330528 208.97754978 173.78401779 210.09248543 173.78475189 C212.7590332 174.16113281 212.7590332 174.16113281 214.60720634 175.52854156 C216.2576027 177.8678017 216.17840882 179.36529534 215.7590332 182.16113281 C214.71606445 183.77441406 214.71606445 183.77441406 212.7590332 185.16113281 C210.12964115 185.53758129 207.70830849 185.76246369 205.0715332 185.84863281 C204.36963867 185.88279297 203.66774414 185.91695312 202.94458008 185.95214844 C201.21661933 186.03443228 199.48785248 186.09946521 197.7590332 186.16113281 C198.0787207 186.89976562 198.3984082 187.63839844 198.7277832 188.39941406 C200.61302874 193.44815874 200.75639256 197.81561874 198.6262207 202.82519531 C195.05286245 209.16743849 191.75808725 212.8281148 184.7590332 215.16113281 C177.35937257 216.03887033 171.67972819 215.7119802 165.6730957 211.05957031 C161.15412468 206.57748885 158.51403849 201.8386706 158.3215332 195.41113281 C158.43899788 191.67990174 159.26310532 189.90095251 160.7590332 186.16113281 C145.5790332 186.16113281 130.3990332 186.16113281 114.7590332 186.16113281 C115.4190332 187.48113281 116.0790332 188.80113281 116.7590332 190.16113281 C117.83235399 196.70274058 116.67393495 201.66872662 113.1887207 207.25097656 C110.39888487 210.97838018 107.01643723 213.38225246 102.7590332 215.16113281 C96.28479769 216.06249893 90.3593418 216.12612986 84.6965332 212.59863281 C81.02262162 209.67436128 77.94382617 206.81224573 76.7590332 202.16113281 C75.83386314 190.01147295 75.83386314 190.01147295 77.7590332 186.16113281 C76.63625977 186.08636719 75.51348633 186.01160156 74.35668945 185.93457031 C64.28869879 185.11384076 57.06239543 183.94871507 49.9621582 176.20019531 C45.35903397 170.47916947 43.50973806 165.15743821 43.50747681 157.76521301 C43.50209396 156.4991774 43.49671112 155.23314178 43.49116516 153.92874146 C43.49517866 152.53851274 43.49934955 151.14828446 43.50366211 149.75805664 C43.50091017 148.2842235 43.49722903 146.81039184 43.49269104 145.33656311 C43.48459773 142.17070828 43.48240579 139.00492399 43.48463821 135.83905983 C43.48747546 130.83476125 43.4731058 125.83060334 43.45565796 120.82633972 C43.40866463 106.59917284 43.38467705 92.37201647 43.37817383 78.14477539 C43.37442775 70.28121389 43.35643979 62.41781244 43.32307947 54.55431956 C43.30282996 49.57742946 43.3005116 44.60095106 43.31135964 39.62403643 C43.31396064 36.53289365 43.29999398 33.44199242 43.28127861 30.35091209 C43.27594198 28.91538751 43.2774785 27.47981884 43.28631401 26.04431152 C43.29738492 24.08825946 43.28170104 22.13210994 43.26455688 20.17610168 C43.26346735 19.08050839 43.26237782 17.9849151 43.26125526 16.85612202 C43.00536599 14.04467397 43.00536599 14.04467397 40.85589504 12.30885601 C38.51994937 11.03026961 37.14322398 10.78383274 34.49707031 10.77636719 C33.66618393 10.7662561 32.83529755 10.75614502 31.97923279 10.74572754 C31.09059036 10.74874878 30.20194794 10.75177002 29.28637695 10.75488281 C28.36691788 10.74404663 27.4474588 10.73321045 26.50013733 10.7220459 C22.57013017 10.67617187 18.64018806 10.66468126 14.70996094 10.64990234 C11.83935845 10.63423804 8.96931295 10.60124725 6.09887695 10.56738281 C5.2082103 10.57040405 4.31754364 10.57342529 3.39988708 10.57653809 C2.57215286 10.566427 1.74441864 10.55631592 0.89160156 10.54589844 C-0.19949669 10.54281677 -0.19949669 10.54281677 -1.31263733 10.53967285 C-3.82345114 10.04678843 -4.73926911 9.20807499 -6.2409668 7.16113281 C-5.79158467 1.54385619 -5.57771547 0.04779298 0 0 Z M54.7590332 33.16113281 C54.66630056 46.20894116 54.59525131 59.25667093 54.55178452 72.30474186 C54.53092127 78.36368015 54.50262606 84.42239276 54.45727539 90.48120117 C54.41377355 96.32969312 54.3898866 102.17796815 54.37952423 108.02660942 C54.37214073 110.25651908 54.35772247 112.48641704 54.33611298 114.71623421 C54.30702206 117.84273948 54.30307968 120.96835159 54.30493164 124.0949707 C54.29055054 125.01422836 54.27616943 125.93348602 54.26135254 126.88059998 C54.29934466 132.81885147 55.17357028 136.36030785 58.7590332 141.16113281 C62.49125209 143.90086281 65.11585123 144.53802263 69.71080017 144.54881287 C71.50031853 144.56366982 71.50031853 144.56366982 73.32598877 144.5788269 C74.62639099 144.57432526 75.92679321 144.56982361 77.26660156 144.56518555 C78.65660653 144.57089082 80.04660682 144.57785569 81.43659973 144.58598328 C85.20524904 144.60391289 88.97366548 144.60274672 92.74234462 144.59704089 C95.89095787 144.59394867 99.03952641 144.60004188 102.1881333 144.60607964 C109.61732207 144.62012266 117.04639584 144.61856552 124.47558594 144.60717773 C132.13454899 144.59569701 139.79316185 144.60977171 147.45207876 144.63657421 C154.03313566 144.65874064 160.6140827 144.66536647 167.19517428 144.6594978 C171.12342087 144.6561292 175.051443 144.65853657 178.97965813 144.67574883 C182.67423462 144.69123108 186.36829293 144.68724882 190.06284904 144.66844368 C192.06075727 144.66300859 194.05868884 144.67726223 196.05654907 144.69213867 C204.73176407 144.67367981 204.73176407 144.67367981 211.7590332 140.16113281 C217.64241702 133.90949869 219.44621035 124.59718131 221.8840332 116.59472656 C222.35711495 115.07235424 222.83125635 113.55031085 223.30639648 112.02857971 C224.55067036 108.03435817 225.78154804 104.03613742 227.00927734 100.0368042 C228.49050236 95.21992895 229.98683246 90.40773091 231.48153687 85.59502506 C232.64734299 81.84060401 233.8108766 78.08554059 234.96655273 74.32798767 C235.39464521 72.93956557 235.82286545 71.55118285 236.2512207 70.1628418 C236.45639313 69.49538657 236.66156555 68.82793135 236.87295532 68.14025021 C237.92531945 64.74365704 239.02052478 61.36909014 240.18969727 58.01077271 C240.42238312 57.33759789 240.65506897 56.66442308 240.89480591 55.97084904 C241.53684948 54.12715897 242.19074008 52.28760657 242.84545898 50.44837952 C244.05788485 46.08579699 244.3718912 42.71130304 242.6965332 38.47363281 C239.32315944 34.447348 235.15868943 33.30242239 230.10218906 32.79198933 C228.13185656 32.79613739 228.13185656 32.79613739 226.12171936 32.80036926 C225.38478251 32.79780599 224.64784567 32.79524271 223.8885774 32.79260176 C221.43639566 32.7876877 218.9848392 32.80411681 216.53271484 32.82055664 C214.76815811 32.82140343 213.00360031 32.82092676 211.23904419 32.81922913 C206.46059237 32.81836977 201.68236731 32.83598589 196.9039681 32.856951 C191.90583403 32.87572773 186.90769454 32.87746903 181.90953064 32.88102722 C172.45010886 32.89034475 162.99079132 32.91495461 153.5314154 32.94507569 C142.76000959 32.97862877 131.98859875 32.995108 121.21715367 33.010162 C99.06438871 33.04150439 76.91171753 33.09425925 54.7590332 33.16113281 Z " fill="#F9F9F9" transform="translate(132.240966796875,147.8388671875)"/>
<path d="M0 0 C0.79225983 0.00247742 1.58451965 0.00495483 2.40078735 0.00750732 C3.2350676 0.00239639 4.06934784 -0.00271454 4.9289093 -0.00798035 C7.69573068 -0.02191763 10.46230412 -0.02091647 13.22915649 -0.01861572 C15.14725335 -0.02250044 17.06534935 -0.02683464 18.98344421 -0.03160095 C23.00767808 -0.03907211 27.03182423 -0.03876546 31.05606079 -0.0335083 C36.21918655 -0.02771309 41.38195366 -0.04464158 46.5450201 -0.06785297 C50.50750334 -0.08256803 54.46989976 -0.08346505 58.43240547 -0.08034325 C60.33624545 -0.0808576 62.24009015 -0.08611666 64.14390373 -0.09615517 C66.80398899 -0.10845895 69.46337006 -0.10176455 72.1234436 -0.09014893 C73.308797 -0.10161453 73.308797 -0.10161453 74.51809692 -0.11331177 C79.80445438 -0.06215619 79.80445438 -0.06215619 82.34733582 1.61402893 C83.32681274 3.28216553 83.32681274 3.28216553 83.20181274 6.34466553 C82.32681274 9.28216553 82.32681274 9.28216553 79.32681274 11.28216553 C76.62474982 11.48174335 74.02552557 11.56551962 71.32290649 11.55682373 C70.50798737 11.56193466 69.69306824 11.56704559 68.85345459 11.5723114 C66.15699949 11.58622323 63.46079948 11.58524964 60.76431274 11.58294678 C58.8924856 11.58683246 57.02065934 11.59116687 55.14883423 11.59593201 C51.22473289 11.60339737 47.30072152 11.60310038 43.37661743 11.59783936 C38.34243235 11.59204031 33.30861466 11.60898467 28.27449036 11.63218403 C24.40894408 11.64689833 20.5434868 11.64779629 16.67791748 11.6446743 C14.82152579 11.64518854 12.96512925 11.65044551 11.10876465 11.66048622 C8.51583799 11.67279061 5.92363365 11.66609569 3.33071899 11.65447998 C2.56075592 11.66212372 1.79079285 11.66976746 0.99749756 11.67764282 C-4.16120374 11.62643153 -4.16120374 11.62643153 -6.65390015 9.95030212 C-8.23665402 7.36001167 -7.98762113 5.23784394 -7.67318726 2.28216553 C-5.12507172 -0.26595001 -3.4753966 0.03410174 0 0 Z " fill="#F3F3F3" transform="translate(216.67318725585938,253.71783447265625)"/>
<path d="M0 0 C0.69891357 -0.00287018 1.39782715 -0.00574036 2.11791992 -0.00869751 C3.59392101 -0.01073675 5.06994921 -0.00521653 6.54589844 0.00732422 C8.80465138 0.0233817 11.06161518 0.0074728 13.3203125 -0.01171875 C14.75521228 -0.00973629 16.19011095 -0.00589256 17.625 0 C18.93082031 0.00338379 20.23664063 0.00676758 21.58203125 0.01025391 C24.8125 0.3984375 24.8125 0.3984375 26.73828125 1.76708984 C28.28649725 4.11826695 28.22554952 5.64477406 27.8125 8.3984375 C26.73828125 10.02978516 26.73828125 10.02978516 24.8125 11.3984375 C21.58203125 11.78662109 21.58203125 11.78662109 17.625 11.796875 C16.92608643 11.79974518 16.22717285 11.80261536 15.50708008 11.80557251 C14.03107899 11.80761175 12.55505079 11.80209153 11.07910156 11.78955078 C8.82034862 11.7734933 6.56338482 11.7894022 4.3046875 11.80859375 C2.86978772 11.80661129 1.43488905 11.80276756 0 11.796875 C-1.30582031 11.79349121 -2.61164063 11.79010742 -3.95703125 11.78662109 C-7.1875 11.3984375 -7.1875 11.3984375 -9.11328125 10.02978516 C-10.66149725 7.67860805 -10.60054952 6.15210094 -10.1875 3.3984375 C-7.61789597 -0.50385662 -4.36582987 0.01131323 0 0 Z " fill="#F1F1F1" transform="translate(219.1875,221.6015625)"/>
<path d="M0 0 C2.86262257 2.00992648 4.64014872 3.43748788 5.4453125 6.93359375 C5.64769318 10.50223967 5.14571934 12.70222569 3.5625 15.9375 C-0.05901976 18.85238176 -3.39406378 19.44335215 -8 19 C-10.92143417 17.23496686 -12.47923817 16.04152365 -14 13 C-14.70153846 5.86769231 -14.70153846 5.86769231 -11.625 2.0625 C-7.32198817 -1.31843787 -5.37649402 -1.27577824 0 0 Z " fill="#080808" transform="translate(316,334)"/>
<path d="M0 0 C2.86262257 2.00992648 4.64014872 3.43748788 5.4453125 6.93359375 C5.64769318 10.50223967 5.14571934 12.70222569 3.5625 15.9375 C0.42023589 18.46663941 -1.82948266 19.02168422 -5.80859375 19.27734375 C-8 19 -8 19 -11 16.6875 C-14.07645163 12.55351812 -14.52881291 10.19999361 -14 5 C-9.45613306 -0.5004705 -6.96669891 -1.653115 0 0 Z " fill="#070707" transform="translate(233,334)"/>
</svg>
