<?xml version="1.0" encoding="UTF-8"?>
<svg version="1.1" xmlns="http://www.w3.org/2000/svg" width="512" height="512">
<path d="M0 0 C1.42308582 -0.00701996 1.42308582 -0.00701996 2.87492085 -0.01418173 C6.03223752 -0.02608238 9.18911618 -0.01669373 12.34643555 -0.00723267 C14.61884818 -0.01130055 16.89125884 -0.01664364 19.16366577 -0.02316284 C25.32061507 -0.03681635 31.47741321 -0.03154581 37.63436508 -0.02202559 C44.08437247 -0.01441886 50.5343671 -0.02147742 56.984375 -0.02618408 C68.50835789 -0.03198784 80.03226366 -0.02267751 91.55623448 -0.00740607 C101.99252038 0.00599611 112.42870614 0.0036677 122.86499023 -0.01016235 C135.00143054 -0.02623804 147.13779231 -0.03218171 159.27424526 -0.02332556 C165.69242697 -0.0186537 172.11053979 -0.01801088 178.52871704 -0.02793503 C184.56327794 -0.03661459 190.59765014 -0.03056446 196.6321907 -0.01325226 C198.84406852 -0.00929274 201.05596228 -0.01041227 203.26783371 -0.01704025 C206.29253818 -0.02526681 209.31664213 -0.01492042 212.34130859 0 C213.21165395 -0.00669217 214.0819993 -0.01338433 214.97871876 -0.02027929 C225.22757509 0.07743872 233.48691854 3.61164323 241.1706543 10.38095093 C251.19694577 21.76163824 251.60934648 33.23924745 251.55160522 47.63827515 C251.55506389 49.51229055 251.55982985 51.38630391 251.56578696 53.26031303 C251.57829789 58.39897344 251.57212608 63.53746646 251.5628283 68.67612743 C251.55603858 74.22221695 251.56651867 79.76827776 251.57476807 85.31436157 C251.58810837 96.17480792 251.58522631 107.03519207 251.57653014 117.89564085 C251.56975519 126.72210927 251.56883607 135.54856025 251.57210159 144.37503052 C251.57256129 145.63122661 251.57302099 146.88742269 251.57349462 148.18168533 C251.5744538 150.73361795 251.57542644 153.28555056 251.57641239 155.83748317 C251.58472329 179.08517273 251.57610435 202.33282588 251.5603846 225.58050773 C251.54614814 246.795908 251.54742203 268.01125425 251.56176758 289.22665405 C251.57783684 313.07085216 251.58414318 336.91502049 251.57493079 360.75922585 C251.57397514 363.30177434 251.57303203 365.84432284 251.57210159 368.38687134 C251.57163877 369.6378561 251.57117594 370.88884086 251.57069909 372.17773426 C251.56810874 380.99366981 251.57248117 389.80958621 251.57954025 398.6255188 C251.58795372 409.36908447 251.58567827 420.11258438 251.56969802 430.85614252 C251.56181331 436.33772812 251.55872722 441.81920408 251.56864548 447.30078888 C251.57758858 452.31932443 251.5726657 457.33764876 251.55671282 462.35616517 C251.55336342 464.17098159 251.55506267 465.98581588 251.56234019 467.80062079 C251.61234501 481.30713397 250.4860916 491.80714311 241.1706543 502.38095093 C232.53794133 509.98629971 223.69843117 512.84922781 212.34130859 512.76190186 C210.91822278 512.76892181 210.91822278 512.76892181 209.46638775 512.77608359 C206.30907108 512.78798424 203.15219242 512.77859558 199.99487305 512.76913452 C197.72246041 512.7732024 195.45004975 512.7785455 193.17764282 512.7850647 C187.02069353 512.7987182 180.86389538 512.79344767 174.70694351 512.78392744 C168.25693613 512.77632072 161.8069415 512.78337927 155.35693359 512.78808594 C143.8329507 512.79388969 132.30904493 512.78457937 120.78507411 512.76930793 C110.34878822 512.75590575 99.91260245 512.75823416 89.47631836 512.77206421 C77.33987805 512.78813989 65.20351628 512.79408356 53.06706333 512.78522742 C46.64888163 512.78055556 40.23076881 512.77991273 33.81259155 512.78983688 C27.77803066 512.79851644 21.74365845 512.79246631 15.70911789 512.77515411 C13.49724007 512.7711946 11.28534632 512.77231413 9.07347488 512.77894211 C6.04877041 512.78716867 3.02466646 512.77682227 0 512.76190186 C-1.30551803 512.7719401 -1.30551803 512.7719401 -2.63741016 512.78218114 C-12.8862665 512.68446313 -21.14560995 509.15025862 -28.8293457 502.38095093 C-38.85563717 491.00026361 -39.26803788 479.52265441 -39.21029663 465.12362671 C-39.21375529 463.24961131 -39.21852126 461.37559794 -39.22447836 459.50158882 C-39.2369893 454.36292841 -39.23081749 449.22443539 -39.22151971 444.08577442 C-39.21472998 438.5396849 -39.22521008 432.99362409 -39.23345947 427.44754028 C-39.24679978 416.58709394 -39.24391772 405.72670979 -39.23522155 394.86626101 C-39.2284466 386.03979259 -39.22752747 377.21334161 -39.230793 368.38687134 C-39.2312527 367.13067525 -39.2317124 365.87447916 -39.23218603 364.58021653 C-39.2331452 362.02828391 -39.23411784 359.4763513 -39.2351038 356.92441869 C-39.2434147 333.67672913 -39.23479575 310.42907598 -39.21907601 287.18139413 C-39.20483954 265.96599386 -39.20611344 244.75064761 -39.22045898 223.5352478 C-39.23652825 199.69104969 -39.24283459 175.84688137 -39.23362219 152.00267601 C-39.23266655 149.46012752 -39.23172343 146.91757902 -39.230793 144.37503052 C-39.23033017 143.12404575 -39.22986735 141.87306099 -39.22939049 140.5841676 C-39.22680015 131.76823204 -39.23117257 122.95231565 -39.23823166 114.13638306 C-39.24664513 103.39281739 -39.24436968 92.64931747 -39.22838943 81.90575933 C-39.22050472 76.42417373 -39.21741863 70.94269777 -39.22733688 65.46111298 C-39.23627998 60.44257742 -39.2313571 55.42425309 -39.21540423 50.40573668 C-39.21205482 48.59092026 -39.21375408 46.77608598 -39.22103159 44.96128106 C-39.27103641 31.45476789 -38.14478301 20.95475875 -28.8293457 10.38095093 C-20.19663274 2.77560215 -11.35712257 -0.08732596 0 0 Z M50.41717339 25.27276325 C48.99076301 27.68519384 48.76706129 29.09789791 48.7956543 31.88095093 C48.78791992 32.63376343 48.78018555 33.38657593 48.7722168 34.16220093 C49.27958658 36.98755425 50.22622448 38.28118583 52.1706543 40.38095093 C54.25426388 40.97615793 54.25426388 40.97615793 56.61132812 40.88215637 C57.97410385 40.89690758 57.97410385 40.89690758 59.3644104 40.91195679 C60.8559816 40.89745483 60.8559816 40.89745483 62.37768555 40.88265991 C63.42669037 40.8880629 64.47569519 40.89346588 65.55648804 40.89903259 C69.03232835 40.91156449 72.50734757 40.89499855 75.9831543 40.87704468 C78.39306685 40.87719956 80.80297966 40.87868676 83.21289062 40.88145447 C88.26695752 40.88284047 93.32074133 40.87024643 98.37475586 40.84750366 C104.86176331 40.81911881 111.34830014 40.82185386 117.83534241 40.83459377 C122.81266315 40.84153995 127.7898746 40.83377375 132.7671814 40.82133675 C135.15945009 40.81681194 137.55173047 40.81649438 139.94400024 40.82040215 C143.28412024 40.82330391 146.62358563 40.80685629 149.96362305 40.78500366 C150.95800385 40.78950531 151.95238464 40.79400696 152.97689819 40.79864502 C153.88541534 40.78874039 154.7939325 40.77883575 155.72998047 40.76863098 C156.91463142 40.76498614 156.91463142 40.76498614 158.12321472 40.76126766 C160.71130196 40.28052435 161.57457562 39.44005169 163.1706543 37.38095093 C164.86855754 32.04468359 163.60432563 29.15469084 161.1706543 24.38095093 C159.61645828 22.82675492 158.13374687 23.24545817 155.9704895 23.23377991 C155.06472168 23.2266246 154.15895386 23.2194693 153.22573853 23.21209717 C152.22416718 23.20940826 151.22259583 23.20671936 150.19067383 23.20394897 C149.14196106 23.19737778 148.09324829 23.19080658 147.01275635 23.18403625 C143.52632587 23.16425031 140.03993854 23.1526298 136.5534668 23.14266968 C135.3666116 23.13859415 134.17975639 23.13451862 132.95693588 23.1303196 C126.67710288 23.10943771 120.39729189 23.09514434 114.11743164 23.08578491 C107.61466404 23.07470712 101.11223738 23.04029713 94.60959053 23.00061321 C89.62372174 22.97453208 84.63793526 22.96610072 79.65200424 22.96250343 C77.25412566 22.9576166 74.85625124 22.94594362 72.45843887 22.92746544 C69.10848827 22.90325174 65.75943419 22.90400651 62.40942383 22.91098022 C61.41190094 22.89817017 60.41437805 22.88536011 59.3866272 22.87216187 C58.01951599 22.88257759 58.01951599 22.88257759 56.62478638 22.89320374 C55.43623897 22.88962121 55.43623897 22.88962121 54.2236805 22.8859663 C51.9919862 23.223572 51.9919862 23.223572 50.41717339 25.27276325 Z M-10.8293457 63.38095093 C-10.8293457 172.28095093 -10.8293457 281.18095093 -10.8293457 393.38095093 C66.3906543 393.38095093 143.6106543 393.38095093 223.1706543 393.38095093 C223.1706543 284.48095093 223.1706543 175.58095093 223.1706543 63.38095093 C145.9506543 63.38095093 68.7306543 63.38095093 -10.8293457 63.38095093 Z M88.1706543 436.38095093 C83.65199067 443.07758538 81.87182908 449.34747643 83.1706543 457.38095093 C85.51579485 464.71575224 90.41773213 469.97788614 97.2253418 473.58798218 C103.41858708 476.11253798 108.9515788 475.71531686 115.10424805 473.31845093 C121.64906141 470.34915942 124.93965365 466.64986452 128.1706543 460.38095093 C130.33505054 453.88776221 129.98528654 447.30220018 127.1706543 441.06845093 C123.82251828 435.10250885 119.30450248 431.81729801 113.1706543 429.00595093 C103.83017078 427.06001686 94.88416656 429.29446576 88.1706543 436.38095093 Z " fill="#FFFFFF" transform="translate(149.829345703125,-0.380950927734375)"/>
</svg>
