<?xml version="1.0" encoding="UTF-8"?>
<svg version="1.1" xmlns="http://www.w3.org/2000/svg" width="512" height="512">
<path d="M0 0 C6.38658399 -0.01104524 12.77316603 -0.01932374 19.15975761 -0.0245285 C21.27733866 -0.02636309 23.39491932 -0.02877582 25.51249886 -0.0318985 C51.07701455 -0.06552689 76.68408509 0.23354109 102.22183228 1.47262573 C102.99484177 1.5076268 103.76785126 1.54262787 104.56428528 1.57868958 C117.20234434 2.24328856 128.12616737 6.32044366 136.91323853 15.65231323 C142.89694279 23.25765163 145.15333208 30.52307928 145.77261353 40.01559448 C146.93083618 39.99464722 148.08905884 39.97369995 149.28237915 39.95211792 C153.65838822 39.8786688 158.03434525 39.83342114 162.41079712 39.79586792 C164.29012266 39.77598766 166.16938835 39.74887361 168.04849243 39.71383667 C188.42333697 39.34397831 206.79893693 42.00871263 222.32339478 56.47653198 C228.51803138 62.89840406 233.49888848 69.33575544 237.96011353 77.07809448 C238.51255737 78.02692505 239.06500122 78.97575562 239.63418579 79.95333862 C245.22411615 89.6456784 250.54414982 99.47292161 255.52017212 109.49459839 C256.29270088 111.04959489 257.07488937 112.59988711 257.87271118 114.14205933 C270.48141192 138.75128379 259.6100817 172.84735978 253.68667603 198.37496948 C253.45219757 199.39249298 253.45219757 199.39249298 253.21298218 200.43057251 C250.84106893 210.33796983 246.82799736 218.86035981 240.77261353 227.01559448 C239.65886353 228.59340698 239.65886353 228.59340698 238.52261353 230.20309448 C233.29948634 235.5449291 225.4376219 240.84533095 217.74185181 241.07662964 C217.0327063 241.06937866 216.32356079 241.06212769 215.59292603 241.05465698 C214.3322229 241.04176636 213.07151978 241.02887573 211.77261353 241.01559448 C211.60245728 239.97661011 211.43230103 238.93762573 211.25698853 237.86715698 C208.64353834 222.54166422 204.30608737 210.87176386 192.01089478 200.58200073 C179.14526877 191.57830784 164.50423942 190.64577458 149.39370728 192.41012573 C136.40625872 195.14897543 124.89786142 202.59061217 115.77261353 212.01559448 C115.12808228 212.66270386 114.48355103 213.30981323 113.81948853 213.97653198 C105.68995766 222.63624964 102.02651991 232.95543787 97.77261353 244.01559448 C63.78261353 244.01559448 29.79261353 244.01559448 -5.22738647 244.01559448 C-5.55738647 239.39559448 -5.88738647 234.77559448 -6.22738647 230.01559448 C-9.25436935 216.79245878 -15.42351958 206.21934167 -26.91488647 198.82809448 C-40.56967738 191.2148852 -55.65614105 189.37246262 -70.82333374 193.50704956 C-77.86289749 195.70506038 -84.24773545 198.67935748 -90.22738647 203.01559448 C-91.12973022 203.66270386 -92.03207397 204.30981323 -92.96176147 204.97653198 C-102.99551557 212.65429409 -109.40859457 221.29610004 -113.99301147 232.92184448 C-114.30770386 233.70333862 -114.62239624 234.48483276 -114.94662476 235.29000854 C-115.71311757 237.19604012 -116.47114119 239.10547389 -117.22738647 241.01559448 C-126.23334064 241.06202642 -135.2392533 241.09751873 -144.24530125 241.11921883 C-148.42760523 241.12963612 -152.60982704 241.14375764 -156.79208374 241.16647339 C-160.83156576 241.18827525 -164.87096896 241.20017855 -168.91050529 241.20534897 C-170.4482033 241.20903158 -171.98589721 241.2162227 -173.52356148 241.2270546 C-175.68477679 241.24166737 -177.84567037 241.24356838 -180.00692749 241.24264526 C-181.23492569 241.24708649 -182.46292389 241.25152771 -183.72813416 241.25610352 C-189.98063498 240.82635945 -194.69895754 239.41823372 -199.22738647 235.01559448 C-202.60134047 230.79815199 -203.36888581 226.31297575 -203.22738647 221.01559448 C-202.09970369 215.38724918 -199.6756296 211.70438146 -195.22738647 208.01559448 C-191.86969275 205.92259994 -189.17104972 205.75294091 -185.24691772 205.70700073 C-184.08224976 205.68186401 -182.91758179 205.65672729 -181.71762085 205.63082886 C-179.28537847 205.59595337 -176.85308206 205.56464446 -174.42074585 205.53707886 C-166.19853636 205.35154744 -159.09107447 204.81060282 -152.28988647 199.89059448 C-148.72103298 194.91582901 -147.88679357 190.28621381 -148.78988647 184.26559448 C-151.2723688 178.65302574 -154.6693105 175.94130648 -160.29571533 173.62895012 C-163.49728643 172.61236834 -166.54541685 172.6442508 -169.88754272 172.646698 C-170.98411697 172.64104828 -170.98411697 172.64104828 -172.10284424 172.63528442 C-173.67802656 172.62888662 -175.25324754 172.62914919 -176.82843018 172.63546944 C-179.3263403 172.64463448 -181.82350854 172.63429543 -184.32138062 172.61885071 C-191.41861931 172.57889623 -198.51579613 172.5775482 -205.61312866 172.57980347 C-209.96558443 172.57985468 -214.3176376 172.56063415 -218.66998291 172.53046989 C-221.12241076 172.51968748 -223.57405652 172.5317473 -226.02645874 172.54429626 C-227.54005696 172.5353876 -229.05364891 172.52531174 -230.56723022 172.5138855 C-231.88070435 172.51405167 -233.19417847 172.51421783 -234.54745483 172.51438904 C-240.04773799 171.76885582 -243.66102208 169.54179569 -247.66488647 165.64059448 C-250.15268577 159.86890011 -249.9471667 154.19982869 -249.22738647 148.01559448 C-246.99203074 143.02903168 -243.95343015 140.67399405 -239.22738647 138.01559448 C-235.52577596 136.7446941 -231.86964879 136.87721613 -227.98373413 136.85787964 C-227.26126999 136.85279892 -226.53880585 136.8477182 -225.79444885 136.84248352 C-224.22903266 136.83180294 -222.66360142 136.82317374 -221.0981636 136.81636429 C-218.61775065 136.80454405 -216.13750937 136.78508358 -213.65716553 136.76324463 C-206.60608654 136.70173122 -199.55502655 136.64759828 -192.50375366 136.61422729 C-188.18718569 136.59325093 -183.87093354 136.55792641 -179.55454636 136.5134697 C-177.9128021 136.49933572 -176.271002 136.49059314 -174.62919998 136.48741531 C-172.32907429 136.48249155 -170.02978317 136.45929782 -167.72982788 136.43209839 C-166.42284943 136.42401154 -165.11587097 136.41592468 -163.76928711 136.40759277 C-158.85459873 135.8636618 -155.55758996 134.27189777 -151.97738647 130.89059448 C-149.28477962 126.46702607 -147.72111649 122.01102525 -148.60238647 116.79684448 C-150.3731132 111.40417672 -153.18553887 108.86532156 -158.00717163 105.93331909 C-160.86732446 104.75107646 -163.22136409 104.74255386 -166.31332397 104.70700073 C-167.4915271 104.68186401 -168.66973022 104.65672729 -169.88363647 104.63082886 C-172.35493974 104.59578412 -174.82629947 104.56450982 -177.29769897 104.53707886 C-178.47848022 104.51065308 -179.65926147 104.48422729 -180.87582397 104.45700073 C-181.95009644 104.44354614 -183.0243689 104.43009155 -184.13119507 104.41622925 C-189.27143703 103.75110253 -192.4251556 101.8542904 -195.97738647 98.14059448 C-199.65647635 93.03074743 -200.87285653 89.36271674 -200.22738647 83.01559448 C-198.2529732 77.12600943 -195.26703792 73.55407316 -190.22738647 70.01559448 C-187.09069364 68.9700302 -184.82058019 68.87586817 -181.52816772 68.83981323 C-180.40088257 68.81596558 -179.27359741 68.79211792 -178.1121521 68.76754761 C-175.75035061 68.72493446 -173.38831838 68.69349275 -171.0262146 68.67379761 C-163.98908335 68.50176995 -159.19254819 67.84733365 -153.22738647 64.01559448 C-149.65947114 59.89876909 -148.32130525 56.46288354 -148.22738647 51.01559448 C-149.46144352 44.79784551 -152.11563537 41.60469632 -157.22738647 38.01559448 C-160.64581765 36.3063789 -164.56528697 36.83576801 -168.32894897 36.80465698 C-170.20005121 36.77657068 -172.07114483 36.74790612 -173.94223022 36.71871948 C-176.89128212 36.67759042 -179.84017639 36.6407041 -182.78939819 36.61422729 C-185.63625384 36.58645309 -188.482379 36.54056303 -191.32894897 36.49215698 C-192.20008331 36.48890411 -193.07121765 36.48565125 -193.96875 36.4822998 C-199.94429629 36.36357556 -206.0163955 35.76962316 -210.75463867 31.70568848 C-214.29352688 27.76020836 -216.18920321 23.93661427 -216.25863647 18.62496948 C-215.92690485 13.08505135 -215.05745709 9.24883043 -211.22738647 5.01559448 C-206.18965817 1.61285183 -202.46499173 0.42892184 -196.34602356 0.49661255 C-195.58185043 0.4891113 -194.8176773 0.48161005 -194.03034741 0.47388148 C-191.48303529 0.45367259 -188.93661944 0.46169514 -186.38925171 0.46969604 C-184.55466844 0.46095341 -182.72009279 0.45046523 -180.88552856 0.43836975 C-175.89687879 0.41046456 -170.90847697 0.40710742 -165.91976047 0.40808964 C-160.64253266 0.40494033 -155.36541275 0.37924813 -150.08824158 0.35610962 C-140.03446525 0.31546325 -129.98075341 0.29520987 -119.9269076 0.28213573 C-108.70236497 0.26654123 -97.47794206 0.22802332 -86.25346601 0.18755424 C-62.32207597 0.10209518 -38.39071007 0.05394483 -14.45919418 0.02271652 C-9.63946047 0.01634231 -4.8197305 0.0084239 0 0 Z M143.77261353 65.01559448 C143.44199931 66.97783775 143.17142938 68.95022726 142.92471313 70.92477417 C142.76462265 72.18988831 142.60453217 73.45500244 142.43959045 74.75845337 C142.26786418 76.15143633 142.0963244 77.54444229 141.92495728 78.93746948 C141.74731217 80.3589939 141.56937558 81.78048192 141.39115906 83.20193481 C141.01778041 86.1876665 140.64740372 89.1737509 140.27920532 92.16012573 C139.8078647 95.98174618 139.33002192 99.80251811 138.85001278 103.62305832 C138.4813658 106.561914 138.11577211 109.50114318 137.75113106 112.44049835 C137.57614184 113.84876149 137.40031104 115.25692032 137.22361565 116.6649704 C136.97642299 118.63921581 136.73367977 120.61401678 136.49111938 122.58883667 C136.35201645 123.71167053 136.21291351 124.83450439 136.06959534 125.99136353 C135.80426847 128.69324519 135.71457523 131.30366999 135.77261353 134.01559448 C147.02961137 134.08510645 158.28655815 134.13841192 169.54372692 134.171031 C174.7708971 134.18668656 179.99792044 134.20792301 185.2250061 134.24191284 C190.26948299 134.27450994 195.31381863 134.29244832 200.35839272 134.30022621 C202.28292375 134.30576907 204.20744705 134.31659289 206.13191795 134.33278465 C208.82766804 134.35456352 211.52283453 134.35756121 214.21865845 134.35617065 C215.41196526 134.3723494 215.41196526 134.3723494 216.62937927 134.38885498 C221.20646027 134.36330927 224.11996107 133.82521762 227.77261353 131.01559448 C230.43637152 128.16156806 231.48178238 125.90950034 231.77261353 122.01559448 C230.75938658 119.41734878 229.71106184 117.14022777 228.39761353 114.70309448 C228.03401733 114.00595337 227.67042114 113.30881226 227.29580688 112.59054565 C226.13851263 110.38929148 224.95825295 108.20169332 223.77261353 106.01559448 C223.40249146 105.32369019 223.03236938 104.63178589 222.65103149 103.91891479 C209.99069723 80.1167772 209.99069723 80.1167772 187.77261353 66.01559448 C184.4196204 65.2564994 181.21272617 64.84863288 177.78042603 64.69918823 C176.83441528 64.65713257 175.88840454 64.6150769 174.91372681 64.57174683 C173.91840942 64.53259155 172.92309204 64.49343628 171.89761353 64.45309448 C170.87780396 64.41136108 169.85799438 64.36962769 168.80728149 64.32662964 C155.5957736 62.74041982 155.5957736 62.74041982 143.77261353 65.01559448 Z M-105.0899353 66.76754761 C-108.34338685 71.71145617 -108.75254691 76.74469387 -109.50082397 82.54293823 C-109.67368927 83.76461197 -109.84655457 84.98628571 -110.0246582 86.24497986 C-110.38550999 88.82494763 -110.73622099 91.40635132 -111.07748413 93.98898315 C-111.60042203 97.93825883 -112.15527975 101.88202355 -112.71566772 105.82614136 C-113.06260673 108.33564684 -113.40772025 110.84540551 -113.75082397 113.35543823 C-113.99752335 115.12285622 -113.99752335 115.12285622 -114.24920654 116.92597961 C-114.46536118 118.58283531 -114.46536118 118.58283531 -114.68588257 120.27316284 C-114.8151413 121.23959213 -114.94440002 122.20602142 -115.07757568 123.20173645 C-115.24528134 126.35170913 -115.02391338 128.9611967 -114.22738647 132.01559448 C-111.47896737 134.29231186 -111.47896737 134.29231186 -108.72738647 133.82809448 C-105.84345274 132.89081602 -105.01701079 132.44851619 -103.22738647 130.01559448 C-102.55240073 127.23488398 -102.02625862 124.58338091 -101.60238647 121.76559448 C-101.4812146 121.02696167 -101.36004272 120.28832886 -101.23519897 119.52731323 C-100.50583098 115.03218655 -99.85969439 110.52526223 -99.22738647 106.01559448 C-98.64247437 106.00624878 -98.05756226 105.99690308 -97.45492554 105.98727417 C-94.79490068 105.93346169 -92.13661425 105.84983999 -89.47738647 105.76559448 C-88.55699585 105.75141479 -87.63660522 105.73723511 -86.68832397 105.72262573 C-81.30309272 105.56382461 -81.30309272 105.56382461 -76.57894897 103.19918823 C-74.88924375 100.92047572 -74.88924375 100.92047572 -75.35238647 97.32809448 C-75.64113647 96.23496948 -75.92988647 95.14184448 -76.22738647 94.01559448 C-78.52047611 92.86904967 -80.02648304 92.81830331 -82.57894897 92.69918823 C-83.42973022 92.6572937 -84.28051147 92.61539917 -85.15707397 92.57223511 C-86.0465271 92.5329187 -86.93598022 92.49360229 -87.85238647 92.45309448 C-89.19816772 92.38831909 -89.19816772 92.38831909 -90.57113647 92.32223511 C-92.78969886 92.21602733 -95.00852213 92.11529489 -97.22738647 92.01559448 C-96.56738647 87.39559448 -95.90738647 82.77559448 -95.22738647 78.01559448 C-92.60736694 77.99432495 -92.60736694 77.99432495 -89.93441772 77.97262573 C-87.63621427 77.92572362 -85.33803799 77.87747625 -83.03988647 77.82809448 C-81.88939819 77.8222937 -80.73890991 77.81649292 -79.55355835 77.81051636 C-72.68788689 77.8671043 -72.68788689 77.8671043 -66.95394897 74.63278198 C-65.0401633 71.73179464 -64.58444284 70.41401082 -65.22738647 67.01559448 C-68.10594998 64.13703098 -71.04372485 64.6724858 -74.90316772 64.64450073 C-75.66534103 64.63547226 -76.42751434 64.62644379 -77.21278381 64.61714172 C-78.82755599 64.60262212 -80.44238722 64.59374824 -82.05722046 64.59005737 C-84.52056095 64.5781876 -86.98137402 64.52904854 -89.44418335 64.47848511 C-91.01383259 64.46901762 -92.58349722 64.46178414 -94.15316772 64.45700073 C-94.88666946 64.43746841 -95.6201712 64.4179361 -96.37590027 64.39781189 C-99.89711527 64.42865379 -102.07774541 64.92401032 -105.0899353 66.76754761 Z M-54.61947632 66.74191284 C-56.39072389 69.2465634 -56.91776326 70.835905 -57.35238647 73.85543823 C-57.57329956 75.30575439 -57.57329956 75.30575439 -57.79867554 76.78536987 C-57.94015015 77.83071899 -58.08162476 78.87606812 -58.22738647 79.95309448 C-58.38690796 81.04033813 -58.54642944 82.12758179 -58.71078491 83.24777222 C-59.05164184 85.59340609 -59.38434282 87.94023645 -59.70980835 90.28805542 C-60.244674 94.14009728 -60.8047976 97.98791523 -61.36801147 101.83590698 C-61.73921293 104.41643375 -62.10903386 106.99715952 -62.47738647 109.57809448 C-62.65269897 110.79553345 -62.82801147 112.01297241 -63.00863647 113.26730347 C-63.83237803 119.22323726 -64.6126304 125.00150869 -64.22738647 131.01559448 C-62.7645009 133.32155495 -62.7645009 133.32155495 -60.22738647 134.01559448 C-56.00743096 133.17160338 -54.65115164 132.65124223 -52.22738647 129.01559448 C-51.54709473 126.29005892 -51.54709473 126.29005892 -51.10238647 123.26559448 C-50.85101929 121.75739136 -50.85101929 121.75739136 -50.59457397 120.21871948 C-50.09451681 116.39386906 -50.09451681 116.39386906 -50.22738647 110.01559448 C-44.94738647 110.34559448 -39.66738647 110.67559448 -34.22738647 111.01559448 C-33.76848022 112.42453979 -33.30957397 113.83348511 -32.83676147 115.28512573 C-32.21767098 117.13301704 -31.59784063 118.98066059 -30.97738647 120.82809448 C-30.67703491 121.75686401 -30.37668335 122.68563354 -30.06723022 123.64254761 C-29.76430054 124.53522339 -29.46137085 125.42789917 -29.14926147 126.34762573 C-28.74078979 127.580896 -28.74078979 127.580896 -28.32406616 128.83908081 C-27.01321095 131.44065565 -25.72412642 132.54641422 -23.22738647 134.01559448 C-20.44177138 133.87971082 -18.77635863 133.35633582 -16.41488647 131.89059448 C-14.54511351 128.93832139 -15.02254059 126.46325491 -15.22738647 123.01559448 C-15.87810488 120.29861862 -16.77450755 117.70237453 -17.72738647 115.07809448 C-17.96586304 114.39424683 -18.2043396 113.71039917 -18.45004272 113.00582886 C-19.03284529 111.33901352 -19.62875698 109.67679132 -20.22738647 108.01559448 C-19.2812146 107.40071167 -18.33504272 106.78582886 -17.36019897 106.15231323 C-11.54285247 102.18462179 -8.14717309 96.73977018 -6.22738647 90.01559448 C-5.49300194 83.27701107 -5.12513396 76.72944621 -9.22738647 71.01559448 C-12.17973095 67.35061513 -14.7265412 66.24321729 -19.22738647 65.01559448 C-21.81902684 64.80913766 -24.30148186 64.68815498 -26.89144897 64.67965698 C-27.96318863 64.66967178 -27.96318863 64.66967178 -29.05657959 64.65948486 C-30.55749963 64.6494146 -32.05846394 64.64466609 -33.55941772 64.64498901 C-35.85312947 64.64059306 -38.14494906 64.60415705 -40.43832397 64.56637573 C-41.9018591 64.56051078 -43.36540331 64.55653924 -44.82894897 64.55465698 C-45.51131622 64.54028595 -46.19368347 64.52591492 -46.89672852 64.5111084 C-50.14841628 64.54232207 -51.956533 64.82012552 -54.61947632 66.74191284 Z M5.77261353 70.01559448 C4.60379551 74.14093079 4.04725356 78.29599863 3.49917603 82.54293823 C3.32631073 83.76461197 3.15344543 84.98628571 2.9753418 86.24497986 C2.61449001 88.82494763 2.26377901 91.40635132 1.92251587 93.98898315 C1.39957797 97.93825883 0.84472025 101.88202355 0.28433228 105.82614136 C-0.06260673 108.33564684 -0.40772025 110.84540551 -0.75082397 113.35543823 C-0.99752335 115.12285622 -0.99752335 115.12285622 -1.24920654 116.92597961 C-1.46536118 118.58283531 -1.46536118 118.58283531 -1.68588257 120.27316284 C-1.8151413 121.23959213 -1.94440002 122.20602142 -2.07757568 123.20173645 C-2.24528134 126.35170913 -2.02391338 128.9611967 -1.22738647 132.01559448 C2.49537715 134.4974369 5.44909404 134.35608629 9.76480103 134.38668823 C10.54775543 134.39571671 11.33070984 134.40474518 12.13739014 134.41404724 C13.79326556 134.42854787 15.44919826 134.43743603 17.10513306 134.44113159 C19.63200018 134.45302102 22.15641863 134.50219654 24.68276978 134.55270386 C26.29343497 134.5621694 27.90411513 134.56940381 29.51480103 134.57418823 C30.26703949 134.59372055 31.01927795 134.61325287 31.79431152 134.63337708 C35.80925429 134.59904163 37.59176403 134.15751903 40.78872681 131.64865112 C43.04215365 129.20731933 43.04215365 129.20731933 42.77261353 126.32809448 C41.88348523 123.6969548 41.88348523 123.6969548 38.77261353 122.01559448 C35.76555947 121.73868393 35.76555947 121.73868393 32.35464478 121.82028198 C31.10103149 121.82672729 29.84741821 121.83317261 28.55581665 121.83981323 C27.24548462 121.85657104 25.93515259 121.87332886 24.58511353 121.89059448 C23.24983366 121.9006281 21.91454663 121.90975328 20.57925415 121.91793823 C17.31019338 121.94154156 14.04149325 121.97446854 10.77261353 122.01559448 C10.90538696 121.39813354 11.0381604 120.78067261 11.17495728 120.14450073 C12.3646218 114.43932124 13.21125612 108.81628764 13.77261353 103.01559448 C14.48393433 103.03130493 15.19525513 103.04701538 15.9281311 103.0632019 C19.14704456 103.12551363 22.36583121 103.16457316 25.58511353 103.20309448 C26.70466431 103.2282312 27.82421509 103.25336792 28.97769165 103.27926636 C30.58740845 103.29376831 30.58740845 103.29376831 32.22964478 103.30856323 C33.21940308 103.32427368 34.20916138 103.33998413 35.22891235 103.35617065 C37.79925994 103.21743979 37.79925994 103.21743979 39.59561157 101.68869019 C41.41616053 99.10079929 41.16374542 97.07946101 40.77261353 94.01559448 C37.46973016 91.81367224 36.49798626 91.7759948 32.66714478 91.82028198 C31.68423462 91.82672729 30.70132446 91.83317261 29.68862915 91.83981323 C28.66446899 91.85657104 27.64030884 91.87332886 26.58511353 91.89059448 C25.03147095 91.90412964 25.03147095 91.90412964 23.44644165 91.91793823 C20.88840047 91.94151465 18.33047799 91.97738572 15.77261353 92.01559448 C16.43261353 87.06559448 17.09261353 82.11559448 17.77261353 77.01559448 C19.73585571 76.98981323 21.6990979 76.96403198 23.72183228 76.93746948 C26.30128165 76.88119059 28.88070788 76.82384321 31.46011353 76.76559448 C32.75368774 76.75141479 34.04726196 76.73723511 35.3800354 76.72262573 C37.25078735 76.67428589 37.25078735 76.67428589 39.15933228 76.62496948 C40.30619507 76.60402222 41.45305786 76.58307495 42.63467407 76.56149292 C46.39485055 75.90734567 48.10181965 74.70150198 50.77261353 72.01559448 C51.35663485 69.4297732 51.35663485 69.4297732 50.77261353 67.01559448 C47.78363018 64.02661114 44.45156124 64.67121434 40.44058228 64.64450073 C39.61182083 64.63547226 38.78305939 64.62644379 37.92918396 64.61714172 C36.17317323 64.60261951 34.41710816 64.5937476 32.66104126 64.59005737 C29.98049918 64.57818477 27.30227708 64.52904286 24.6222229 64.47848511 C22.91585393 64.46901814 21.20947081 64.46178441 19.50308228 64.45700073 C18.30439766 64.42770226 18.30439766 64.42770226 17.08149719 64.39781189 C11.64793208 64.44161253 8.88357696 65.19572055 5.77261353 70.01559448 Z M62.30557251 66.72824097 C60.57684912 69.3076978 60.0651776 71.04202543 59.64761353 74.10934448 C59.50033813 75.12657593 59.35306274 76.14380737 59.20132446 77.19186401 C59.05984985 78.28869507 58.91837524 79.38552612 58.77261353 80.51559448 C58.5333313 82.22078247 58.5333313 82.22078247 58.28921509 83.9604187 C57.94977323 86.38514518 57.61696684 88.81080817 57.29019165 91.23727417 C56.76703585 95.05631148 56.20526674 98.86784269 55.63198853 102.67965698 C55.26184136 105.16658326 54.89204024 107.65356108 54.52261353 110.14059448 C54.34730103 111.30655151 54.17198853 112.47250854 53.99136353 113.67379761 C52.65267401 122.31969049 52.65267401 122.31969049 52.77261353 131.01559448 C55.21277557 133.7118566 56.7289897 134.01108728 60.37612915 134.38790894 C61.81031824 134.40090252 63.24472896 134.39690989 64.67886353 134.37887573 C65.44057861 134.37937424 66.2022937 134.37987274 66.98709106 134.38038635 C68.59417333 134.3780506 70.20125958 134.36835141 71.80825806 134.35177612 C74.26415823 134.32817574 76.71897242 134.33121965 79.17495728 134.33786011 C80.73876581 134.33228309 82.30256979 134.32517305 83.86636353 134.31637573 C84.9649469 134.31774284 84.9649469 134.31774284 86.08572388 134.31913757 C89.77147263 134.2680366 92.70916137 134.18961183 95.77261353 132.01559448 C97.26700465 129.69633379 97.26700465 129.69633379 97.77261353 127.01559448 C96.8592092 124.27538152 96.37332047 123.31594796 93.77261353 122.01559448 C91.66732419 121.93015553 89.55930195 121.90844724 87.45230103 121.91793823 C85.56704712 121.92277222 85.56704712 121.92277222 83.64370728 121.92770386 C82.32499634 121.93608276 81.0062854 121.94446167 79.64761353 121.95309448 C78.30777141 121.95810959 76.96792752 121.96267248 75.62808228 121.96676636 C72.34288146 121.97858363 69.05776955 121.99505831 65.77261353 122.01559448 C65.98917603 120.83803589 65.98917603 120.83803589 66.21011353 119.63668823 C67.20260099 114.01948485 68.03193283 108.72061911 67.77261353 103.01559448 C68.47869751 103.03654175 69.18478149 103.05748901 69.91226196 103.07907104 C73.11556728 103.16228746 76.31864516 103.21427233 79.52261353 103.26559448 C80.6337854 103.29911011 81.74495728 103.33262573 82.88980103 103.36715698 C84.49468384 103.38649292 84.49468384 103.38649292 86.13198853 103.40621948 C87.11651001 103.42716675 88.10103149 103.44811401 89.11538696 103.46969604 C92.51434704 102.88883738 93.70013457 101.72006226 95.77261353 99.01559448 C95.61111148 95.62405153 95.18964595 94.43262691 92.77261353 92.01559448 C90.34663401 91.73771781 90.34663401 91.73771781 87.54605103 91.82028198 C86.51480103 91.82672729 85.48355103 91.83317261 84.42105103 91.83981323 C82.80069946 91.86494995 82.80069946 91.86494995 81.14761353 91.89059448 C80.05964478 91.89961792 78.97167603 91.90864136 77.85073853 91.91793823 C75.15781201 91.94156039 72.46532097 91.97449892 69.77261353 92.01559448 C69.91698853 91.27953979 70.06136353 90.54348511 70.21011353 89.78512573 C70.39573853 88.80930542 70.58136353 87.83348511 70.77261353 86.82809448 C70.95823853 85.86516479 71.14386353 84.90223511 71.33511353 83.91012573 C71.74138965 81.22217389 71.85194924 78.72788429 71.77261353 76.01559448 C72.63016235 76.03130493 73.48771118 76.04701538 74.37124634 76.0632019 C77.56181599 76.11441872 80.75217568 76.1519876 83.94302368 76.1803894 C85.3223257 76.1954487 86.70158006 76.21590061 88.08071899 76.24191284 C90.06634756 76.27841863 92.05232971 76.29374302 94.03823853 76.30856323 C95.23223267 76.32427368 96.42622681 76.33998413 97.65640259 76.35617065 C101.0448519 75.98584107 102.38710005 75.40146358 104.77261353 73.01559448 C105.84533914 70.57019662 105.84533914 70.57019662 105.77261353 68.01559448 C104.85877615 66.21156335 104.85877615 66.21156335 102.77261353 65.01559448 C99.87825806 64.7050091 97.20350371 64.57141666 94.30776978 64.58200073 C93.47805161 64.57675888 92.64833344 64.57151703 91.79347229 64.56611633 C90.03921629 64.55969502 88.28491725 64.56103458 86.53067017 64.56954956 C83.84816652 64.5780531 81.16779697 64.54931257 78.48550415 64.51754761 C76.78042666 64.51593531 75.07534541 64.51651367 73.37026978 64.51950073 C72.56912247 64.50826675 71.76797516 64.49703278 70.94255066 64.48545837 C67.44350117 64.52917743 65.21562982 64.70804779 62.30557251 66.72824097 Z " fill="#000000" transform="translate(249.22738647460938,112.98440551757813)"/>
<path d="M0 0 C6.96613783 5.68187778 11.67242084 12.43976432 12.84765625 21.4609375 C13.84846976 34.59927662 10.2022222 45.64458063 1.66015625 55.7109375 C-7.09517862 64.97530347 -18.2642941 70.0238203 -30.96484375 70.6484375 C-40.6709791 70.44584264 -48.62708106 67.29997912 -55.9765625 60.86328125 C-62.82379759 53.56761263 -64.75305599 45.22792422 -64.625 35.43164062 C-64.08179776 22.94979792 -57.93872233 12.49540142 -48.99609375 4.0234375 C-35.39782954 -7.50051522 -15.00011875 -10.72603772 0 0 Z " fill="#000000" transform="translate(429.15234375,328.5390625)"/>
<path d="M0 0 C7.37928437 7.85030252 9.93399381 16.48050311 9.8359375 27.140625 C9.0315544 38.38487392 3.25914541 49.68190655 -5.1640625 57.140625 C-16.36951298 65.46083973 -26.60773759 68.95469996 -40.71484375 67.9609375 C-48.97105501 66.52379948 -56.7842198 61.71979946 -61.91796875 55.1171875 C-67.86699204 45.68080573 -69.07458659 36.07880207 -67.01953125 25.265625 C-63.4071974 12.06988492 -55.74641807 3.01498331 -44.1640625 -3.859375 C-29.55845841 -11.0642259 -12.78924281 -10.98859129 0 0 Z " fill="#000000" transform="translate(216.1640625,330.859375)"/>
<path d="M0 0 C3.85220735 2.64082139 6.37450751 5.81102252 7.86328125 10.27734375 C8.64701613 16.79133692 7.65180477 21.87564248 3.86328125 27.27734375 C-1.2308831 32.12301228 -5.5439121 32.64561007 -12.34765625 32.546875 C-17.37446966 32.06109051 -20.31827685 30.28549588 -23.671875 26.58203125 C-27.44976797 21.38348215 -28.08841178 16.56909211 -27.13671875 10.27734375 C-25.10943253 4.3081121 -21.18872385 0.92073111 -15.69921875 -2.03515625 C-9.74952508 -3.63141553 -5.3004219 -2.89207486 0 0 Z " fill="#000000" transform="translate(32.13671875,184.72265625)"/>
<path d="M0 0 C3.41659491 -0.05816623 6.83306205 -0.09365195 10.25 -0.125 C11.21808594 -0.14175781 12.18617188 -0.15851563 13.18359375 -0.17578125 C14.11816406 -0.18222656 15.05273438 -0.18867188 16.015625 -0.1953125 C16.87446289 -0.20578613 17.73330078 -0.21625977 18.61816406 -0.22705078 C21.21590307 0.02058117 22.79613777 0.62422249 25 2 C27.50940589 5.67476467 27.08641045 8.58403929 26.4609375 12.81640625 C25.81418368 15.88026547 25.12828718 17.66574954 23 20 C16.95523537 22.77804798 12.09634635 23.39699308 5.5 23.1875 C4.67757812 23.17396484 3.85515625 23.16042969 3.0078125 23.14648438 C1.00491779 23.11155016 -0.99763356 23.05776057 -3 23 C-2.6902353 20.1038504 -2.37728812 17.20810424 -2.0625 14.3125 C-1.97548828 13.49587891 -1.88847656 12.67925781 -1.79882812 11.83789062 C-1.71181641 11.04189453 -1.62480469 10.24589844 -1.53515625 9.42578125 C-1.456604 8.69786377 -1.37805176 7.96994629 -1.29711914 7.2199707 C-0.97142724 4.78651432 -0.50408994 2.40227476 0 0 Z " fill="#000000" transform="translate(204,189)"/>
</svg>
