<?xml version="1.0" standalone="no"?>
<!DOCTYPE svg PUBLIC "-//W3C//DTD SVG 20010904//EN"
 "http://www.w3.org/TR/2001/REC-SVG-20010904/DTD/svg10.dtd">
<svg version="1.0" xmlns="http://www.w3.org/2000/svg"
 width="512.000000pt" height="512.000000pt" viewBox="0 0 512.000000 512.000000"
 preserveAspectRatio="xMidYMid meet">

<g transform="translate(0.000000,512.000000) scale(0.100000,-0.100000)"
fill="#000000" stroke="none">
<path d="M2365 5099 c-435 -34 -853 -178 -1215 -420 -300 -202 -527 -430 -723
-729 -377 -575 -506 -1301 -350 -1965 110 -467 371 -920 729 -1264 616 -592
1444 -827 2300 -651 1067 220 1823 1072 1965 2215 19 147 16 494 -5 640 -23
166 -43 261 -81 396 -191 664 -642 1201 -1270 1509 -444 218 -879 305 -1350
269z m-437 -443 c45 -23 77 -66 126 -163 l46 -93 -60 0 c-78 0 -185 -22 -288
-60 -46 -17 -91 -30 -100 -30 -10 0 -33 16 -52 35 -38 40 -74 45 -137 20 -21
-8 -64 -21 -97 -31 -80 -22 -92 -37 -94 -113 -2 -84 8 -101 60 -101 33 0 46
-6 72 -34 17 -19 37 -36 44 -38 7 -2 26 25 45 62 48 96 69 104 273 105 l161 1
75 37 c42 20 86 37 98 37 33 0 80 -56 130 -151 53 -104 66 -119 102 -119 15 0
28 -3 28 -7 0 -15 -155 -163 -170 -163 -9 0 -69 18 -134 40 -65 22 -123 37
-127 34 -5 -3 -9 -36 -9 -74 0 -96 -5 -100 -138 -100 -130 0 -169 -16 -242
-98 -67 -74 -94 -132 -128 -273 -16 -64 -39 -137 -52 -163 -24 -50 -103 -143
-152 -177 l-29 -21 -57 30 c-31 17 -84 38 -117 48 -79 23 -215 23 -270 0 -47
-20 -95 -63 -95 -85 1 -23 73 -154 87 -159 7 -2 30 15 52 37 40 41 61 47 109
35 18 -5 22 -13 22 -47 0 -35 6 -48 42 -84 34 -35 43 -52 48 -90 l5 -48 81 -3
c81 -3 81 -3 134 37 40 30 68 42 117 51 104 18 117 11 163 -81 40 -80 57 -92
81 -63 7 8 31 25 53 37 63 32 152 28 246 -12 119 -49 132 -60 172 -144 40 -83
66 -107 116 -107 27 0 43 -9 73 -39 21 -22 72 -59 114 -82 42 -23 90 -53 107
-67 38 -33 88 -135 88 -182 0 -38 -38 -168 -63 -215 -24 -46 -77 -92 -138
-119 -62 -27 -70 -42 -62 -105 11 -83 -32 -140 -130 -171 -52 -16 -61 -38 -53
-131 5 -47 3 -93 -4 -118 -14 -54 -67 -105 -128 -125 -40 -14 -52 -23 -62 -49
-7 -18 -24 -59 -38 -92 -38 -89 -37 -171 5 -255 18 -36 53 -88 78 -117 25 -28
45 -54 45 -57 0 -10 -123 -7 -162 4 -71 20 -91 48 -143 197 -26 76 -69 188
-95 248 -44 100 -49 118 -52 203 l-4 93 -82 162 c-84 168 -108 242 -99 310 8
62 3 67 -72 67 -119 0 -184 46 -302 213 -26 38 -55 90 -64 117 -16 48 -16 50
16 152 40 129 61 172 110 220 30 30 39 47 39 72 0 45 -20 60 -73 53 -65 -9
-113 6 -162 52 -43 40 -47 41 -114 41 -84 0 -118 13 -201 80 -92 74 -119 85
-242 105 -21 3 -51 18 -69 32 -30 25 -31 28 -24 81 11 85 60 275 104 403 166
479 500 911 923 1193 47 31 91 56 98 56 7 0 37 -22 66 -50 29 -27 60 -50 69
-50 31 0 177 83 224 127 l45 43 84 0 c52 0 93 -5 110 -14z m2287 -377 l40 -42
-71 37 c-80 42 -139 97 -150 141 -7 28 -4 26 67 -32 41 -34 92 -81 114 -104z
m211 -233 c36 -43 89 -115 118 -160 56 -83 176 -294 176 -308 0 -5 -9 -8 -19
-8 -22 0 -31 19 -31 62 0 24 -16 46 -82 114 -45 46 -90 84 -99 84 -15 0 -79
-62 -79 -77 0 -3 37 -43 81 -89 95 -97 95 -97 -14 -150 -77 -36 -91 -35 -130
12 -32 38 -47 75 -47 118 0 29 -56 153 -81 180 -5 5 -27 -8 -53 -32 -24 -23
-81 -59 -125 -82 -45 -22 -98 -55 -119 -73 -71 -64 -80 -67 -173 -67 l-87 0
-26 46 c-65 116 -65 161 -4 264 31 52 36 55 76 58 76 6 153 -16 189 -54 38
-41 43 -33 43 69 0 79 20 125 62 148 12 6 66 15 121 19 97 6 99 7 135 44 l37
37 34 -38 c18 -21 62 -73 97 -117z m-260 -796 c35 -37 196 -130 225 -130 6 0
33 19 58 43 25 24 85 63 132 87 l87 44 95 -45 96 -44 20 -80 c156 -626 34
-1336 -322 -1872 -84 -126 -147 -206 -156 -198 -3 3 -6 34 -6 68 0 58 -6 73
-87 234 -49 94 -88 177 -88 184 0 7 36 50 80 95 54 55 80 89 80 105 0 13 -16
56 -35 94 -33 63 -36 79 -39 164 -3 105 -3 105 -91 147 -123 58 -246 58 -369
-1 -67 -33 -92 -39 -161 -43 -185 -10 -299 68 -355 243 -19 57 -24 100 -28
236 l-4 166 46 52 46 52 0 122 c0 106 3 127 21 156 37 61 54 68 159 73 88 3
102 7 180 45 l85 41 147 1 146 1 38 -40z"/>
</g>
</svg>
