<?xml version="1.0" encoding="UTF-8"?>
<svg version="1.1" xmlns="http://www.w3.org/2000/svg" width="512" height="512">
<path d="M0 0 C4.06077102 3.60288769 8.04659198 7.27981461 12 11 C12.65871094 11.61617187 13.31742187 12.23234375 13.99609375 12.8671875 C43.22962343 41.0880083 62.62593019 82.27586237 69 122 C69.24885956 123.41461266 69.24885956 123.41461266 69.50274658 124.85780334 C71.65097757 138.9955008 71.32948664 153.27089004 71.33451414 167.53446841 C71.33594938 169.82756983 71.34024428 172.12064832 71.34550858 174.41374397 C71.36392328 182.44747527 71.37218935 190.48114087 71.37060547 198.51489258 C71.36940397 205.95061671 71.39053016 213.38605069 71.4220928 220.82170147 C71.44840211 227.25367265 71.45896679 233.68554982 71.45769465 240.11757427 C71.45718963 243.93815679 71.46261471 247.75848024 71.48405075 251.5790081 C71.68006648 289.09027926 71.68006648 289.09027926 63.125 304.5 C62.77477783 305.16032227 62.42455566 305.82064453 62.0637207 306.50097656 C61.06836632 308.35010965 60.04374232 310.17784648 59 312 C58.51660156 312.85078125 58.03320312 313.7015625 57.53515625 314.578125 C54.13298292 320.06104782 49.85736129 324.79558136 45.37890625 329.41796875 C42.82174943 332.0638573 40.48341337 334.82936831 38.15234375 337.67578125 C29.02125868 348.33010587 20.52796212 353.98614748 7.1875 357.6875 C6.53849731 357.87017426 5.88949463 358.05284851 5.2208252 358.24105835 C-9.49238147 362.24400496 -23.02473883 362.67417893 -36.7578125 355.57421875 C-49.60097313 348.15585582 -58.11176894 337.91959358 -62.34375 323.65625 C-63.38366961 319.44705157 -64.12454296 315.53543623 -64.14044189 311.18955994 C-64.14615204 310.24922913 -64.15186218 309.30889832 -64.15774536 308.34007263 C-64.15886322 307.3202681 -64.15998108 306.30046356 -64.16113281 305.24975586 C-64.16609772 304.16614777 -64.17106262 303.08253967 -64.17617798 301.96609497 C-64.19077757 298.38233808 -64.1975991 294.7986255 -64.203125 291.21484375 C-64.20887966 288.71724955 -64.21463736 286.21965535 -64.22039795 283.72206116 C-64.22956088 279.1516896 -64.23586275 274.58133068 -64.2388947 270.01095098 C-64.24292078 263.97703897 -64.25515477 257.94328308 -64.28125 251.90942383 C-64.3088792 245.41972404 -64.32164857 238.93015803 -64.32357025 232.44040108 C-64.32658484 229.97461393 -64.33457274 227.5088274 -64.34775543 225.04307365 C-64.36494089 221.58056291 -64.36290474 218.11854274 -64.35644531 214.65600586 C-64.3656601 213.65037094 -64.37487488 212.64473602 -64.3843689 211.60862732 C-64.29549413 196.2874539 -59.14000969 182.36314972 -48.4765625 171.25390625 C-38.09475582 161.80547966 -25.07433048 156.64089623 -11 157 C-5.96445933 157.72064415 -1.09698366 159.0953412 3.77246094 160.5378418 C5.98699106 161.18370596 8.21235049 161.76339974 10.4453125 162.34179688 C21.3493278 165.38335244 27.77058424 170.36805668 35 179 C35.84411349 124.68670801 25.18626512 79.22884226 -12 38 C-13.01320313 36.87658203 -13.01320313 36.87658203 -14.046875 35.73046875 C-20.05794459 29.42398335 -27.02040414 24.17864696 -34 19 C-34.57073242 18.57428711 -35.14146484 18.14857422 -35.72949219 17.70996094 C-70.96425521 -8.17473861 -116.42299773 -17.78353805 -159.44555664 -12.02612305 C-194.98324236 -6.27920444 -225.55463276 10.14765821 -252 34 C-252.74894531 34.67546875 -253.49789062 35.3509375 -254.26953125 36.046875 C-260.57601665 42.05794459 -265.82135304 49.02040414 -271 56 C-271.42571289 56.57073242 -271.85142578 57.14146484 -272.29003906 57.72949219 C-291.62947296 84.05471065 -303.31935671 118.20359746 -303.09765625 150.97265625 C-303.09553383 152.18543495 -303.09553383 152.18543495 -303.09336853 153.42271423 C-303.08783414 155.96934942 -303.0752946 158.51589203 -303.0625 161.0625 C-303.0574765 162.80403518 -303.05291509 164.54557175 -303.04882812 166.28710938 C-303.03788634 170.52477448 -303.02066826 174.76237163 -303 179 C-302.33097656 178.20118408 -301.66195312 177.40236816 -300.97265625 176.5793457 C-293.64645542 168.30425083 -286.86401176 164.52246611 -276.22753906 161.76733398 C-273.98771902 161.18430323 -271.77370611 160.53821066 -269.5546875 159.88085938 C-255.48802625 155.87574051 -243.33580557 156.73406112 -230.1171875 163.46875 C-218.21895939 170.4950017 -208.99332735 181.62214888 -205.43444538 195.14971352 C-204.06190407 201.59507002 -203.70907624 207.74033761 -203.7253418 214.31787109 C-203.72023087 215.40220932 -203.71511993 216.48654755 -203.70985413 217.60374451 C-203.6960431 221.16036621 -203.6969085 224.71679229 -203.69921875 228.2734375 C-203.69532722 230.76388622 -203.69099161 233.25433428 -203.68623352 235.74478149 C-203.67878958 240.95455073 -203.6790494 246.16425218 -203.68432617 251.37402344 C-203.69011885 258.02696478 -203.67318563 264.67952318 -203.6499815 271.3324337 C-203.63519995 276.47306929 -203.63437848 281.61363846 -203.63749123 286.75429153 C-203.63698026 289.20611752 -203.63178499 291.65794744 -203.62167931 294.10975266 C-203.60924622 297.5477956 -203.61614793 300.98530448 -203.62768555 304.42333984 C-203.62004181 305.42111954 -203.61239807 306.41889923 -203.60452271 307.44691467 C-203.71384462 322.2975085 -208.66439944 336.17594951 -219 347 C-231.25320223 357.72397162 -243.98882155 361.8143322 -260 361 C-286.25647051 357.99976774 -301.82327679 344.95823584 -318 325 C-322.69375647 319.02060018 -326.94820302 312.98168718 -330.25 306.125 C-330.58008057 305.45227051 -330.91016113 304.77954102 -331.25024414 304.08642578 C-335.93754751 294.26243093 -339.1080766 284.01570833 -339.14044189 273.0736084 C-339.14615204 271.91075821 -339.15186218 270.74790802 -339.15774536 269.54981995 C-339.15886322 268.28750046 -339.15998108 267.02518097 -339.16113281 265.72460938 C-339.16576692 264.3702735 -339.17079237 263.01593893 -339.17617798 261.66160583 C-339.18926158 257.98911395 -339.195741 254.31664033 -339.20018864 250.6441288 C-339.20313065 248.33932379 -339.2072379 246.03452362 -339.21169281 243.72972107 C-339.22536758 236.48952462 -339.23502991 229.24933942 -339.2388947 222.00913095 C-339.24335198 213.7080246 -339.26079051 205.40708482 -339.2898953 197.10602903 C-339.31170318 190.65720662 -339.32160931 184.20843035 -339.32293582 177.75957155 C-339.32397189 173.92474729 -339.32961593 170.09007954 -339.34775543 166.2552948 C-339.44095785 145.36445204 -338.93576507 124.71426292 -333.3125 104.4375 C-333.0561377 103.49390625 -332.79977539 102.5503125 -332.53564453 101.578125 C-322.59826821 66.15590079 -304.04032407 36.61013032 -279 10 C-278.38382813 9.34128906 -277.76765625 8.68257812 -277.1328125 8.00390625 C-263.24156478 -6.38583122 -245.681907 -17.84329816 -228 -27 C-227.35160156 -27.3398291 -226.70320313 -27.6796582 -226.03515625 -28.02978516 C-205.92353068 -38.43904482 -184.29222463 -44.42984983 -162 -48 C-160.96613159 -48.16689331 -160.96613159 -48.16689331 -159.91137695 -48.3371582 C-102.97136218 -56.03735426 -43.12299693 -37.66920614 0 0 Z " fill="#FFFFFF" transform="translate(390,100)"/>
</svg>
