<?xml version="1.0" encoding="UTF-8"?>
<!DOCTYPE svg PUBLIC "-//W3C//DTD SVG 1.1//EN" "http://www.w3.org/Graphics/SVG/1.1/DTD/svg11.dtd">
<svg xmlns="http://www.w3.org/2000/svg" version="1.1" width="512px" height="512px" style="shape-rendering:geometricPrecision; text-rendering:geometricPrecision; image-rendering:optimizeQuality; fill-rule:evenodd; clip-rule:evenodd" xmlns:xlink="http://www.w3.org/1999/xlink">
<g><path style="opacity:0.992" fill="#000000" d="M 233.5,-0.5 C 248.167,-0.5 262.833,-0.5 277.5,-0.5C 368.421,10.2899 436.587,55.2899 482,134.5C 498.04,165.776 507.874,198.776 511.5,233.5C 511.5,248.167 511.5,262.833 511.5,277.5C 499.016,377.807 447.016,449.307 355.5,492C 330.316,502.296 304.316,508.796 277.5,511.5C 262.833,511.5 248.167,511.5 233.5,511.5C 133.193,499.016 61.693,447.016 19,355.5C 8.70393,330.316 2.20393,304.316 -0.5,277.5C -0.5,262.833 -0.5,248.167 -0.5,233.5C 11.9842,133.193 63.9842,61.693 155.5,19C 180.684,8.70393 206.684,2.20393 233.5,-0.5 Z M 160.5,122.5 C 163.649,122.211 166.649,122.711 169.5,124C 186.333,140.833 203.167,157.667 220,174.5C 220.931,176.459 221.764,178.459 222.5,180.5C 221.764,182.541 220.931,184.541 220,186.5C 210,196.5 200,206.5 190,216.5C 184.333,224.436 183,233.103 186,242.5C 208.5,274.333 235.667,301.5 267.5,324C 276.686,328.915 285.686,328.582 294.5,323C 304.833,312.667 315.167,302.333 325.5,292C 329.5,290 333.5,290 337.5,292C 355.029,309.195 372.196,326.695 389,344.5C 389.667,347.167 389.667,349.833 389,352.5C 379.221,365.62 367.054,375.786 352.5,383C 340.988,388.046 328.988,389.713 316.5,388C 285.495,380.661 257.161,367.661 231.5,349C 191.507,320.147 160.007,283.98 137,240.5C 130.589,227.346 125.589,213.68 122,199.5C 119.171,180.329 123.505,162.996 135,147.5C 142.732,138.267 151.232,129.934 160.5,122.5 Z"/></g>
</svg>
