<?xml version="1.0" standalone="no"?>
<!DOCTYPE svg PUBLIC "-//W3C//DTD SVG 20010904//EN"
 "http://www.w3.org/TR/2001/REC-SVG-20010904/DTD/svg10.dtd">
<svg version="1.0" xmlns="http://www.w3.org/2000/svg"
 width="512.000000pt" height="512.000000pt" viewBox="0 0 512.000000 512.000000"
 preserveAspectRatio="xMidYMid meet">

<g transform="translate(0.000000,512.000000) scale(0.100000,-0.100000)"
fill="#000000" stroke="none">
<path d="M1940 5105 c-146 -33 -298 -140 -382 -269 -21 -33 -50 -96 -65 -140
-25 -76 -27 -95 -31 -318 l-4 -238 -529 0 c-510 0 -532 -1 -592 -21 -145 -49
-253 -155 -309 -305 -22 -58 -23 -70 -26 -571 l-3 -513 218 0 c255 0 319 -11
441 -71 177 -87 315 -266 352 -457 17 -86 8 -250 -19 -332 -51 -159 -178 -308
-323 -379 -134 -66 -174 -73 -435 -78 l-233 -5 0 -484 c0 -314 4 -502 11 -536
38 -183 194 -339 377 -377 34 -7 223 -11 536 -11 l484 0 5 233 c3 127 11 255
17 282 6 28 32 92 56 142 74 155 219 281 384 335 81 26 246 35 333 18 190 -37
369 -175 456 -352 60 -122 71 -186 71 -440 l0 -218 484 0 c287 0 505 4 537 10
167 32 319 168 370 331 18 56 19 99 19 589 l0 528 238 4 c210 4 245 7 307 27
102 33 192 90 267 170 261 276 209 713 -111 923 -125 82 -167 91 -451 97
l-245 6 -5 545 c-5 530 -6 546 -27 598 -28 68 -73 139 -115 179 -39 38 -138
98 -188 115 -25 9 -194 14 -580 18 l-545 5 -5 245 c-5 234 -7 248 -32 319 -65
178 -203 317 -378 377 -93 33 -234 41 -330 19z"/>
</g>
</svg>
