<?xml version="1.0" encoding="UTF-8"?>
<svg version="1.1" xmlns="http://www.w3.org/2000/svg" width="512" height="512">
<path d="M0 0 C1.87945312 -0.04640625 1.87945312 -0.04640625 3.796875 -0.09375 C16.24121885 0.93258764 28.51884404 8.98174207 39.43240356 14.5355835 C44.34256795 17.03221023 49.2646209 19.50512283 54.1875 21.9765625 C55.15482559 22.46230743 56.12215118 22.94805237 57.11878967 23.44851685 C67.86689072 28.83191855 78.7381488 33.91096402 89.68505859 38.87792969 C93.68825622 40.69940928 97.68228463 42.54019457 101.67578125 44.3828125 C123.0756579 54.24574965 144.51086951 64.10579529 166.43359375 72.76171875 C167.11178665 73.02995453 167.78997955 73.29819031 168.48872375 73.57455444 C171.7309174 74.85422381 174.97701113 76.12037767 178.23168945 77.36816406 C196.91077771 84.65139543 196.91077771 84.65139543 202.1875 91.875 C202.71214844 92.56335938 203.23679687 93.25171875 203.77734375 93.9609375 C207.34266291 100.1080395 208.69682688 105.62995113 208.64440918 112.68812561 C208.65050028 113.47250313 208.65659139 114.25688064 208.66286707 115.06502718 C208.67940979 117.67248966 208.67473378 120.27945911 208.66992188 122.88696289 C208.67726757 124.76526391 208.68585525 126.64356042 208.69558716 128.52185059 C208.71776643 133.61110481 208.72073539 138.70019693 208.71883965 143.78949285 C208.71871971 148.0483475 208.72729399 152.30716812 208.73561716 156.56601328 C208.75484077 166.62337777 208.75773987 176.68065928 208.75097656 186.73803711 C208.7443463 197.08427902 208.76716176 207.43016347 208.80429029 217.77633291 C208.83507697 226.68113435 208.84633733 235.58582138 208.84245348 244.49067491 C208.84039413 249.79914552 208.84573791 255.1073383 208.87034607 260.41575813 C208.8927573 265.41544742 208.8906168 270.41456032 208.87041855 275.41425323 C208.86703306 277.23821659 208.87198997 279.06221982 208.88640213 280.88612938 C208.99787155 296.05273168 206.07862679 308.29270164 198.75 321.75 C198.32912109 322.5352002 197.90824219 323.32040039 197.47460938 324.12939453 C184.90720268 347.00443906 167.8089284 367.32380188 150.25 386.5 C149.78980469 387.0053125 149.32960938 387.510625 148.85546875 388.03125 C140.4069125 397.30459934 131.9073815 406.51175792 122.35546875 414.671875 C119.89272972 416.8102087 117.51512657 419.03084599 115.125 421.25 C109.35667114 426.50259107 103.31529137 431.32696392 97.12109375 436.06591797 C95.2298662 437.51543136 93.34944673 438.97826668 91.46875 440.44140625 C71.58114814 455.77832765 50.2156004 468.88109971 26.30371094 476.81591797 C24.60206007 477.38273035 22.91246518 477.98559081 21.2265625 478.59765625 C6.28549746 483.30781605 -12.2241969 481.90950928 -26.75 476.5 C-27.87752686 476.0973291 -27.87752686 476.0973291 -29.02783203 475.68652344 C-64.78168845 462.79028523 -94.96238356 438.87878281 -122.75 413.5 C-123.70648438 412.63632812 -124.66296875 411.77265625 -125.6484375 410.8828125 C-134.50493778 402.86358641 -143.19771099 394.67507309 -150.95703125 385.5703125 C-153.08146824 383.1172589 -155.29188637 380.75296853 -157.5 378.375 C-163.28141231 372.02506757 -168.55708332 365.33546275 -173.75 358.5 C-174.21051758 357.89639648 -174.67103516 357.29279297 -175.14550781 356.67089844 C-184.02226017 344.98244877 -191.95876427 332.78326568 -199.0625 319.9375 C-199.65675781 318.86371094 -200.25101563 317.78992188 -200.86328125 316.68359375 C-207.02794877 303.69418077 -208.48059768 292.42318512 -208.38110352 278.23901367 C-208.38625401 276.35156586 -208.39354375 274.46412288 -208.40278625 272.57669067 C-208.42115815 267.4963065 -208.4084548 262.41645321 -208.38869596 257.33609176 C-208.37220193 251.99833259 -208.38113665 246.66060421 -208.38621521 241.3228302 C-208.39072225 232.36821088 -208.3749479 223.41380141 -208.34692383 214.45922852 C-208.31482933 204.12469637 -208.31491124 193.79054148 -208.3321386 183.45598239 C-208.34802728 173.48254771 -208.3412582 163.5092506 -208.32420158 153.53582191 C-208.3173514 149.30438866 -208.31834244 145.07306636 -208.32574654 140.84163475 C-208.33343443 135.85830807 -208.32120168 130.87540864 -208.29389763 125.89215469 C-208.28704081 124.06932785 -208.28688664 122.2464609 -208.29411316 120.42363548 C-208.33513305 108.72476557 -208.00899365 98.0368871 -199.53149414 89.06323242 C-191.91770945 82.38225895 -182.13574979 79.02126339 -172.84313965 75.38134766 C-168.69752475 73.75482437 -164.56529365 72.09508835 -160.43359375 70.43359375 C-159.60429352 70.10028046 -158.77499329 69.76696716 -157.92056274 69.42355347 C-146.9391668 64.9886677 -136.17147292 60.10113887 -125.40478516 55.16992188 C-121.57231875 53.41564483 -117.72985837 51.68386432 -113.88671875 49.953125 C-90.0157102 39.19113165 -66.18835 28.28591359 -42.7890625 16.52734375 C-41.97035172 16.11600693 -41.15164093 15.7046701 -40.30812073 15.28086853 C-36.36957088 13.29869659 -32.43651451 11.30644041 -28.51049805 9.29956055 C-10.40575832 0.08494497 -10.40575832 0.08494497 0 0 Z M-6.9609375 71.54296875 C-8.26646186 72.20446083 -9.57204729 72.86583237 -10.87768555 73.52709961 C-11.56873383 73.87884247 -12.2597821 74.23058533 -12.97177124 74.59298706 C-27.48450387 81.96998942 -42.12945712 88.98246287 -56.93652344 95.75146484 C-60.33680722 97.30777333 -63.73001736 98.87903061 -67.1219635 100.45341492 C-92.48279712 112.22462261 -118.05032618 123.48983684 -143.75 134.5 C-143.93750241 153.78106046 -144.07825728 173.06193401 -144.16449738 192.34371948 C-144.20561801 201.29814264 -144.26160427 210.25199689 -144.35351562 219.20605469 C-144.43365707 227.01725425 -144.48496044 234.8280415 -144.50270796 242.63964081 C-144.5130705 246.76992391 -144.5371409 250.89902826 -144.59584045 255.02893066 C-145.36072515 279.03440246 -145.36072515 279.03440246 -135.75 300.5 C-134.88693806 301.77536692 -134.02860644 303.05394588 -133.17468262 304.33544922 C-126.3456169 314.51887699 -118.34783508 323.88052906 -110.0859375 332.91796875 C-108.82630777 334.31030194 -107.57256949 335.70863392 -106.35620117 337.13891602 C-101.19367141 343.18559685 -95.60887753 348.79303706 -89.98022461 354.40014648 C-88.31573723 356.0592732 -86.65666553 357.72368051 -84.99804688 359.38867188 C-79.42137531 364.96909467 -73.77933316 370.40546062 -67.75 375.5 C-66.77417969 376.35722656 -65.79835938 377.21445312 -64.79296875 378.09765625 C-34.50664308 404.88842929 -34.50664308 404.88842929 2.91015625 415.8359375 C28.47911278 413.26408924 53.61789889 388.29193422 71.73828125 371.765625 C73.10482859 370.53296954 74.47763739 369.30659174 75.88012695 368.11499023 C81.92969618 362.94953436 87.54014793 357.36177776 93.15014648 351.73022461 C94.8092732 350.06573723 96.47368051 348.40666553 98.13867188 346.74804688 C103.71788139 341.17300526 109.18349444 335.55154598 114.25 329.5 C114.77360107 328.88310303 115.29720215 328.26620605 115.83666992 327.63061523 C123.6165801 318.40444736 131.18164482 308.96251725 137.25 298.5 C137.82388993 297.53588636 138.39777987 296.57177273 138.9890604 295.57844353 C143.92241429 286.64009028 145.24118408 279.43924855 145.04467773 269.14111328 C145.04269722 267.6612355 145.04382323 266.18135088 145.04777527 264.70147705 C145.04976247 260.73073649 145.00896106 256.76151271 144.95975757 252.79112101 C144.91563725 248.62457121 144.9118583 244.45797662 144.90357971 240.29122925 C144.88192778 232.42193654 144.82462909 224.55333443 144.75413328 216.68434417 C144.67556183 207.7169363 144.63732139 198.74949333 144.60226524 189.78182626 C144.52933531 171.35416109 144.4064182 152.9271363 144.25 134.5 C143.33655256 134.1007324 142.42310513 133.70146481 141.48197746 133.29009819 C138.04277526 131.78672586 134.60375171 130.28294521 131.16477776 128.77905083 C129.68574763 128.13232294 128.20667122 127.48570092 126.72754478 126.83919334 C115.25167524 121.8231111 103.79322588 116.7712214 92.375 111.625 C91.14401077 111.07087433 91.14401077 111.07087433 89.88815308 110.5055542 C72.57862536 102.70758419 55.38740815 94.66839532 38.25 86.5 C37.6347345 86.20697998 37.01946899 85.91395996 36.38555908 85.61206055 C25.42604271 80.39195544 14.47893388 75.16839486 3.67919922 69.62353516 C-0.72603946 67.58605692 -2.7859967 69.41345111 -6.9609375 71.54296875 Z " fill="#FFFFFF" transform="translate(255.75,15.5)"/>
<path d="M0 0 C0.97348389 0.48581543 1.94696777 0.97163086 2.94995117 1.47216797 C4.62758545 2.2985376 4.62758545 2.2985376 6.33911133 3.14160156 C6.93218079 3.43766296 7.52525024 3.73372437 8.1362915 4.03875732 C11.37456895 5.65315877 14.6271316 7.23824093 17.87963867 8.82373047 C18.56026367 9.15589569 19.24088867 9.48806091 19.94213867 9.83029175 C27.33615623 13.42497958 34.81268365 16.83144389 42.30541992 20.21435547 C43.31752029 20.67177124 43.31752029 20.67177124 44.35006714 21.13842773 C47.12363585 22.39184884 49.89740833 23.64481528 52.67176819 24.89648438 C61.14687772 28.72200443 69.60062063 32.59421194 78.05541992 36.46435547 C80.22880947 37.45891503 82.40224569 38.4533724 84.57574463 39.44769287 C86.46474145 40.31191274 88.35359263 41.17645092 90.24243164 42.04101562 C93.46836992 43.51588866 96.69726158 44.98421656 99.92654419 46.45175171 C100.9119475 46.899587 101.89735081 47.34742229 102.91261482 47.80882835 C103.66099051 48.1489023 104.40936619 48.48897625 105.18041992 48.83935547 C105.36781298 65.19069567 105.50862317 81.54168431 105.5949173 97.89384079 C105.63606141 105.4875364 105.692092 113.08056247 105.78393555 120.67382812 C105.86400593 127.29692634 105.91536342 133.9195394 105.93312788 140.54310822 C105.94350277 144.04625454 105.96764952 147.54801371 106.02626038 151.05071259 C106.091363 154.97367635 106.09231807 158.89531865 106.08862305 162.81884766 C106.11738525 163.96324814 106.14614746 165.10764862 106.17578125 166.28672791 C106.08352601 175.38945621 102.74857024 180.80854162 97.18041992 187.83935547 C96.40799202 188.82570354 95.63556412 189.81205162 94.83972931 190.82828903 C90.60407443 196.15326885 86.10625616 201.23657292 81.51635742 206.25732422 C80.24008137 207.66805745 78.97023696 209.08515424 77.73388672 210.53100586 C72.96981315 216.09062522 67.87836559 221.29459185 62.69238281 226.45776367 C61.24517607 227.89960768 59.80339966 229.34672662 58.36206055 230.79443359 C53.13771972 236.022804 47.80448 241.04410424 42.18041992 245.83935547 C41.10833028 246.78787141 40.03794333 247.73831627 38.96948242 248.69091797 C25.94400492 260.16846981 11.10423518 272.99292475 -5.31958008 279.15185547 C-32.47717504 276.7270702 -64.20253274 238.4866864 -82.56958008 220.27685547 C-83.44493408 219.41455322 -84.32028809 218.55225098 -85.22216797 217.66381836 C-91.19114123 211.70274728 -96.55457032 205.42388868 -101.81958008 198.83935547 C-102.75338928 197.72985998 -103.69228254 196.62458726 -104.63989258 195.52685547 C-105.40043945 194.63998047 -106.16098633 193.75310547 -106.94458008 192.83935547 C-108.09313477 191.50904297 -108.09313477 191.50904297 -109.26489258 190.15185547 C-110.12819315 189.05684184 -110.97817722 187.9512835 -111.81958008 186.83935547 C-112.39800187 186.08828364 -112.97642366 185.33721182 -113.57237339 184.56338024 C-118.75240109 177.24362259 -119.80830937 171.78408241 -119.61425781 162.93237305 C-119.61528 161.69206329 -119.61630219 160.45175354 -119.61735535 159.17385864 C-119.61334413 155.80770213 -119.57851211 152.44463745 -119.52933764 149.07902741 C-119.48525632 145.54909215 -119.48144146 142.01910543 -119.47315979 138.48893738 C-119.45149635 131.82008701 -119.39418263 125.15205027 -119.32371336 118.48355645 C-119.24517746 110.88501245 -119.20691047 103.28642737 -119.17184532 95.68757784 C-119.0988894 80.07103428 -118.97595056 64.45530024 -118.81958008 48.83935547 C-114.69495533 46.93229278 -110.56981144 45.02635556 -106.44458008 43.12060547 C-105.28829102 42.5859668 -104.13200195 42.05132812 -102.94067383 41.50048828 C-96.24971502 38.41017256 -89.54737299 35.3486182 -82.81958008 32.33935547 C-64.6000492 24.16875681 -46.51174719 15.71532616 -28.44458008 7.21435547 C-27.69271423 6.86065887 -26.94084839 6.50696228 -26.16619873 6.14254761 C-24.02168491 5.13332485 -21.8775681 4.1232648 -19.73364258 3.11279297 C-19.09311951 2.81122787 -18.45259644 2.50966278 -17.79266357 2.19895935 C-14.20837076 0.51622646 -14.20837076 0.51622646 -10.76245117 -1.42773438 C-6.97388189 -2.85689811 -3.59912981 -1.48153633 0 0 Z M52.75854492 74.51513672 C52.07010498 75.09013916 51.38166504 75.6651416 50.67236328 76.25756836 C49.56260132 77.19524048 49.56260132 77.19524048 48.43041992 78.15185547 C46.87549205 79.45000325 45.31948853 80.74686362 43.76245117 82.04248047 C42.98595215 82.68894531 42.20945312 83.33541016 41.40942383 84.00146484 C38.3530123 86.5215816 35.24484368 88.97015777 32.11791992 91.40185547 C27.08803998 95.3204997 22.11987669 99.30732671 17.18041992 103.33935547 C11.665552 107.84011623 6.11755213 112.29059306 0.48925781 116.64892578 C-2.76280998 119.17856961 -5.93957709 121.77359679 -9.07348633 124.44873047 C-9.79084961 125.05394531 -10.50821289 125.65916016 -11.24731445 126.28271484 C-12.64340916 127.46422226 -14.02936604 128.6578414 -15.40356445 129.86474609 C-16.03713867 130.39777344 -16.67071289 130.93080078 -17.32348633 131.47998047 C-17.8785083 131.95983398 -18.43353027 132.4396875 -19.00537109 132.93408203 C-21.60644572 134.23199412 -23.04917144 133.5987651 -25.81958008 132.83935547 C-28.06434631 131.60469055 -28.06434631 131.60469055 -30.36279297 130.03198242 C-31.23041763 129.44500076 -32.0980423 128.8580191 -32.99195862 128.25325012 C-33.91605026 127.6177977 -34.84014191 126.98234528 -35.79223633 126.32763672 C-37.76264444 124.99972491 -39.73335677 123.6722644 -41.7043457 122.34521484 C-44.80503089 120.24416237 -47.90210503 118.13815931 -50.99365234 116.02368164 C-53.97977941 113.98595251 -56.97862383 111.96820488 -59.97973633 109.95263672 C-60.9058522 109.3111116 -61.83196808 108.66958649 -62.78614807 108.00862122 C-63.65062057 107.43109604 -64.51509308 106.85357086 -65.40576172 106.25854492 C-66.54229942 105.48363457 -66.54229942 105.48363457 -67.70179749 104.69306946 C-69.81751817 103.56926014 -69.81751817 103.56926014 -71.99821472 104.6051178 C-73.81648608 105.83725884 -75.29994875 107.0910365 -76.83520508 108.65966797 C-77.3637207 109.19462891 -77.89223633 109.72958984 -78.43676758 110.28076172 C-79.24500977 111.11414063 -79.24500977 111.11414063 -80.06958008 111.96435547 C-80.62387695 112.52767578 -81.17817383 113.09099609 -81.74926758 113.67138672 C-83.11062493 115.05621575 -84.46572867 116.44718751 -85.81958008 117.83935547 C-84.14156135 121.70161086 -81.6161806 124.82614242 -79.00708008 128.08935547 C-78.28391602 129.00201172 -78.28391602 129.00201172 -77.54614258 129.93310547 C-73.29444085 135.28307286 -68.97839336 140.58079518 -64.65820312 145.87548828 C-60.70848011 150.72284907 -56.83170262 155.62207572 -52.98364258 160.55029297 C-48.94927638 165.70402088 -44.82691915 170.78364069 -40.67529297 175.84326172 C-37.95108313 179.17307778 -35.27791644 182.5266804 -32.69067383 185.96435547 C-32.19567383 186.61662109 -31.70067383 187.26888672 -31.19067383 187.94091797 C-30.25675005 189.17766717 -29.33298575 190.42217516 -28.42114258 191.67529297 C-27.0524568 193.53999576 -27.0524568 193.53999576 -24.81958008 195.83935547 C-20.8114998 196.28338305 -20.8114998 196.28338305 -18.55786133 193.81982422 C-17.75735352 192.89814453 -16.9568457 191.97646484 -16.13208008 191.02685547 C-15.69710205 190.5312915 -15.26212402 190.03572754 -14.81396484 189.52514648 C-11.11518723 185.2788988 -7.57083294 180.90461605 -4.03442383 176.52294922 C-1.86325181 173.8922699 0.38283349 171.35993122 2.68041992 168.83935547 C5.7950066 165.42196175 8.77228612 161.93413197 11.68041992 158.33935547 C15.29074435 153.87659333 19.06469921 149.61216014 22.93041992 145.37060547 C25.25904045 142.75090737 27.47604939 140.06420237 29.68041992 137.33935547 C33.29074435 132.87659333 37.06469921 128.61216014 40.93041992 124.37060547 C43.25904045 121.75090737 45.47604939 119.06420237 47.68041992 116.33935547 C50.58855372 112.74457897 53.56583324 109.25674919 56.68041992 105.83935547 C65.42459787 96.5427261 65.42459787 96.5427261 72.18041992 85.83935547 C69.89685746 83.49797004 67.60228618 81.16768565 65.30541992 78.83935547 C64.65444336 78.17162109 64.0034668 77.50388672 63.33276367 76.81591797 C62.70756836 76.18427734 62.08237305 75.55263672 61.43823242 74.90185547 C60.86218262 74.31533203 60.28613281 73.72880859 59.69262695 73.12451172 C56.76251484 70.63434217 55.30675999 72.36671394 52.75854492 74.51513672 Z " fill="#FFFFFF" transform="translate(262.819580078125,121.16064453125)"/>
</svg>
