<?xml version="1.0" encoding="UTF-8"?>
<!DOCTYPE svg PUBLIC "-//W3C//DTD SVG 1.1//EN" "http://www.w3.org/Graphics/SVG/1.1/DTD/svg11.dtd">
<svg xmlns="http://www.w3.org/2000/svg" version="1.1" width="512px" height="512px" style="shape-rendering:geometricPrecision; text-rendering:geometricPrecision; image-rendering:optimizeQuality; fill-rule:evenodd; clip-rule:evenodd" xmlns:xlink="http://www.w3.org/1999/xlink">
<g><path style="opacity:0.981" fill="#1a29df" d="M 322.5,172.5 C 339.623,171.256 356.29,173.422 372.5,179C 373.022,179.561 373.355,180.228 373.5,181C 371.065,192.24 368.398,203.407 365.5,214.5C 353.128,208.656 340.128,206.156 326.5,207C 317.184,207.146 310.85,211.479 307.5,220C 308.962,224.474 311.629,228.14 315.5,231C 326.663,237.081 337.663,243.414 348.5,250C 365.596,264.548 370.096,282.382 362,303.5C 352.974,321.452 338.474,332.285 318.5,336C 294.726,340.426 271.393,338.76 248.5,331C 247.572,330.612 246.905,329.945 246.5,329C 249.018,317.598 251.684,306.264 254.5,295C 261.651,297.493 268.984,299.826 276.5,302C 288.639,305.622 300.639,305.289 312.5,301C 324.046,293.564 324.38,285.564 313.5,277C 304.833,272.333 296.167,267.667 287.5,263C 264.429,248.453 258.263,228.62 269,203.5C 275.99,192.517 285.49,184.35 297.5,179C 305.762,176.019 314.095,173.853 322.5,172.5 Z"/></g>
<g><path style="opacity:0.983" fill="#1929df" d="M -0.5,175.5 C 25.1688,175.333 50.8355,175.5 76.5,176C 83,178.5 87.5,183 90,189.5C 95.749,220.244 101.749,250.911 108,281.5C 121.833,246.5 135.667,211.5 149.5,176.5C 164.5,175.167 179.5,175.167 194.5,176.5C 171.972,229.419 149.638,282.419 127.5,335.5C 112.515,336.499 97.5148,336.833 82.5,336.5C 71.2923,291.002 59.4589,245.669 47,200.5C 42.5503,195.39 37.0503,191.89 30.5,190C 20.4492,186.071 10.1159,183.238 -0.5,181.5C -0.5,179.5 -0.5,177.5 -0.5,175.5 Z"/></g>
<g><path style="opacity:0.983" fill="#192adf" d="M 211.5,175.5 C 225.5,175.5 239.5,175.5 253.5,175.5C 242.008,229.134 230.675,282.8 219.5,336.5C 205.151,336.833 190.818,336.499 176.5,335.5C 188.172,282.137 199.839,228.804 211.5,175.5 Z"/></g>
<g><path style="opacity:0.983" fill="#1929df" d="M 511.5,330.5 C 511.5,332.5 511.5,334.5 511.5,336.5C 498.5,336.5 485.5,336.5 472.5,336.5C 471.404,328.521 469.738,320.687 467.5,313C 450.157,312.167 432.824,312.334 415.5,313.5C 412.428,321.052 409.761,328.718 407.5,336.5C 392.485,336.833 377.485,336.499 362.5,335.5C 383,286.5 403.5,237.5 424,188.5C 426.263,181.903 430.763,177.736 437.5,176C 444.333,175.833 451.167,175.667 458,175.5C 465.238,175.52 472.238,176.186 479,177.5C 489.666,228.67 500.499,279.67 511.5,330.5 Z M 448.5,222.5 C 452.862,240.969 456.862,259.636 460.5,278.5C 449.833,278.5 439.167,278.5 428.5,278.5C 434.573,259.612 441.24,240.946 448.5,222.5 Z"/></g>
</svg>
