<?xml version="1.0" standalone="no"?>
<!DOCTYPE svg PUBLIC "-//W3C//DTD SVG 20010904//EN"
 "http://www.w3.org/TR/2001/REC-SVG-20010904/DTD/svg10.dtd">
<svg version="1.0" xmlns="http://www.w3.org/2000/svg"
 width="512.000000pt" height="512.000000pt" viewBox="0 0 512.000000 512.000000"
 preserveAspectRatio="xMidYMid meet">

<g transform="translate(0.000000,512.000000) scale(0.100000,-0.100000)"
fill="#FFFFFF" stroke="none">
<path d="M2392 5110 c-558 -79 -994 -492 -1109 -1050 -26 -130 -24 -330 6
-445 58 -223 205 -536 425 -903 142 -236 755 -1167 788 -1194 26 -23 90 -23
116 0 33 27 647 959 784 1189 271 454 417 783 448 1013 21 149 -6 365 -65 530
-154 428 -507 739 -955 841 -98 22 -340 33 -438 19z m367 -645 c108 -35 192
-88 276 -176 130 -136 192 -303 182 -484 -21 -355 -305 -625 -657 -625 -352 0
-636 270 -657 625 -10 182 52 348 182 484 81 84 152 131 252 168 134 49 284
51 422 8z"/>
<path d="M2465 4390 c-118 -21 -226 -81 -311 -173 -73 -78 -109 -143 -134
-243 -90 -352 176 -694 540 -694 307 0 559 252 560 561 0 72 -32 196 -67 262
-38 70 -133 170 -202 211 -110 67 -265 98 -386 76z"/>
<path d="M305 3561 c-11 -5 -29 -19 -40 -31 -20 -22 -20 -36 -20 -1502 l0
-1480 27 -23 c18 -15 246 -96 687 -243 l661 -220 0 1303 0 1304 -87 154 c-49
84 -117 215 -153 290 l-65 136 -480 160 c-264 89 -487 161 -495 160 -8 0 -24
-4 -35 -8z"/>
<path d="M3851 3358 c-51 -134 -167 -369 -275 -556 l-76 -131 0 -1053 c-1
-1113 0 -1099 -46 -1149 -9 -10 -15 -22 -12 -24 11 -11 1324 -445 1345 -445
13 0 37 13 55 29 l33 29 3 1466 c2 1592 5 1508 -50 1537 -29 15 -939 319 -956
319 -7 0 -16 -10 -21 -22z"/>
<path d="M1721 1293 c-1 -851 2 -1219 10 -1236 12 -27 58 -57 86 -57 10 0 358
113 773 251 560 187 761 258 780 275 l25 24 2 978 c2 763 -1 973 -10 958 -66
-104 -673 -1016 -685 -1030 -66 -73 -218 -73 -284 0 -12 15 -627 938 -685
1030 -9 15 -12 -251 -12 -1193z"/>
</g>
</svg>
