<?xml version="1.0" encoding="UTF-8"?>
<svg version="1.1" xmlns="http://www.w3.org/2000/svg" width="512" height="512">
<path d="M0 0 C1.21543488 -0.00852997 2.43086975 -0.01705994 3.68313599 -0.02584839 C5.02705396 -0.02514939 6.37097184 -0.02422634 7.71488953 -0.02310181 C9.13267877 -0.02908736 10.55046476 -0.03589296 11.96824646 -0.04345703 C15.81754783 -0.06112321 19.66676027 -0.06581271 23.51609826 -0.0670886 C25.92229336 -0.0685106 28.32846589 -0.07278113 30.73465538 -0.07808304 C39.13286651 -0.09658647 47.53101416 -0.1047534 55.929245 -0.10317993 C63.75117719 -0.10197895 71.57283325 -0.12307179 79.39469558 -0.15466726 C86.11501304 -0.18084341 92.83524041 -0.19154665 99.55560845 -0.19026911 C103.56719334 -0.1897598 107.57853291 -0.1954255 111.59006691 -0.21662521 C115.36504363 -0.23602995 119.13954164 -0.2361172 122.91453552 -0.22159195 C124.29679249 -0.21950538 125.67907959 -0.22419581 127.06128502 -0.23631287 C140.03451155 -0.34263793 140.03451155 -0.34263793 146.06132507 4.26742554 C150.18170368 8.99001332 151.18298893 14.80077717 151.19275284 20.88680649 C151.19659398 21.7899275 151.20043513 22.69304851 151.20439267 23.62353683 C151.20352619 24.6066982 151.20265971 25.58985958 151.20176697 26.60281372 C151.20473809 27.65429226 151.20770921 28.7057708 151.21077037 29.78911233 C151.21945292 33.31802425 151.22096525 36.84690222 151.22245789 40.37582397 C151.22708635 42.90379916 151.23211105 45.43177364 151.23750305 47.95974731 C151.25062581 54.83173746 151.25710852 61.70371643 151.26151371 68.57571697 C151.26427873 72.86858684 151.26851654 77.16145446 151.27301788 81.45432281 C151.28520822 93.34582757 151.29550815 105.23733053 151.29889297 117.1288414 C151.29922232 118.26989746 151.29922232 118.26989746 151.29955833 119.43400516 C151.2997766 120.1965021 151.29999488 120.95899905 151.30021977 121.74460196 C151.30066324 123.28964472 151.3011098 124.83468747 151.30155945 126.37973022 C151.30189159 127.52931569 151.30189159 127.52931569 151.30223045 128.7021251 C151.30617774 141.11795159 151.32363071 153.53371937 151.34691897 165.94952318 C151.37064924 178.70417723 151.38309558 191.45880184 151.38426089 204.21347833 C151.38517669 211.37172918 151.39090491 218.5299035 151.40908051 225.68813324 C151.42611848 232.42192113 151.42772162 239.15553916 151.4189415 245.88935089 C151.41817059 248.35924162 151.42252086 250.82914013 151.43239975 253.29901123 C151.44510683 256.67421465 151.43924868 260.04890281 151.42881775 263.42410278 C151.44090236 264.88546052 151.44090236 264.88546052 151.4532311 266.37634063 C151.39973393 273.7926687 150.46199936 280.37430524 145.62382507 286.20492554 C141.36358724 289.63389745 138.61422717 290.51742936 133.12265015 290.53485107 C131.29949783 290.54764603 131.29949783 290.54764603 129.43951416 290.56069946 C128.09559618 290.56000046 126.75167831 290.55907741 125.40776062 290.55795288 C123.98997137 290.56393843 122.57218539 290.57074404 121.15440369 290.57830811 C117.30510232 290.59597428 113.45588987 290.60066378 109.60655189 290.60193968 C107.20035678 290.60336167 104.79418426 290.60763221 102.38799477 290.61293411 C93.98978364 290.63143755 85.59163599 290.63960447 77.19340515 290.63803101 C69.37147296 290.63683003 61.5498169 290.65792286 53.72795457 290.68951833 C47.0076371 290.71569448 40.28740973 290.72639772 33.5670417 290.72512019 C29.55545681 290.72461087 25.54411724 290.73027658 21.53258324 290.75147629 C17.75760651 290.77088103 13.98310851 290.77096827 10.20811462 290.75644302 C8.82585766 290.75435645 7.44357056 290.75904689 6.06136513 290.77116394 C-7.01597728 290.87834231 -7.01597728 290.87834231 -12.93867493 286.26742554 C-16.75374322 281.44839191 -18.0605781 277.74392829 -18.07010269 271.70303631 C-18.07394384 270.78673937 -18.07778498 269.87044242 -18.08174253 268.92637891 C-18.08087604 267.92337666 -18.08000956 266.92037441 -18.07911682 265.88697815 C-18.08208794 264.81860869 -18.08505907 263.75023924 -18.08812022 262.64949495 C-18.09681512 259.057531 -18.09831614 255.46560035 -18.09980774 251.87362671 C-18.10443531 249.30314564 -18.10945989 246.73266525 -18.11485291 244.16218567 C-18.12842934 237.17044171 -18.13445976 230.17870349 -18.13886356 223.18694854 C-18.14162694 218.82089793 -18.14586445 214.45484954 -18.15036774 210.08880043 C-18.1625591 197.99917204 -18.17285894 185.90954541 -18.17624283 173.819911 C-18.17646239 173.04629827 -18.17668196 172.27268554 -18.17690818 171.47563 C-18.17712646 170.70017425 -18.17734474 169.92471849 -18.17756963 169.12576407 C-18.17801309 167.5544136 -18.17845966 165.98306312 -18.1789093 164.41171265 C-18.17913073 163.63226976 -18.17935216 162.85282686 -18.1795803 162.04976449 C-18.18352859 149.4191284 -18.20098413 136.78854999 -18.22426882 124.15793618 C-18.24798486 111.18862112 -18.26044478 98.21933501 -18.26161075 85.24999791 C-18.26252732 77.96883554 -18.2682753 70.68774834 -18.28643036 63.40660667 C-18.30344498 56.55875578 -18.30508209 49.71104981 -18.29629135 42.86318398 C-18.29551928 40.34891503 -18.29988592 37.83463851 -18.3097496 35.32038879 C-18.32242003 31.88969602 -18.31661854 28.45951284 -18.3061676 25.02882385 C-18.31422401 24.03251377 -18.32228041 23.03620368 -18.33058095 22.00970238 C-18.27963657 14.86556904 -17.31142513 10.00521424 -12.50117493 4.45492554 C-8.29057253 0.86050885 -5.54338449 0.01758607 0 0 Z M4.06132507 31.26742554 C4.06132507 39.84742554 4.06132507 48.42742554 4.06132507 57.26742554 C45.31132507 57.26742554 86.56132507 57.26742554 129.06132507 57.26742554 C129.06132507 48.68742554 129.06132507 40.10742554 129.06132507 31.26742554 C87.81132507 31.26742554 46.56132507 31.26742554 4.06132507 31.26742554 Z " fill="#000000" transform="translate(29.938674926757813,110.73257446289063)"/>
<path d="M0 0 C0.96435252 -0.00538554 1.92870504 -0.01077108 2.92228037 -0.01631981 C6.1325284 -0.03055242 9.34236135 -0.0235072 12.55262756 -0.01637268 C14.86282684 -0.02207867 17.1730233 -0.02904382 19.48321533 -0.03717041 C25.74352551 -0.05509098 32.00369543 -0.05393551 38.26402354 -0.04822803 C43.49515876 -0.04513476 48.72626709 -0.05123014 53.95739847 -0.05726677 C67.00516392 -0.07210872 80.05285072 -0.06850154 93.10061587 -0.05640347 C104.41623878 -0.0464716 115.73169816 -0.05941373 127.04729586 -0.08333766 C138.68451605 -0.107755 150.32165337 -0.11693085 161.9588986 -0.11068493 C168.4850094 -0.1073166 175.01098509 -0.10972249 181.53707695 -0.12693596 C187.67427635 -0.14241771 193.81116378 -0.13843547 199.94835091 -0.11963081 C202.19690009 -0.11594848 204.44547244 -0.11904297 206.69400024 -0.1295166 C209.77104842 -0.14275207 212.84706765 -0.13115573 215.92407227 -0.11352539 C216.80706857 -0.1231304 217.69006488 -0.1327354 218.59981865 -0.14263147 C226.41246635 -0.05096267 232.83287392 2.27932362 239.33802795 6.57518005 C246.24469547 13.80308792 248.17833067 21.03398915 248.16596985 30.83108521 C248.17042653 31.9417197 248.17042653 31.9417197 248.17497325 33.07479125 C248.18363147 35.55108798 248.18516606 38.0273362 248.18666077 40.50364685 C248.19129101 42.28124087 248.19631595 44.0588339 248.20170593 45.83642578 C248.21481289 50.66309312 248.22127169 55.48974655 248.22571659 60.3164289 C248.22865035 63.33422326 248.23275576 66.35201384 248.23722076 69.36980629 C248.25089184 78.81834066 248.26056014 88.26686636 248.26442266 97.71540993 C248.26890116 108.60998211 248.28644109 119.50442868 248.31542325 130.39896268 C248.33706561 138.82802736 248.34712832 147.25705678 248.34846377 155.68614894 C248.34951006 160.7166644 248.35538027 165.74706172 248.37328339 170.77754784 C248.38980801 175.51276362 248.3918983 180.24777302 248.38314438 184.98300743 C248.38237633 186.71554112 248.38668599 188.44808611 248.39660263 190.18059158 C248.51658068 212.45812276 248.51658068 212.45812276 241.46302795 220.26268005 C240.86361389 220.96135193 240.26419983 221.6600238 239.6466217 222.37986755 C229.82745293 229.9015557 218.76986113 228.91201746 207.01771545 228.77830505 C205.0814523 228.77083366 203.14518153 228.76514498 201.20890808 228.76115417 C196.14205104 228.74596857 191.07566134 228.70674855 186.00898743 228.66233826 C180.82706522 228.62123208 175.64506663 228.60311053 170.46302795 228.58299255 C160.31695751 228.54024663 150.17135492 228.46995549 140.02552795 228.38768005 C140.02552795 233.66768005 140.02552795 238.94768005 140.02552795 244.38768005 C141.48369934 244.3719696 142.94187073 244.35625916 144.44422913 244.34007263 C149.8580726 244.28574179 155.271892 244.25131821 160.68592834 244.22288513 C163.0284175 244.20780577 165.37087845 244.18733928 167.71327209 244.16136169 C171.08175112 244.12494184 174.4498566 244.10794493 177.8184967 244.0947113 C178.86450546 244.07922745 179.91051422 244.06374359 180.98822021 244.04779053 C190.15233425 244.04567301 190.15233425 244.04567301 194.02552795 247.38768005 C195.43156413 250.19975241 195.27110301 252.62777472 195.33802795 255.76268005 C195.37541077 256.90478943 195.41279358 258.0468988 195.4513092 259.22361755 C194.92567943 263.12967365 194.12361767 264.01923537 191.02552795 266.38768005 C187.93361568 266.8882513 187.93361568 266.8882513 184.22473145 266.8888855 C183.5414772 266.89441989 182.85822295 266.89995429 182.15426403 266.9056564 C179.86545758 266.91926675 177.57774092 266.90429296 175.28895569 266.88938904 C173.64792925 266.89317207 172.00690599 266.89867198 170.3658905 266.90576172 C165.90932095 266.9197347 161.45313666 266.90853423 156.99658847 266.8920505 C152.33615224 266.87821248 147.67573866 266.88465857 143.01528931 266.88818359 C135.18961874 266.89088644 127.3641015 266.87740283 119.53846741 266.85423279 C110.4849894 266.82761328 101.43176762 266.82587861 92.37826389 266.83762115 C83.67507609 266.84839138 74.97198116 266.84221842 66.26880074 266.82806587 C62.56190361 266.82230043 58.85507433 266.8223931 55.14817619 266.82713127 C50.78557864 266.83189535 46.42326253 266.82182321 42.06071854 266.80017662 C40.45749041 266.79460112 38.85423527 266.79415043 37.25100517 266.79912949 C35.0668023 266.80506333 32.88346552 266.79261518 30.69934082 266.77536011 C29.47578605 266.77293021 28.25223127 266.77050032 26.99159908 266.76799679 C24.02552795 266.38768005 24.02552795 266.38768005 22.1513834 264.9689188 C19.34996601 261.03439085 19.50593717 256.05471871 20.02552795 251.38768005 C21.7016529 247.53259268 23.1677967 245.93309488 27.02552795 244.38768005 C29.36677551 244.14717102 29.36677551 244.14717102 31.97767639 244.16062927 C32.95839111 244.16078033 33.93910583 244.1609314 34.94953918 244.16108704 C36.52629425 244.17657089 36.52629425 244.17657089 38.13490295 244.19236755 C39.75782257 244.1966124 39.75782257 244.1966124 41.41352844 244.20094299 C44.86764099 244.21213396 48.32149383 244.23723686 51.77552795 244.26268005 C54.11797212 244.27271124 56.46042036 244.28183685 58.8028717 244.2900238 C64.54385712 244.3120698 70.28464851 244.3465925 76.02552795 244.38768005 C76.02552795 239.10768005 76.02552795 233.82768005 76.02552795 228.38768005 C73.41211487 228.41386414 70.79870178 228.44004822 68.10609436 228.46702576 C59.44494151 228.55009318 50.78377048 228.60519074 42.12232399 228.64674091 C36.87386017 228.67276907 31.62580654 228.70804285 26.37757874 228.76487732 C21.30711748 228.81943939 16.2370493 228.84915154 11.16631699 228.86206627 C9.23750501 228.87126285 7.30871312 228.88922139 5.38006973 228.91633034 C-6.54284029 229.07716366 -15.05614139 228.76860389 -24.78697205 221.20018005 C-32.42866836 211.37514194 -32.69141973 202.21725549 -32.60557556 190.24510193 C-32.61072059 188.41750394 -32.61800625 186.58991092 -32.6272583 184.7623291 C-32.64570621 179.82213625 -32.63287554 174.88248604 -32.613168 169.94231606 C-32.59672547 164.75934392 -32.60560218 159.57640464 -32.61068726 154.39341736 C-32.61520195 145.6913847 -32.59937703 136.98956742 -32.57139587 128.2875824 C-32.53934689 118.24341812 -32.53936182 108.19964219 -32.55661064 98.15545034 C-32.57250388 88.47195181 -32.56572416 78.78859492 -32.54867363 69.10510254 C-32.54182176 64.99368493 -32.54281641 60.8823815 -32.55021858 56.77096558 C-32.55790996 51.9247701 -32.54566248 47.07901373 -32.51836967 42.23289299 C-32.51151461 40.46006002 -32.51135679 38.68718581 -32.51858521 36.91435432 C-32.55568079 26.62681447 -32.53604231 17.24009621 -25.9315033 8.7665863 C-25.22380798 8.16717224 -24.51611267 7.56775818 -23.78697205 6.95018005 C-22.74476501 6.02398865 -22.74476501 6.02398865 -21.6815033 5.0790863 C-14.84673393 0.80858827 -7.91501243 -0.05373716 0 0 Z M-2.97447205 29.38768005 C-2.97447205 82.18768005 -2.97447205 134.98768005 -2.97447205 189.38768005 C69.95552795 189.38768005 142.88552795 189.38768005 218.02552795 189.38768005 C218.02552795 136.58768005 218.02552795 83.78768005 218.02552795 29.38768005 C145.09552795 29.38768005 72.16552795 29.38768005 -2.97447205 29.38768005 Z " fill="#000000" transform="translate(251.97447204589844,134.61231994628906)"/>
</svg>
