<?xml version="1.0" standalone="no"?>
<!DOCTYPE svg PUBLIC "-//W3C//DTD SVG 20010904//EN"
 "http://www.w3.org/TR/2001/REC-SVG-20010904/DTD/svg10.dtd">
<svg version="1.0" xmlns="http://www.w3.org/2000/svg"
 width="512.000000pt" height="512.000000pt" viewBox="0 0 512.000000 512.000000"
 preserveAspectRatio="xMidYMid meet">

<g transform="translate(0.000000,512.000000) scale(0.100000,-0.100000)"
fill="#FFFFFF" stroke="none">
<path d="M307 4949 c-75 -25 -121 -55 -178 -113 -170 -172 -170 -450 0 -622
91 -93 190 -134 321 -134 172 0 319 88 397 236 l28 54 258 0 257 0 0 -184 0
-184 -162 -60 c-90 -33 -230 -81 -312 -108 -169 -54 -209 -80 -227 -147 -16
-58 -5 -551 15 -677 9 -52 15 -101 16 -107 0 -10 -67 -13 -301 -13 -257 0
-306 -2 -335 -16 -75 -36 -105 -129 -64 -201 43 -78 42 -77 424 -83 l340 -5
13 -55 c14 -55 87 -304 99 -333 5 -14 -20 -16 -228 -19 -224 -3 -234 -4 -265
-26 -40 -28 -68 -98 -59 -146 8 -44 50 -94 93 -112 25 -11 98 -14 311 -14
l279 0 27 -62 c65 -152 223 -417 363 -614 l82 -114 -312 0 -312 0 -24 52 c-32
69 -130 167 -202 201 -183 86 -374 53 -515 -87 -258 -259 -116 -696 246 -758
183 -31 378 65 462 228 l33 64 439 0 439 0 136 -133 c185 -180 435 -387 575
-476 68 -42 124 -43 191 0 141 89 390 295 576 476 l136 133 439 0 439 0 34
-65 c84 -162 279 -258 462 -227 245 42 412 273 371 513 -17 100 -55 174 -126
245 -180 179 -452 179 -632 0 -35 -35 -71 -83 -85 -114 l-24 -52 -312 0 -312
0 82 114 c140 197 298 462 363 614 l27 62 279 0 c213 0 286 3 311 14 43 18 85
68 93 112 9 48 -19 118 -59 146 -31 22 -41 23 -265 26 -208 3 -233 5 -228 19
12 29 85 278 99 333 l13 55 340 5 c385 6 386 6 425 88 37 76 9 161 -65 196
-29 14 -78 16 -336 16 l-303 0 7 43 c33 205 49 675 26 759 -17 61 -62 90 -211
137 -74 24 -214 72 -311 109 l-178 66 0 183 0 183 258 0 257 0 28 -54 c78
-148 225 -236 397 -236 131 0 230 41 321 134 169 171 170 446 3 620 -87 92
-193 136 -324 136 -173 0 -318 -87 -399 -241 l-32 -59 -353 0 c-350 0 -353 0
-387 -23 -63 -42 -69 -67 -69 -299 0 -115 -2 -208 -5 -208 -14 0 -252 126
-347 183 -153 92 -258 170 -363 268 -139 131 -171 131 -310 0 -105 -98 -210
-176 -363 -268 -95 -57 -333 -183 -347 -183 -3 0 -5 93 -5 208 0 232 -6 257
-69 299 -34 23 -37 23 -387 23 l-353 0 -31 59 c-83 156 -227 241 -402 241 -56
-1 -102 -7 -141 -21z m224 -302 c89 -59 89 -185 0 -244 -71 -48 -175 -20 -213
57 -50 98 21 210 132 210 32 0 58 -7 81 -23z m4220 0 c39 -26 69 -79 69 -122
0 -43 -30 -96 -69 -122 -71 -48 -175 -20 -213 57 -50 98 21 210 132 210 32 0
58 -7 81 -23z m-2108 -390 c103 -80 235 -168 354 -235 246 -141 642 -313 991
-432 l152 -53 0 -139 c0 -235 -42 -539 -110 -803 -207 -794 -687 -1510 -1367
-2036 l-103 -80 -82 63 c-477 362 -856 813 -1113 1323 -243 482 -385 1049
-385 1539 l0 134 153 52 c319 108 637 244 912 389 128 67 365 221 455 295 30
25 56 45 58 46 2 0 40 -29 85 -63z m-2123 -3187 c45 -23 80 -80 80 -131 0 -72
-78 -149 -150 -149 -74 0 -150 77 -150 151 0 47 38 108 80 130 45 24 91 24
140 -1z m4220 0 c45 -23 80 -80 80 -131 0 -72 -78 -149 -150 -149 -74 0 -150
77 -150 151 0 47 38 108 80 130 45 24 91 24 140 -1z"/>
<path d="M2420 3664 c-212 -45 -393 -211 -471 -431 -15 -40 -23 -94 -26 -175
l-6 -117 -28 -12 c-44 -17 -108 -85 -132 -137 -22 -46 -22 -57 -22 -537 l0
-490 28 -57 c34 -70 94 -124 161 -143 74 -22 1198 -22 1272 0 67 19 127 73
161 143 l28 57 0 490 c0 490 0 490 -23 536 -26 54 -92 122 -133 140 -29 11
-29 12 -29 99 0 179 -64 334 -190 461 -155 156 -374 220 -590 173z m282 -316
c120 -55 190 -164 196 -305 l4 -83 -342 0 -342 0 4 83 c7 160 93 274 243 324
61 20 170 11 237 -19z m386 -1095 l2 -403 -530 0 -530 0 0 398 c0 219 3 402 7
405 3 4 241 6 527 5 l521 -3 3 -402z"/>
<path d="M2517 2445 c-81 -28 -107 -76 -107 -195 0 -61 5 -90 20 -120 23 -45
80 -80 130 -80 50 0 107 35 130 80 15 30 20 59 20 120 0 88 -14 133 -51 166
-21 19 -38 27 -89 39 -8 2 -32 -2 -53 -10z"/>
</g>
</svg>
