<?xml version="1.0" encoding="UTF-8"?>
<!DOCTYPE svg PUBLIC "-//W3C//DTD SVG 1.1//EN" "http://www.w3.org/Graphics/SVG/1.1/DTD/svg11.dtd">
<svg xmlns="http://www.w3.org/2000/svg" version="1.1" width="512px" height="512px" style="shape-rendering:geometricPrecision; text-rendering:geometricPrecision; image-rendering:optimizeQuality; fill-rule:evenodd; clip-rule:evenodd" xmlns:xlink="http://www.w3.org/1999/xlink">
<g><path style="opacity:0.992" fill="#000000" d="M 511.5,100.5 C 511.5,107.167 511.5,113.833 511.5,120.5C 508.613,131.582 502.613,140.749 493.5,148C 423.5,194.667 353.5,241.333 283.5,288C 264.833,299.333 246.167,299.333 227.5,288C 157.5,241.333 87.5,194.667 17.5,148C 8.38726,140.749 2.38726,131.582 -0.5,120.5C -0.5,113.833 -0.5,107.167 -0.5,100.5C 5.20236,80.6336 18.2024,68.4669 38.5,64C 183.167,63.3333 327.833,63.3333 472.5,64C 492.786,68.4616 505.786,80.6282 511.5,100.5 Z"/></g>
<g><path style="opacity:0.994" fill="#000000" d="M -0.5,170.5 C 71.9515,218.445 144.285,266.611 216.5,315C 242.5,329 268.5,329 294.5,315C 366.715,266.611 439.048,218.445 511.5,170.5C 511.5,250.5 511.5,330.5 511.5,410.5C 505.786,430.372 492.786,442.538 472.5,447C 327.833,447.667 183.167,447.667 38.5,447C 18.2024,442.533 5.20236,430.366 -0.5,410.5C -0.5,330.5 -0.5,250.5 -0.5,170.5 Z"/></g>
</svg>
