<?xml version="1.0" encoding="UTF-8"?>
<svg version="1.1" xmlns="http://www.w3.org/2000/svg" width="512" height="512">
<path d="M0 0 C1.59443414 -0.00462073 3.18886401 -0.01098144 4.78328514 -0.01890898 C9.12156164 -0.03546473 13.459482 -0.02741931 17.79775906 -0.0149641 C22.49314614 -0.00585902 27.18847487 -0.01991023 31.8838501 -0.03088379 C41.06507742 -0.04861567 50.2461735 -0.04485286 59.42740583 -0.03323323 C66.89308208 -0.02417812 74.35872169 -0.02298387 81.82440186 -0.02732849 C82.8893281 -0.02794142 83.95425435 -0.02855436 85.05145109 -0.02918586 C87.21522412 -0.03046484 89.37899714 -0.03176169 91.54277015 -0.03307623 C111.80459524 -0.04446641 132.0663478 -0.03139286 152.328161 -0.00987476 C169.69162932 0.00799478 187.05499064 0.00489024 204.41845703 -0.0135498 C224.61068036 -0.03498413 244.8028402 -0.04336792 264.99507332 -0.03110075 C267.15062585 -0.02982663 269.3061784 -0.02856915 271.46173096 -0.02732849 C273.05234756 -0.02640284 273.05234756 -0.02640284 274.67509782 -0.02545848 C282.12673688 -0.02201327 289.57833547 -0.02781602 297.02996826 -0.0372467 C306.11829114 -0.04849657 315.20647593 -0.04536401 324.29478312 -0.02412373 C328.92658234 -0.01365343 333.55815181 -0.00942243 338.18994904 -0.02272034 C342.43886639 -0.03473398 346.68734336 -0.02793575 350.93622136 -0.00681013 C352.46428919 -0.00238173 353.99239506 -0.00452442 355.52043796 -0.01431328 C368.62567123 -0.09175596 381.06779542 1.98198065 392.83056641 8.07043457 C393.48927734 8.40631592 394.14798828 8.74219727 394.82666016 9.08825684 C401.79909411 12.83712243 407.18009143 17.84868504 412.64306641 23.50793457 C413.38041016 24.21434082 414.11775391 24.92074707 414.87744141 25.64855957 C419.15872847 29.99622318 422.10986382 34.75134132 424.89306641 40.13293457 C425.36921387 41.0362854 425.36921387 41.0362854 425.85498047 41.95788574 C431.79934617 54.12945893 433.23653621 66.51280602 433.15100098 79.86486816 C433.1556217 81.45930231 433.16198242 83.05373217 433.16990995 84.64815331 C433.18646571 88.9864298 433.17842029 93.32435016 433.16596508 97.66262722 C433.15685999 102.3580143 433.17091121 107.05334303 433.18188477 111.74871826 C433.19961665 120.92994558 433.19585384 130.11104166 433.1842342 139.292274 C433.1751791 146.75795024 433.17398484 154.22358986 433.17832947 161.68927002 C433.1789424 162.75419627 433.17955533 163.81912251 433.18018684 164.91631925 C433.18146581 167.08009228 433.18276267 169.2438653 433.1840772 171.40763831 C433.19546739 191.66946341 433.18239383 211.93121597 433.16087574 232.19302917 C433.14300619 249.55649748 433.14611074 266.91985881 433.16455078 284.2833252 C433.18598511 304.47554852 433.1943689 324.66770837 433.18210173 344.85994148 C433.18082761 347.01549402 433.17957012 349.17104657 433.17832947 351.32659912 C433.17771237 352.38701019 433.17709526 353.44742125 433.17645946 354.53996599 C433.17301425 361.99160504 433.178817 369.44320364 433.18824768 376.89483643 C433.19949755 385.98315931 433.19636498 395.0713441 433.1751247 404.15965128 C433.16465441 408.7914505 433.16042341 413.42301998 433.17372131 418.0548172 C433.18573495 422.30373455 433.17893673 426.55221152 433.15781111 430.80108953 C433.15338271 432.32915735 433.15552539 433.85726323 433.16531426 435.38530612 C433.24275693 448.49053939 431.16902033 460.93266358 425.08056641 472.69543457 C424.74468506 473.35414551 424.40880371 474.01285645 424.06274414 474.69152832 C420.31387855 481.66396228 415.30231593 487.04495959 409.64306641 492.50793457 C408.93666016 493.24527832 408.23025391 493.98262207 407.50244141 494.74230957 C403.1547778 499.02359664 398.39965966 501.97473199 393.01806641 504.75793457 C392.11471558 505.23408203 392.11471558 505.23408203 391.19311523 505.71984863 C389.04499852 506.76894813 386.87120133 507.63987399 384.64306641 508.50793457 C383.32593407 509.02414368 383.32593407 509.02414368 381.98219299 509.55078125 C368.74591148 513.86299038 354.9297554 513.02415987 341.17317963 512.91305542 C337.85126932 512.89000101 334.52937805 512.88918824 331.20739746 512.88635254 C321.54004817 512.86549739 311.87279986 512.80965242 302.20556641 512.75793457 C280.56994141 512.67543457 258.93431641 512.59293457 236.64306641 512.50793457 C236.64306641 452.77793457 236.64306641 393.04793457 236.64306641 331.50793457 C261.72306641 331.50793457 286.80306641 331.50793457 312.64306641 331.50793457 C312.97306641 327.54793457 313.30306641 323.58793457 313.64306641 319.50793457 C314.04118153 316.65124456 314.46183595 313.82500604 314.94995117 310.98547363 C315.07893012 310.21087673 315.20790907 309.43627983 315.34079647 308.6382103 C315.75080912 306.18253848 316.16744817 303.72804917 316.58447266 301.27355957 C316.84203789 299.73701291 317.09915922 298.20039178 317.35583496 296.66369629 C318.30039227 291.02754264 319.25347373 285.3928202 320.20556641 279.75793457 C322.32994141 267.13543457 324.45431641 254.51293457 326.64306641 241.50793457 C296.94306641 241.50793457 267.24306641 241.50793457 236.64306641 241.50793457 C236.64306641 221.37793457 236.64306641 201.24793457 236.64306641 180.50793457 C266.67306641 180.50793457 296.70306641 180.50793457 327.64306641 180.50793457 C327.64306641 150.80793457 327.64306641 121.10793457 327.64306641 90.50793457 C312.99931641 90.63168457 298.35556641 90.75543457 283.26806641 90.88293457 C278.68109863 90.91693359 274.09413086 90.95093262 269.36816406 90.98596191 C265.17850049 91.02596688 265.17850049 91.02596688 260.98886108 91.06838989 C259.1538476 91.08582644 257.31879815 91.09973687 255.48373413 91.11062622 C245.88183062 91.17012241 236.35787961 91.36604783 226.8046875 92.39709473 C225.74543029 92.51006928 225.74543029 92.51006928 224.66477394 92.62532616 C207.48391091 94.69731861 191.61805766 102.19881018 178.64306641 113.50793457 C178.04365234 113.9642627 177.44423828 114.42059082 176.82666016 114.89074707 C161.45730646 126.80110469 152.12196697 147.30569742 149.06884766 166.02941895 C147.17343524 181.35193295 147.19163309 196.71182274 147.01806641 212.13293457 C146.89431641 221.82668457 146.77056641 231.52043457 146.64306641 241.50793457 C126.84306641 241.50793457 107.04306641 241.50793457 86.64306641 241.50793457 C86.64306641 271.20793457 86.64306641 300.90793457 86.64306641 331.50793457 C106.44306641 331.50793457 126.24306641 331.50793457 146.64306641 331.50793457 C146.64306641 391.23793457 146.64306641 450.96793457 146.64306641 512.50793457 C106.76462891 512.63168457 106.76462891 512.63168457 66.08056641 512.75793457 C57.70738037 512.79435059 49.33419434 512.8307666 40.70727539 512.86828613 C30.42834473 512.88635254 30.42834473 512.88635254 25.60585022 512.88970947 C22.26056659 512.89341388 18.91554068 512.90831408 15.57032776 512.93023682 C11.28628781 512.95793464 7.00261571 512.96585165 2.71849453 512.96022367 C1.15687273 512.96139827 -0.40476364 512.9691745 -1.96630776 512.98479509 C-15.17257587 513.11062726 -27.6695406 511.09192326 -39.54443359 504.94543457 C-40.20314453 504.60955322 -40.86185547 504.27367187 -41.54052734 503.9276123 C-48.5129613 500.17874671 -53.89395862 495.1671841 -59.35693359 489.50793457 C-60.09427734 488.80152832 -60.83162109 488.09512207 -61.59130859 487.36730957 C-65.87259566 483.01964596 -68.82373101 478.26452783 -71.60693359 472.88293457 C-71.92436523 472.28070068 -72.24179688 471.6784668 -72.56884766 471.0579834 C-78.51321335 458.88641021 -79.9504034 446.50306313 -79.86486816 433.15100098 C-79.86948889 431.55656683 -79.8758496 429.96213697 -79.88377714 428.36771584 C-79.90033289 424.02943934 -79.89228748 419.69151898 -79.87983227 415.35324192 C-79.87072718 410.65785484 -79.88477839 405.96252611 -79.89575195 401.26715088 C-79.91348384 392.08592356 -79.90972103 382.90482748 -79.89810139 373.72359514 C-79.88904629 366.2579189 -79.88785203 358.79227929 -79.89219666 351.32659912 C-79.89280959 350.26167287 -79.89342252 349.19674663 -79.89405403 348.09954989 C-79.895333 345.93577686 -79.89662986 343.77200384 -79.89794439 341.60823083 C-79.90933458 321.34640573 -79.89626102 301.08465317 -79.87474293 280.82283998 C-79.85687338 263.45937166 -79.85997793 246.09601033 -79.87841797 228.73254395 C-79.8998523 208.54032062 -79.90823608 188.34816077 -79.89596891 168.15592766 C-79.8946948 166.00037512 -79.89343731 163.84482258 -79.89219666 161.68927002 C-79.89157955 160.62885895 -79.89096245 159.56844789 -79.89032665 158.47590315 C-79.88688144 151.0242641 -79.89268419 143.5726655 -79.90211487 136.12103271 C-79.91336473 127.03270983 -79.91023217 117.94452504 -79.88899189 108.85621786 C-79.8785216 104.22441864 -79.87429059 99.59284916 -79.8875885 94.96105194 C-79.89960214 90.71213459 -79.89280391 86.46365762 -79.87167829 82.21477962 C-79.8672499 80.68671179 -79.86939258 79.15860591 -79.87918144 77.63056302 C-79.95662412 64.52532975 -77.88288752 52.08320556 -71.79443359 40.32043457 C-71.45855225 39.66172363 -71.1226709 39.0030127 -70.77661133 38.32434082 C-67.02774573 31.35190686 -62.01618312 25.97090955 -56.35693359 20.50793457 C-55.65052734 19.77059082 -54.94412109 19.03324707 -54.21630859 18.27355957 C-49.86864499 13.99227251 -45.11352685 11.04113715 -39.73193359 8.25793457 C-39.12969971 7.94050293 -38.52746582 7.62307129 -37.90698242 7.29602051 C-25.73540923 1.35165481 -13.35206215 -0.08553523 0 0 Z " fill="#FFFFFF" transform="translate(79.35693359375,-0.5079345703125)"/>
</svg>
