<?xml version="1.0" encoding="UTF-8"?>
<!DOCTYPE svg PUBLIC "-//W3C//DTD SVG 1.1//EN" "http://www.w3.org/Graphics/SVG/1.1/DTD/svg11.dtd">
<svg xmlns="http://www.w3.org/2000/svg" version="1.1" width="512px" height="512px" style="shape-rendering:geometricPrecision; text-rendering:geometricPrecision; image-rendering:optimizeQuality; fill-rule:evenodd; clip-rule:evenodd" xmlns:xlink="http://www.w3.org/1999/xlink">
<g><path style="opacity:0.975" fill="#010000" d="M 511.5,171.5 C 511.5,182.5 511.5,193.5 511.5,204.5C 507.762,227.541 499.928,249.207 488,269.5C 463.979,307.872 434.479,341.705 399.5,371C 356.195,407.292 309.862,439.292 260.5,467C 257.167,467.667 253.833,467.667 250.5,467C 183.629,429.789 123.129,383.955 69,329.5C 50.6917,309.864 34.6917,288.53 21,265.5C 10.3554,246.248 3.18873,225.915 -0.5,204.5C -0.5,193.5 -0.5,182.5 -0.5,171.5C 11.2321,104.929 49.8988,63.0958 115.5,46C 171.098,36.2537 217.765,52.0871 255.5,93.5C 293.677,52.2734 340.677,36.4401 396.5,46C 445.459,57.7343 480.292,86.5676 501,132.5C 505.934,145.244 509.434,158.244 511.5,171.5 Z"/></g>
<g><path style="opacity:1" fill="#d6433d" d="M 131.5,69.5 C 180.583,66.5435 218.917,85.2102 246.5,125.5C 252.5,129.5 258.5,129.5 264.5,125.5C 300.799,75.1219 348.799,58.9552 408.5,77C 456.156,97.4521 481.822,133.619 485.5,185.5C 485.505,209.83 479.338,232.497 467,253.5C 453.349,276.826 437.016,298.16 418,317.5C 369.068,365.283 314.901,405.949 255.5,439.5C 202.712,408.884 153.712,373.05 108.5,332C 84.2711,309.457 63.4378,284.29 46,256.5C 36.8514,240.875 30.5181,224.209 27,206.5C 21.3092,157.731 38.1425,118.898 77.5,90C 94.0502,79.0981 112.05,72.2648 131.5,69.5 Z"/></g>
</svg>
