<?xml version="1.0" encoding="UTF-8"?>
<svg version="1.1" xmlns="http://www.w3.org/2000/svg" width="512" height="512">
<path d="M0 0 C0.77322631 -0.00380567 1.54645262 -0.00761134 2.34311002 -0.01153234 C4.93747892 -0.02184945 7.53162907 -0.01794172 10.1260128 -0.01409245 C12.00354996 -0.01854479 13.88108524 -0.02385882 15.75861776 -0.02996117 C20.92102641 -0.04415216 26.08337489 -0.04580425 31.24580026 -0.04536426 C36.81245118 -0.04701151 42.37907724 -0.06007634 47.94571495 -0.07155704 C60.11933051 -0.09441374 72.29292864 -0.10232843 84.46656275 -0.10738349 C92.06794717 -0.11063984 99.66932653 -0.11716196 107.27070808 -0.12438488 C128.31707207 -0.14395196 149.36343207 -0.16043673 170.4098053 -0.16326141 C171.08289086 -0.16335547 171.75597642 -0.16344954 172.44945851 -0.16354645 C175.17712858 -0.16392492 177.90479865 -0.16428892 180.63246871 -0.16464943 C182.68544166 -0.16492114 184.73841461 -0.16519782 186.79138756 -0.16547489 C187.80896032 -0.16560693 187.80896032 -0.16560693 188.84709011 -0.16574163 C210.15603737 -0.16864623 231.46489387 -0.19073493 252.77380943 -0.22699833 C276.71909693 -0.26774734 300.66431344 -0.29140057 324.60964429 -0.29172093 C337.28614577 -0.29230558 349.96253043 -0.30080316 362.63900185 -0.32971859 C373.43344734 -0.35422779 384.22773343 -0.3615184 395.02219923 -0.34647106 C400.52851875 -0.3393003 406.03452346 -0.3401672 411.54080772 -0.36288166 C416.58563655 -0.3834929 421.62990896 -0.38085091 426.6747319 -0.36000682 C428.49575414 -0.35651606 430.31681671 -0.3614043 432.13778611 -0.37571125 C445.16387649 -0.47142472 456.50478656 0.77231691 466.42371178 10.23662472 C473.04212596 17.88916612 476.48810934 25.96607664 476.43377399 36.08635044 C476.43757967 36.85957675 476.44138534 37.63280306 476.44530633 38.42946047 C476.45562345 41.02382936 476.45171572 43.61797952 476.44786644 46.21236324 C476.45231878 48.0899004 476.45763282 49.96743568 476.46373516 51.8449682 C476.47792616 57.00737685 476.47957825 62.16972533 476.47913826 67.3321507 C476.4807855 72.89880162 476.49385033 78.46542768 476.50533104 84.03206539 C476.52818773 96.20568095 476.53610243 108.37927908 476.54115748 120.55291319 C476.54441383 128.15429761 476.55093595 135.75567697 476.55815887 143.35705853 C476.57772595 164.40342251 476.59421072 185.44978251 476.59703541 206.49615574 C476.59712947 207.1692413 476.59722353 207.84232686 476.59732044 208.53580895 C476.59769892 211.26347902 476.59806291 213.99114909 476.59842342 216.71881916 C476.59869514 218.7717921 476.59897182 220.82476505 476.59924889 222.877738 C476.59933691 223.55611984 476.59942493 224.23450168 476.59951562 224.93344055 C476.60242023 246.24238781 476.62450892 267.55124431 476.66077232 288.86015987 C476.70152133 312.80544738 476.72517457 336.75066388 476.72549492 360.69599473 C476.72607958 373.37249621 476.73457715 386.04888087 476.76349258 398.72535229 C476.78800178 409.51979778 476.79529239 420.31408387 476.78024506 431.10854967 C476.77307429 436.61486919 476.7739412 442.1208739 476.79665565 447.62715816 C476.81726689 452.67198699 476.81462491 457.7162594 476.79378081 462.76108234 C476.79029005 464.58210458 476.79517829 466.40316715 476.80948525 468.22413655 C476.90519872 481.25022693 475.66145709 492.591137 466.19714928 502.51006222 C458.54460788 509.1284764 450.46769735 512.57445979 440.34742355 512.52012444 C439.57419725 512.52393011 438.80097094 512.52773578 438.00431353 512.53165677 C435.40994463 512.54197389 432.81579448 512.53806616 430.22141075 512.53421688 C428.34387359 512.53866922 426.46633831 512.54398326 424.58880579 512.5500856 C419.42639714 512.5642766 414.26404866 512.56592869 409.1016233 512.5654887 C403.53497238 512.56713594 397.96834632 512.58020077 392.4017086 512.59168148 C380.22809304 512.61453818 368.05449491 512.62245287 355.88086081 512.62750793 C348.27947638 512.63076427 340.67809703 512.63728639 333.07671547 512.64450932 C312.03035148 512.66407639 290.98399149 512.68056117 269.93761826 512.68338585 C269.26453269 512.68347991 268.59144713 512.68357397 267.89796504 512.68367088 C265.17029497 512.68404936 262.44262491 512.68441336 259.71495484 512.68477386 C257.66198189 512.68504558 255.60900894 512.68532226 253.556036 512.68559933 C252.53846323 512.68573136 252.53846323 512.68573136 251.50033345 512.68586606 C230.19138618 512.68877067 208.88252968 512.71085936 187.57361412 512.74712276 C163.62832662 512.78787177 139.68311012 512.81152501 115.73777926 512.81184536 C103.06127779 512.81243002 90.38489312 512.82092759 77.70842171 512.84984303 C66.91397621 512.87435223 56.11969012 512.88164283 45.32522433 512.8665955 C39.8189048 512.85942473 34.31290009 512.86029164 28.80661583 512.8830061 C23.76178701 512.90361733 18.7175146 512.90097535 13.67269166 512.88013125 C11.85166941 512.8766405 10.03060684 512.88152873 8.20963745 512.89583569 C-4.81645294 512.99154916 -16.15736301 511.74780753 -26.07628822 502.28349972 C-32.69470241 494.63095832 -36.14068579 486.55404779 -36.08635044 476.43377399 C-36.09015611 475.66054769 -36.09396178 474.88732138 -36.09788278 474.09066397 C-36.10819989 471.49629507 -36.10429216 468.90214492 -36.10044289 466.30776119 C-36.10489523 464.43022403 -36.11020926 462.55268876 -36.11631161 460.67515624 C-36.13050261 455.51274758 -36.13215469 450.3503991 -36.1317147 445.18797374 C-36.13336195 439.62132282 -36.14642678 434.05469676 -36.15790749 428.48805904 C-36.18076418 416.31444349 -36.18867887 404.14084535 -36.19373393 391.96721125 C-36.19699028 384.36582682 -36.2035124 376.76444747 -36.21073532 369.16306591 C-36.2303024 348.11670192 -36.24678717 327.07034193 -36.24961185 306.0239687 C-36.24970592 305.35088314 -36.24979998 304.67779757 -36.24989689 303.98431548 C-36.25027536 301.25664542 -36.25063936 298.52897535 -36.25099987 295.80130528 C-36.25127159 293.74833233 -36.25154826 291.69535938 -36.25182533 289.64238644 C-36.25191336 288.96400459 -36.25200138 288.28562275 -36.25209207 287.58668389 C-36.25499667 266.27773662 -36.27708537 244.96888012 -36.31334877 223.65996456 C-36.35409778 199.71467706 -36.37775101 175.76946056 -36.37807137 151.8241297 C-36.37865603 139.14762823 -36.3871536 126.47124356 -36.41606903 113.79477215 C-36.44057823 103.00032665 -36.44786884 92.20604056 -36.4328215 81.41157477 C-36.42565074 75.90525524 -36.42651764 70.39925053 -36.4492321 64.89296627 C-36.46984334 59.84813745 -36.46720135 54.80386504 -36.44635726 49.7590421 C-36.4428665 47.93801985 -36.44775474 46.11695728 -36.4620617 44.29598789 C-36.55777516 31.2698975 -35.31403353 19.92898743 -25.84972572 10.01006222 C-18.19718432 3.39164804 -10.1202738 -0.05433535 0 0 Z M182.17371178 109.51006222 C180.48023109 109.52911114 180.48023109 109.52911114 178.75253868 109.54854488 C147.69889414 109.93061277 118.99033193 113.20787224 96.17371178 136.26006222 C95.5059774 136.90588253 94.83824303 137.55170284 94.15027428 138.21709347 C76.74290016 156.29398197 74.24186936 183.19231226 73.82214928 206.97099972 C73.798498 208.18908321 73.77484673 209.40716671 73.75047874 210.66216183 C73.67665461 214.65303655 73.61120678 218.64399871 73.54871178 222.63506222 C73.53766285 223.31832829 73.52661392 224.00159435 73.51523018 224.70556545 C73.16144406 246.68774987 73.14971494 268.65275293 73.48621178 290.63506222 C73.50327171 291.91081112 73.52033165 293.18656002 73.53790855 294.50096798 C73.9410267 323.01061004 74.88702277 352.98363399 95.17371178 375.26006222 C95.85046959 376.01674191 96.5272274 376.77342159 97.22449303 377.55303097 C114.99161272 396.39312059 140.19061918 401.71191085 165.12830162 402.52788448 C172.76547622 402.72489809 180.40333244 402.83486914 188.04247093 402.92146587 C190.3180626 402.94778604 192.59360002 402.97707129 194.86914635 403.00704098 C215.89196395 403.27892101 236.90125801 403.30505949 257.92371178 402.94756222 C259.04586082 402.93059292 260.16800987 402.91362362 261.32416344 402.8961401 C289.84784908 402.43521254 318.10204806 400.39633751 340.17371178 380.26006222 C340.78214928 379.74314816 341.39058678 379.22623409 342.01746178 378.69365597 C358.73808927 363.53108694 364.72135958 339.94752144 366.17371178 318.26006222 C366.3071458 314.13881512 366.32068466 310.02142967 366.31897545 305.89824581 C366.32233406 304.71450375 366.32569267 303.53076168 366.32915306 302.31114864 C366.33859309 298.42692143 366.34060277 294.54273766 366.34168053 290.65849972 C366.34310659 289.30826581 366.34470308 287.95803208 366.34646606 286.60779858 C366.35569016 279.53371159 366.35980483 272.4596433 366.35901451 265.3855505 C366.35841517 258.84013164 366.36894629 252.29479558 366.38475817 245.74939764 C366.39793102 240.09035437 366.40319433 234.43133782 366.4025591 228.77227938 C366.40230687 225.40999049 366.40595685 222.04783328 366.41573715 218.68554974 C366.49160278 189.90767802 365.6731741 159.77013278 345.17371178 137.26006222 C344.49695396 136.50338253 343.82019615 135.74670284 343.12293053 134.96709347 C325.36020511 116.13166349 300.16745807 110.81005894 275.23523521 109.99223995 C267.61293353 109.79515333 259.98994403 109.68473334 252.36566734 109.59845638 C250.09095963 109.57232961 247.81629925 109.54349312 245.5416317 109.51409054 C224.41600878 109.24642524 203.29943889 109.20019612 182.17371178 109.51006222 Z " fill="#FFFFFF" transform="translate(35.8262882232666,-0.26006221771240234)"/>
<path d="M0 0 C2.22184256 -0.00067579 4.44368504 -0.00164809 6.66552734 -0.00289917 C11.2946036 -0.00436322 15.9236604 -0.00226353 20.55273438 0.00244141 C26.43921458 0.00813787 32.32564915 0.00485189 38.21212769 -0.00113106 C42.7919142 -0.00477179 47.37169019 -0.00358207 51.95147705 -0.00100327 C54.12005621 -0.00034368 56.28863638 -0.00112789 58.45721436 -0.00348282 C115.1783279 -0.05158464 115.1783279 -0.05158464 133.625 18.1328125 C151.46873761 38.1016077 148.78488857 68.57433731 148.7578125 93.5078125 C148.75848829 95.72965506 148.75946059 97.95149754 148.76071167 100.17333984 C148.76217572 104.8024161 148.76007603 109.4314729 148.75537109 114.06054688 C148.74967463 119.94702708 148.75296061 125.83346165 148.75894356 131.71994019 C148.76258429 136.2997267 148.76139457 140.87950269 148.75881577 145.45928955 C148.75815618 147.62786871 148.75894039 149.79644888 148.76129532 151.96502686 C148.80833845 207.4377434 148.80833845 207.4377434 131.625 226.1328125 C110.77221332 244.63756422 81.36195146 242.29398082 55.25 242.265625 C53.02815744 242.26630079 50.80631496 242.26727309 48.58447266 242.26852417 C43.9553964 242.26998822 39.3263396 242.26788853 34.69726562 242.26318359 C28.81078542 242.25748713 22.92435085 242.26077311 17.03787231 242.26675606 C12.4580858 242.27039679 7.87830981 242.26920707 3.29852295 242.26662827 C1.12994379 242.26596868 -1.03863638 242.26675289 -3.20721436 242.26910782 C-57.66311373 242.31528865 -57.66311373 242.31528865 -76.375 226.1328125 C-87.13696348 214.88443259 -91.39350023 200.66911604 -92.54589844 185.45703125 C-92.62560757 184.46853683 -92.7053167 183.48004242 -92.78744125 182.46159363 C-93.61694117 171.29346554 -93.66500246 160.13843808 -93.640625 148.9453125 C-93.64197861 146.70157835 -93.64392485 144.45784449 -93.64642334 142.21411133 C-93.64934198 137.55189167 -93.64518364 132.88974957 -93.63574219 128.22753906 C-93.62434979 122.3215975 -93.630927 116.41583788 -93.64288712 110.50990295 C-93.65019486 105.88869921 -93.64777743 101.26753694 -93.64263153 96.64633179 C-93.64131952 94.47154721 -93.64285419 92.29675857 -93.64759064 90.12197876 C-93.66662379 78.93398764 -93.42759175 67.82940501 -92.49902344 56.67578125 C-92.42367496 55.74630173 -92.34832649 54.8168222 -92.27069473 53.85917664 C-91.15621141 41.81175615 -88.04903581 30.70472813 -80.375 21.1328125 C-79.6325 20.1015625 -78.89 19.0703125 -78.125 18.0078125 C-58.26654315 -2.75330148 -26.37159123 -0.02863777 0 0 Z M93.8125 30.3203125 C90.26464236 34.88184375 88.58552149 38.88253747 88.6875 44.6953125 C90.17371863 50.14478081 91.96723274 54.40404188 96.875 57.5078125 C102.19068144 60.13157834 106.62685185 60.74241702 112.3125 59.0078125 C117.85186533 55.87232269 121.26027594 52.35684109 123.2421875 46.30859375 C124.0946519 41.46346443 122.90962004 37.29616285 120.42578125 33.11328125 C116.82877621 28.4322473 113.2602435 26.7032902 107.625 25.1328125 C102.2935301 25.1328125 97.98981491 27.07128979 93.8125 30.3203125 Z M-26.375 69.1328125 C-27.07625 69.80957031 -27.7775 70.48632812 -28.5 71.18359375 C-42.39328739 85.59245235 -47.90103014 105.31317977 -47.58984375 124.93359375 C-46.87215212 144.39150646 -37.775633 161.48526667 -24.375 175.1328125 C-23.69824219 175.8340625 -23.02148438 176.5353125 -22.32421875 177.2578125 C-7.91536015 191.15109989 11.80536727 196.65884264 31.42578125 196.34765625 C50.88369396 195.62996462 67.97745417 186.5334455 81.625 173.1328125 C82.32625 172.45605469 83.0275 171.77929688 83.75 171.08203125 C97.64328739 156.67317265 103.15103014 136.95244523 102.83984375 117.33203125 C102.12215212 97.87411854 93.025633 80.78035833 79.625 67.1328125 C78.94824219 66.4315625 78.27148438 65.7303125 77.57421875 65.0078125 C63.16536015 51.11452511 43.44463273 45.60678236 23.82421875 45.91796875 C4.36630604 46.63566038 -12.72745417 55.7321795 -26.375 69.1328125 Z " fill="#FFFFFF" transform="translate(228.375,134.8671875)"/>
<path d="M0 0 C2.24599495 1.43669429 4.36835124 2.95883208 6.48828125 4.57421875 C7.51953125 5.31671875 8.55078125 6.05921875 9.61328125 6.82421875 C18.009256 14.85515112 24.4036941 26.09403907 24.7265625 37.91796875 C25.03479302 52.19515087 23.34115622 62.9562726 14.48828125 74.57421875 C13.74578125 75.60546875 13.00328125 76.63671875 12.23828125 77.69921875 C4.20734888 86.0951935 -7.03153907 92.4896316 -18.85546875 92.8125 C-33.13265087 93.12073052 -43.8937726 91.42709372 -55.51171875 82.57421875 C-56.54296875 81.83171875 -57.57421875 81.08921875 -58.63671875 80.32421875 C-67.0326935 72.29328638 -73.4271316 61.05439843 -73.75 49.23046875 C-74.09621488 33.268876 -71.52255474 20.57278099 -60.48046875 8.3203125 C-44.65605391 -6.78741688 -19.24981736 -10.92719026 0 0 Z " fill="#FFFFFF" transform="translate(280.51171875,212.42578125)"/>
</svg>
