<?xml version="1.0" encoding="UTF-8"?>
<svg version="1.1" xmlns="http://www.w3.org/2000/svg" width="512" height="512">
<path d="M0 0 C0.66581413 -0.00320648 1.33162825 -0.00641296 2.01761857 -0.0097166 C4.25258165 -0.01802955 6.48727766 -0.01208788 8.72224522 -0.00622082 C10.33920788 -0.00924091 11.95616911 -0.01312968 13.57312781 -0.01781338 C18.01968886 -0.02812041 22.46616952 -0.0259047 26.91273725 -0.02163279 C31.70695552 -0.01917048 36.50115419 -0.02817354 41.29536533 -0.03567028 C50.68880576 -0.04843291 60.08221763 -0.05020904 69.47566526 -0.04787002 C77.10898449 -0.04608851 84.74229503 -0.04783289 92.37561321 -0.05209446 C94.00391094 -0.05298724 94.00391094 -0.05298724 95.66510357 -0.05389806 C97.87020552 -0.05510979 100.07530746 -0.05632392 102.2804094 -0.05754044 C122.96919072 -0.06842192 143.65795575 -0.06625055 164.34673799 -0.06015559 C183.28284324 -0.05498538 202.21889707 -0.06624357 221.15499216 -0.08525381 C240.58913756 -0.10461481 260.02325862 -0.1128913 279.45741373 -0.10913056 C290.37201159 -0.10721594 301.28656566 -0.10973148 312.20115566 -0.1238451 C321.49233615 -0.1357377 330.78344591 -0.13718763 340.07462733 -0.12505493 C344.81660035 -0.11915144 349.55844385 -0.11810732 354.30040836 -0.13005733 C358.6398478 -0.14086605 362.97904881 -0.13787284 367.31847686 -0.12379565 C368.88975607 -0.12113486 370.46105366 -0.12355837 372.03231489 -0.13153151 C374.16622616 -0.14160963 376.29930412 -0.13324045 378.43318176 -0.12025452 C380.21190317 -0.12033704 380.21190317 -0.12033704 382.02655834 -0.12042123 C386.64299827 0.41161493 390.04688012 1.85724982 393.1380024 5.36113262 C394.76202569 9.4774875 394.63613961 13.1629123 394.54365635 17.54796314 C394.53619186 18.48813687 394.52872737 19.4283106 394.52103668 20.39697444 C394.49283213 23.55177196 394.44337955 26.70589292 394.39450169 29.86043262 C394.37077187 32.12320353 394.34865638 34.38599186 394.3280344 36.64879322 C394.28208085 41.53293331 394.22860898 46.41691604 394.17059231 51.30092716 C394.08229085 59.07797675 394.03544638 66.85492967 393.99876499 74.63237476 C393.98923295 76.60811676 393.98923295 76.60811676 393.97950834 78.62377274 C393.96661265 81.31907155 393.95394097 84.01437133 393.94138253 86.70967174 C393.9088849 93.64470888 393.87401266 100.57972885 393.83444309 107.5147295 C393.83049099 108.21029048 393.8265389 108.90585145 393.82246704 109.62249003 C393.7571933 120.76912584 393.62981002 131.91425796 393.48066746 143.06004764 C393.32825011 154.58330792 393.25775685 166.10520775 393.25071961 177.62947071 C393.24402477 184.06783191 393.20375357 190.50133463 393.07141018 196.93843937 C392.37196037 232.36469705 398.02518555 259.96523004 412.95400906 292.17194843 C416.00811221 298.77187972 418.64474622 305.50842811 421.25607395 312.29353809 C422.05369053 314.29350103 422.85395614 316.29241238 423.6584177 318.28963184 C424.02982883 319.21405079 424.40123997 320.13846973 424.78390598 321.09090137 C425.33860569 322.47124561 425.33860569 322.47124561 425.90451145 323.87947559 C426.69245143 325.84424734 427.48020956 327.80909203 428.2677927 329.77400684 C428.65957706 330.75055225 429.05136143 331.72709766 429.45501804 332.73323536 C430.22766833 334.66168321 430.99849757 336.59086186 431.76733494 338.52083302 C433.81574316 343.65385971 435.90801515 348.76395134 438.05636692 353.85603809 C438.51602848 354.96200336 438.97569004 356.06796864 439.44928074 357.20744801 C440.32714816 359.318222 441.21784664 361.42372734 442.12414646 363.52245045 C445.943503 372.77959361 447.65298935 383.33795719 445.27951145 393.25447559 C442.86379243 397.34928182 440.75830017 398.87282439 436.27951145 400.25447559 C433.47409571 400.44131063 430.77001758 400.52480261 427.9660511 400.50895119 C427.12802286 400.51215767 426.28999462 400.51536414 425.42657158 400.51866779 C422.60579981 400.52699888 419.78523865 400.52103262 416.96446323 400.515172 C414.92677131 400.51819127 412.88908051 400.52207961 410.85139173 400.52676457 C405.24187528 400.5370823 399.63242247 400.53485317 394.0229007 400.53058398 C387.97713882 400.5281236 381.93139255 400.53712231 375.88563633 400.54462147 C364.03772318 400.5573895 352.1898321 400.55916541 340.3419152 400.5568212 C330.7148893 400.55498951 321.08787006 400.55674555 311.46084499 400.56104565 C310.0784019 400.56164804 308.6959588 400.56224924 307.3135157 400.56284925 C305.23038452 400.56375649 303.14725333 400.56466515 301.06412215 400.5655816 C281.69305513 400.57401276 262.32199061 400.57834568 242.95092201 400.57417488 C241.85524465 400.57394032 241.85524465 400.57394032 240.73743238 400.57370101 C237.03509894 400.57289521 233.33276551 400.57204944 229.63043208 400.57118771 C228.89511876 400.57101662 228.15980545 400.57084554 227.40220992 400.57066926 C225.91522765 400.57032261 224.42824537 400.56997408 222.9412631 400.56962368 C199.79984709 400.56426555 176.65846918 400.57219881 153.51706028 400.59065723 C127.52569209 400.61136454 101.5343475 400.62210242 75.5429706 400.61808175 C72.77264496 400.61768639 70.00231932 400.61732485 67.23199368 400.61698437 C66.54985438 400.61689364 65.86771508 400.6168029 65.16490489 400.61670942 C54.85921047 400.61554257 44.55353985 400.62219841 34.24785137 400.63279629 C22.53024677 400.64483371 10.81268548 400.64614514 -0.90492313 400.63400612 C-6.88634971 400.62809869 -12.86767357 400.62706935 -18.84909344 400.63900852 C-24.32097453 400.64980397 -29.79266636 400.64683994 -35.26453836 400.63274684 C-37.24765874 400.63008236 -39.23079365 400.63252087 -41.21389984 400.6404827 C-43.90322628 400.65053333 -46.59188777 400.64221433 -49.28118706 400.6292057 C-50.05654239 400.63651505 -50.83189771 400.6438244 -51.63074866 400.65135524 C-57.22863511 400.59497829 -61.36753931 399.41735815 -65.5278616 395.59309864 C-69.62464951 387.55970429 -68.12284445 376.57553003 -65.57150173 368.27101612 C-62.09212316 357.79569012 -57.72814347 347.62317608 -53.4575491 337.45253468 C-52.10822728 334.22494371 -50.78232817 330.98809568 -49.46086669 327.74901491 C-48.47778553 325.34060531 -47.49224113 322.93321884 -46.50627422 320.52598953 C-45.13558564 317.17683738 -43.77398472 313.82425412 -42.42086315 310.46796989 C-39.12816143 302.33962677 -35.77580725 294.27523636 -32.03371376 286.34188986 C-17.34778054 255.06150946 -14.03877212 227.8162066 -14.7238009 193.52603197 C-14.83180473 187.00303328 -14.82430954 180.48003478 -14.82984829 173.95628834 C-14.85017652 163.06262051 -14.93900205 152.17115228 -15.07961941 141.27840137 C-15.22363541 130.1040116 -15.33744607 118.93008928 -15.40579128 107.75496387 C-15.41005765 107.06006207 -15.41432401 106.36516027 -15.41871966 105.64920084 C-15.46456845 98.05910532 -15.50320143 90.46898211 -15.53809166 82.878829 C-15.54434105 81.53527714 -15.55059746 80.1917253 -15.55686098 78.8481735 C-15.5691952 76.19767471 -15.58129031 73.5471748 -15.59313911 70.8966738 C-15.630989 63.1671502 -15.69921545 55.43865171 -15.79464257 47.70962882 C-15.85133763 42.93269226 -15.89289296 38.15569424 -15.93174648 33.37858295 C-15.95358676 31.16532552 -15.98250098 28.95212498 -16.01897907 26.7390604 C-16.06812038 23.72203578 -16.0927272 20.70574798 -16.11161709 17.68840504 C-16.14269813 16.37466469 -16.14269813 16.37466469 -16.17440706 15.03438413 C-16.17619494 9.65535315 -15.47280066 6.4123901 -11.72048855 2.25447559 C-7.75652189 0.21708869 -4.42086507 0.0032319 0 0 Z M19.27951145 30.25447559 C19.27951145 96.25447559 19.27951145 162.25447559 19.27951145 230.25447559 C131.47951145 230.25447559 243.67951145 230.25447559 359.27951145 230.25447559 C359.27951145 164.25447559 359.27951145 98.25447559 359.27951145 30.25447559 C247.07951145 30.25447559 134.87951145 30.25447559 19.27951145 30.25447559 Z M150.27951145 330.25447559 C146.97951145 340.81447559 143.67951145 351.37447559 140.27951145 362.25447559 C172.61951145 362.25447559 204.95951145 362.25447559 238.27951145 362.25447559 C233.32951145 346.41447559 233.32951145 346.41447559 228.27951145 330.25447559 C202.53951145 330.25447559 176.79951145 330.25447559 150.27951145 330.25447559 Z " fill="#FFFFFF" transform="translate(66.72048854827881,55.745524406433105)"/>
</svg>
