<?xml version="1.0" encoding="UTF-8"?>
<svg version="1.1" xmlns="http://www.w3.org/2000/svg" width="512" height="512">
<path d="M0 0 C40.40491772 -0.7841137 77.55120112 14.84076169 106.65893555 42.59545898 C131.74574051 67.08025146 148.94341846 101.90055991 149.88243103 137.35108948 C149.91224201 141.16141391 149.90960242 144.97091381 149.89453125 148.78125 C149.89266237 150.18086191 149.89124069 151.58047448 149.89024353 152.98008728 C149.88645536 156.63457091 149.8766574 160.28901375 149.86553955 163.94348145 C149.85524516 167.68432056 149.85072884 171.42516638 149.84570312 175.16601562 C149.8350312 182.48439344 149.81800015 189.80273784 149.796875 197.12109375 C151.05765869 197.10739746 152.31844238 197.09370117 153.61743164 197.07958984 C162.50695265 196.98302019 171.12285267 201.44375906 177.796875 207.12109375 C184.49574854 214.15159469 189.90513338 223.19806921 189.93109608 233.14331913 C189.93555392 233.93871383 189.94001176 234.73410853 189.94460469 235.55360609 C189.94432815 236.85557839 189.94432815 236.85557839 189.94404602 238.18385315 C189.94772271 239.11055956 189.9513994 240.03726598 189.9551875 240.9920544 C189.96622169 244.10481594 189.97006776 247.2175441 189.97387695 250.33032227 C189.98014187 252.55934251 189.98678869 254.78836171 189.99378967 257.01737976 C190.01483136 264.34491244 190.02519303 271.67244533 190.03515625 279 C190.03920394 281.52325896 190.04332087 284.0465178 190.04750633 286.56977654 C190.06437596 297.06725132 190.07900993 307.56472498 190.08625507 318.06221104 C190.08816484 320.785045 190.09008519 323.50787896 190.09204102 326.23071289 C190.09252476 326.90742564 190.0930085 327.58413838 190.0935069 328.28135758 C190.10180056 339.2344868 190.12712667 350.18750658 190.15962169 361.14058805 C190.19274259 372.39682077 190.21037603 383.65300005 190.21389931 394.90928787 C190.21624829 401.22481623 190.22518902 407.54017162 190.25036049 413.85565376 C190.27367235 419.80070459 190.2778617 425.74546894 190.26759911 431.69055367 C190.26710438 433.86773635 190.27340611 436.04493328 190.28715515 438.2220726 C190.377702 453.41515032 189.83030971 465.56870403 178.796875 477.12109375 C170.57868319 484.77545951 160.49725804 488.23732306 149.34442711 488.25252151 C147.74917987 488.25828323 147.74917987 488.25828323 146.12170541 488.26416135 C144.96451962 488.26329487 143.80733382 488.26242838 142.61508179 488.26153564 C141.37702211 488.26450677 140.13896243 488.26747789 138.8633858 488.27053905 C135.43401544 488.27770527 132.00469519 488.28039727 128.57532096 488.28113651 C124.87372514 488.28299129 121.1721401 488.29054078 117.47055054 488.29727173 C109.37945055 488.31083867 101.28835554 488.31687728 93.19724607 488.32128239 C88.1420109 488.32404772 83.08677762 488.32828562 78.03154373 488.33278656 C64.02629657 488.34497735 50.02105092 488.35527687 36.01579857 488.35866165 C34.67191204 488.358991 34.67191204 488.358991 33.3008763 488.359327 C32.40284622 488.35954528 31.50481614 488.35976356 30.57957304 488.35998845 C28.75991718 488.36043191 26.94026132 488.36087848 25.12060547 488.36132812 C23.76669623 488.36166027 23.76669623 488.36166027 22.3854353 488.36199912 C7.76661763 488.36594544 -6.85215013 488.38339524 -21.47094853 488.40668765 C-36.49132324 488.43042607 -51.51167294 488.44286464 -66.5320667 488.44402957 C-74.96080391 488.44494496 -83.38947609 488.45066284 -91.81819534 488.46884918 C-98.99675551 488.48428386 -106.17523057 488.48935084 -113.35380419 488.48111108 C-117.01302815 488.47721639 -120.6720809 488.47807598 -124.33128357 488.49216843 C-128.30740528 488.50734064 -132.28328881 488.49900583 -136.25942993 488.48858643 C-137.4032314 488.49664283 -138.54703286 488.50469923 -139.72549498 488.51299977 C-152.93043362 488.43236323 -164.08800813 485.42813755 -174.046875 476.4609375 C-179.85057564 470.19827074 -184.31098381 461.71037865 -184.34013939 453.07042694 C-184.3477512 451.86780976 -184.3477512 451.86780976 -184.35551679 450.64089727 C-184.35601455 449.76581597 -184.35651231 448.89073466 -184.35702515 447.98913574 C-184.36359853 446.58788381 -184.36359853 446.58788381 -184.3703047 445.15832376 C-184.38368564 442.02026068 -184.38987005 438.88222567 -184.39599609 435.74414062 C-184.40389773 433.49703851 -184.41216672 431.24993765 -184.42077637 429.00283813 C-184.44699345 421.61518566 -184.46230561 414.22752754 -184.4765625 406.83984375 C-184.48192267 404.29555762 -184.48730018 401.75127153 -184.49269485 399.20698547 C-184.5143248 388.6211572 -184.53321137 378.03533026 -184.54431725 367.44948578 C-184.54724673 364.7036285 -184.55020842 361.95777125 -184.55322266 359.21191406 C-184.55396871 358.5294824 -184.55471476 357.84705073 -184.55548342 357.14393932 C-184.56812392 346.10092772 -184.60133068 335.05807762 -184.64302449 324.01514143 C-184.68552466 312.66510485 -184.70861458 301.31518069 -184.71423781 289.96505404 C-184.71788732 283.59747125 -184.72986639 277.23016217 -184.76234055 270.86265564 C-184.79247694 264.86749228 -184.79871279 258.87276741 -184.78695679 252.8775444 C-184.78673651 250.68303668 -184.79500332 248.48850829 -184.81261063 246.2940712 C-184.93121342 230.6547324 -184.0629203 219.10951751 -172.66796875 207.31640625 C-165.2377309 200.69866668 -157.49313442 197.00791825 -147.48046875 197.08203125 C-145.99728149 197.09049072 -145.99728149 197.09049072 -144.48413086 197.09912109 C-143.73139893 197.10637207 -142.97866699 197.11362305 -142.203125 197.12109375 C-142.20978683 196.31946304 -142.21644867 195.51783234 -142.22331238 194.69190979 C-142.28394803 187.05954472 -142.32936181 179.42729985 -142.35856152 171.79475498 C-142.37407902 167.87274793 -142.3950553 163.95094333 -142.42944336 160.02905273 C-142.46254299 156.229416 -142.48008193 152.42997135 -142.48775673 148.63020134 C-142.49321115 147.19564739 -142.50385517 145.76110143 -142.52031517 144.32663155 C-142.94151919 106.02219428 -126.61629992 70.73318946 -100.3671875 43.2890625 C-91.33238427 34.10041587 -81.28120626 26.65595097 -70.203125 20.12109375 C-69.62369141 19.77449707 -69.04425781 19.42790039 -68.44726562 19.07080078 C-47.66112735 6.79175295 -24.01060956 0.90771817 0 0 Z M-57.953125 91.80859375 C-84.05102044 122.46402608 -78.203125 156.44263745 -78.203125 197.12109375 C-24.083125 197.12109375 30.036875 197.12109375 85.796875 197.12109375 C88.2906054 135.15395023 88.2906054 135.15395023 59.984375 86.93359375 C55.05071867 82.11326796 49.79605728 78.49239215 43.796875 75.12109375 C42.98476563 74.65960938 42.17265625 74.198125 41.3359375 73.72265625 C7.74676606 55.78669092 -32.28590253 65.07744496 -57.953125 91.80859375 Z M-25.88671875 292.2578125 C-31.90077892 300.77029529 -32.99711345 308.82259647 -32.203125 319.12109375 C-30.65490977 327.00862267 -26.97722054 332.14350962 -21.421875 337.83203125 C-20.6896875 338.58742188 -19.9575 339.3428125 -19.203125 340.12109375 C-18.50703125 340.74540283 -17.8109375 341.36971191 -17.09375 342.01293945 C-14.14921111 346.85370967 -14.67871739 351.58310911 -14.734375 357.140625 C-14.72732544 358.3131633 -14.72027588 359.4857016 -14.7130127 360.69377136 C-14.68353386 365.70294513 -14.70013197 370.71173016 -14.71240234 375.72094727 C-14.71478842 379.38190809 -14.6938313 383.04224207 -14.671875 386.703125 C-14.68319458 387.82733353 -14.69451416 388.95154205 -14.70617676 390.1098175 C-14.65994514 397.33791863 -13.87302711 403.27788567 -8.72033691 408.67390442 C-4.23151128 412.60856422 -0.40530551 413.54025897 5.3828125 413.46484375 C11.02914588 412.66083511 14.77849028 409.40060276 18.234375 405.05859375 C20.48194861 400.83315537 20.92049343 397.55049777 20.92285156 392.78930664 C20.92665833 391.72462662 20.93046509 390.65994659 20.93438721 389.56300354 C20.93541443 388.41814987 20.93644165 387.2732962 20.9375 386.09375 C20.95582143 383.66861035 20.97539112 381.24347987 20.99609375 378.81835938 C21.02510984 374.99536595 21.04687635 371.1729644 21.04736328 367.34985352 C21.05069174 363.65978485 21.0852005 359.97108205 21.125 356.28125 C21.1179303 355.13842056 21.1108606 353.99559113 21.10357666 352.81813049 C21.22591432 344.85999081 21.22591432 344.85999081 24.22143555 340.98339844 C25.07133057 340.36883789 25.92122559 339.75427734 26.796875 339.12109375 C34.02799986 331.58929842 39.68617108 323.30088333 39.83203125 312.5234375 C39.26102063 302.62127777 36.19628999 294.49573243 29.34765625 287.234375 C21.44487821 280.68705047 11.69139007 276.68923852 1.390625 276.84375 C-9.9080934 278.05189609 -18.82469734 283.57941562 -25.88671875 292.2578125 Z " fill="#000000" transform="translate(253.203125,11.87890625)"/>
</svg>
