<?xml version="1.0" encoding="UTF-8"?>
<svg version="1.1" xmlns="http://www.w3.org/2000/svg" width="512" height="512">
<path d="M0 0 C1.88681752 0.8519272 3.77436786 1.70223298 5.66259766 2.55102539 C9.59924185 4.32258343 13.53230626 6.1017578 17.46289062 7.88671875 C25.94072379 11.73135797 34.45430668 15.49519047 42.96536255 19.26553345 C47.62859308 21.33280512 52.28881974 23.40682364 56.94921875 25.48046875 C67.84722946 30.32832819 78.7467595 35.17276553 89.64654541 40.01663208 C92.45823411 41.26616361 95.26989561 42.51575631 98.08154297 43.76538086 C99.40116028 44.35161476 99.40116028 44.35161476 100.74743652 44.94969177 C102.46647985 45.71407869 104.18499901 46.47964564 105.9029541 47.24647522 C110.10008455 49.11821751 114.30487308 50.96713347 118.52978516 52.77539062 C119.76635612 53.30993866 119.76635612 53.30993866 121.02790833 53.85528564 C122.5763824 54.5238766 124.12803071 55.18518484 125.68339539 55.83758545 C129.63737607 57.55395557 132.59424369 59.1365556 135.375 62.5625 C136.7564595 66.7823681 136.87375292 70.44624345 135.0625 74.5 C133.375 76.5625 133.375 76.5625 131.375 78.5625 C131.06997138 80.61747279 131.06997138 80.61747279 131.11671448 83.0145874 C131.10647247 84.41928284 131.10647247 84.41928284 131.09602356 85.85235596 C131.09857651 86.88302185 131.10112946 87.91368774 131.10375977 88.97558594 C131.09853302 90.05864014 131.09330627 91.14169434 131.08792114 92.25756836 C131.07765852 94.61586808 131.07189682 96.97419059 131.07003975 99.3325119 C131.06638893 103.06457681 131.04969656 106.7963729 131.02928162 110.52838135 C130.98076263 119.8015903 130.94924178 129.07483589 130.92797852 138.34814453 C130.91000202 146.17444583 130.88059434 154.00054067 130.83393669 161.82672882 C130.82228079 164.30023438 130.81635629 166.7737738 130.81625557 169.24730682 C130.81606355 172.70901734 130.79779764 176.17020637 130.77563477 179.63183594 C130.78021194 180.65440491 130.78478912 181.67697388 130.789505 182.73052979 C130.73493603 188.09104897 130.42252345 191.94923622 127.375 196.5625 C123.27470714 200.44698797 119.66542965 202.30320608 114.0625 202.9375 C109.4737984 202.47085238 106.13398176 201.23464573 102.375 198.5625 C99.04464271 194.37820495 97.24775313 190.90635297 97.25474548 185.5572052 C97.25268349 184.33938103 97.25268349 184.33938103 97.25057983 183.09695435 C97.25417511 182.21006927 97.25777039 181.3231842 97.26147461 180.40942383 C97.26132858 179.47264297 97.26118256 178.53586212 97.2610321 177.57069397 C97.2617295 174.47028295 97.26951383 171.36993179 97.27734375 168.26953125 C97.27920854 166.12147555 97.28063216 163.97341943 97.28163147 161.82536316 C97.2854518 156.16841459 97.29527799 150.51149165 97.30633545 144.85455322 C97.31655995 139.08337755 97.32113132 133.31219774 97.32617188 127.54101562 C97.33690066 116.21483248 97.35397131 104.88866837 97.375 93.5625 C96.8688063 93.791651 96.36261261 94.020802 95.84107971 94.25689697 C90.5359021 96.65844798 85.23053007 99.05956907 79.92504883 101.46044922 C77.94941376 102.35454639 75.97382701 103.24875034 73.99829102 104.14306641 C71.1461256 105.43420563 68.29378219 106.72495093 65.44140625 108.015625 C64.13303551 108.60806 64.13303551 108.60806 62.79823303 109.21246338 C57.33355198 111.68461609 51.8591369 114.13381154 46.375 116.5625 C46.36041748 117.84189453 46.34583496 119.12128906 46.33081055 120.43945312 C46.27209627 125.26311875 46.19487978 130.08635251 46.11254883 134.90966797 C46.07963882 136.98283796 46.05150581 139.05609027 46.02856445 141.12939453 C45.70263096 169.82541174 40.7325148 193.25129982 20.375 214.5625 C19.83488281 215.17738281 19.29476562 215.79226563 18.73828125 216.42578125 C6.5193856 229.81424374 -13.98932532 238.7105456 -31.93701172 239.68847656 C-57.84102467 240.45881988 -80.00987506 234.88854141 -99.34765625 216.7421875 C-100.09917969 216.02289063 -100.85070312 215.30359375 -101.625 214.5625 C-102.26308594 213.98757813 -102.90117187 213.41265625 -103.55859375 212.8203125 C-118.660484 198.76109174 -126.06128082 176.55108564 -126.87670898 156.37939453 C-127.06511459 150.35818129 -127.15946609 144.33583411 -127.25 138.3125 C-127.28825264 136.19920394 -127.32730839 134.08592225 -127.3671875 131.97265625 C-127.46238972 126.83605652 -127.54670548 121.69938412 -127.625 116.5625 C-132.82751799 114.19487278 -138.03152881 111.83056243 -143.23693848 109.46929932 C-145.11870773 108.6156458 -147.00029998 107.76160197 -148.88171387 106.90716553 C-159.66389473 102.01316036 -170.46448744 97.17054986 -181.33203125 92.46875 C-182.26643539 92.06345062 -183.20083954 91.65815125 -184.16355896 91.24057007 C-188.65249597 89.29434861 -193.14552645 87.3587698 -197.64624023 85.43994141 C-199.27996236 84.73380827 -200.91351635 84.02728598 -202.546875 83.3203125 C-203.27949051 83.01266968 -204.01210602 82.70502686 -204.766922 82.38806152 C-209.74494249 80.21685438 -215.41747149 77.58909507 -217.53515625 72.28125 C-217.78198128 68.6864649 -217.85165463 66.16246813 -216.5625 62.75 C-212.21636416 57.84307244 -206.38098815 55.39188343 -200.4765625 52.8671875 C-199.68438324 52.52253448 -198.89220398 52.17788147 -198.07601929 51.82278442 C-196.36521409 51.07896238 -194.65331122 50.33766089 -192.94042969 49.59863281 C-188.30121751 47.5964465 -183.67052946 45.57471011 -179.0390625 43.5546875 C-178.08582092 43.1394281 -177.13257935 42.7241687 -176.15045166 42.29632568 C-166.60557579 38.13184355 -157.11293455 33.85473118 -147.625 29.5625 C-132.12234261 22.55662608 -116.57584496 15.65596498 -100.98291016 8.85327148 C-99.30497369 8.12102111 -97.62707581 7.38868231 -95.94921875 6.65625 C-95.14176208 6.30381729 -94.33430542 5.95138458 -93.50238037 5.58827209 C-88.65403877 3.46666412 -83.82976419 1.30040956 -79.01953125 -0.90625 C-50.14144825 -14.10980959 -28.48426579 -13.0762953 0 0 Z " fill="#000000" transform="translate(296.625,59.4375)"/>
<path d="M0 0 C1.29744141 -0.04253906 1.29744141 -0.04253906 2.62109375 -0.0859375 C10.62111746 1.16771827 15.93240275 6.18491086 21.38671875 11.80859375 C22.09601028 12.52354507 22.80530182 13.2384964 23.53608704 13.97511292 C25.78370154 16.24495299 28.01697038 18.5283194 30.25 20.8125 C31.76013157 22.34272129 33.27119118 23.8720273 34.78320312 25.40039062 C37.55876685 28.20849073 40.32890976 31.02169796 43.0925293 33.84155273 C43.68915375 34.4486911 44.2857782 35.05582947 44.90048218 35.68136597 C46.38762749 37.19680092 47.86957926 38.7173284 49.35083008 40.23852539 C53.40306445 44.15298648 57.79452604 45.91390187 63.4140625 46.44140625 C69.64586838 46.2487868 75.13698929 43.6840499 79.5625 39.375 C80.50494249 38.28531759 81.44016505 37.18937881 82.37109375 36.08984375 C87.40419451 30.31500221 92.79010849 24.88805211 98.18676758 19.45556641 C99.39829124 18.23246093 100.60531855 17.00488568 101.80786133 15.77294922 C103.56910762 13.96883914 105.34341753 12.17853135 107.12109375 10.390625 C107.64843613 9.84577454 108.1757785 9.30092407 108.71910095 8.73956299 C113.50123798 3.98446787 119.459831 -0.17951849 126.4375 -0.25 C151.88386547 0.83505822 181.05079365 18.96959357 199.5625 35.375 C200.8 36.39787109 200.8 36.39787109 202.0625 37.44140625 C217.93522559 50.90842187 229.04876176 69.06317793 233.5625 89.375 C233.75328125 90.14972656 233.9440625 90.92445313 234.140625 91.72265625 C236.50046395 106.55905111 234.40535828 120.08765706 225.5625 132.375 C218.18230575 141.65390195 208.11825285 146.49078254 196.5625 148.375 C192.85986064 148.64350128 189.17378132 148.64971399 185.46257019 148.63569641 C183.83439825 148.64143473 183.83439825 148.64143473 182.17333394 148.64728898 C178.55325017 148.65756894 174.93332648 148.6536363 171.31323242 148.6496582 C168.7107173 148.65400746 166.10820347 148.65919132 163.50569153 148.66514587 C157.18021148 148.67786553 150.85477393 148.67968995 144.52928325 148.67734561 C139.38466846 148.67555908 134.24006652 148.67731927 129.09545326 148.68157005 C127.99511025 148.68246284 127.99511025 148.68246284 126.87253809 148.68337366 C125.38205867 148.68458547 123.89157925 148.68579961 122.40109984 148.68701603 C108.4372617 148.69788123 94.47344774 148.69573403 80.50960825 148.68963119 C67.75333347 148.68446402 54.99713511 148.69571398 42.24087545 148.71472941 C29.12334141 148.73413251 16.00584347 148.74235941 2.88829499 148.73860615 C-4.46839932 148.73669772 -11.82502863 148.73914661 -19.1817112 148.75332069 C-26.10188068 148.76651946 -33.02189515 148.76394094 -39.94206429 148.75090981 C-42.47680971 148.74854761 -45.01156593 148.75126584 -47.54629898 148.75953293 C-51.01658146 148.77003211 -54.48635463 148.76187375 -57.95661926 148.7492218 C-58.95051833 148.75659609 -59.94441741 148.76397037 -60.96843463 148.77156812 C-74.38548142 148.66924204 -85.58817755 144.87153759 -95.625 135.875 C-105.50676593 125.49111181 -107.94865135 112.99880915 -107.70703125 99.203125 C-106.96225399 80.72677883 -98.18855802 63.29124459 -86.4375 49.375 C-85.67824219 48.45332031 -84.91898438 47.53164063 -84.13671875 46.58203125 C-66.06914305 25.61654652 -28.46791867 0.42300028 0 0 Z " fill="#000000" transform="translate(192.4375,321.625)"/>
</svg>
