<?xml version="1.0" encoding="UTF-8"?>
<!DOCTYPE svg PUBLIC "-//W3C//DTD SVG 1.1//EN" "http://www.w3.org/Graphics/SVG/1.1/DTD/svg11.dtd">
<svg xmlns="http://www.w3.org/2000/svg" version="1.1" width="512px" height="512px" style="shape-rendering:geometricPrecision; text-rendering:geometricPrecision; image-rendering:optimizeQuality; fill-rule:evenodd; clip-rule:evenodd" xmlns:xlink="http://www.w3.org/1999/xlink">
<g><path style="opacity:0.994" fill="#000000" d="M 232.5,-0.5 C 247.833,-0.5 263.167,-0.5 278.5,-0.5C 368.144,10.3879 435.644,54.7213 481,132.5C 497.695,163.971 507.861,197.304 511.5,232.5C 511.5,247.833 511.5,263.167 511.5,278.5C 500.612,368.144 456.279,435.644 378.5,481C 347.03,497.695 313.697,507.861 278.5,511.5C 263.167,511.5 247.833,511.5 232.5,511.5C 142.856,500.612 75.3562,456.279 30,378.5C 13.3053,347.029 3.1386,313.696 -0.5,278.5C -0.5,263.167 -0.5,247.833 -0.5,232.5C 10.3875,142.857 54.7208,75.3573 132.5,30C 163.971,13.3053 197.304,3.1386 232.5,-0.5 Z M 251.5,91.5 C 262.708,90.8949 269.875,95.8949 273,106.5C 273.333,153.5 273.667,200.5 274,247.5C 302.484,270.74 331.151,293.74 360,316.5C 367.656,328.313 365.489,337.813 353.5,345C 347.522,347.242 341.855,346.575 336.5,343C 306.833,319.333 277.167,295.667 247.5,272C 243.908,269.079 241.075,265.579 239,261.5C 237.347,209.892 237.014,158.225 238,106.5C 239.573,98.7647 244.073,93.7647 251.5,91.5 Z"/></g>
</svg>
